<svg xmlns="http://www.w3.org/2000/svg" height="1024" preserveAspectRatio="none" style="display: block;" version="1.1" viewBox="0 0 2048 2048" width="1024">
<path d="M 1590.31 112.157 C 1593.4 112.069 1593.39 112.245 1596.39 113.223 C 1600.6 116.402 1606.28 142.989 1608.11 150.145 C 1613.82 172.892 1619.65 195.607 1625.6 218.29 C 1652.81 320.778 1679.19 423.483 1704.74 526.394 L 1895.17 1268.8 L 1928.4 1400 C 1935.93 1429.11 1944.03 1458.09 1950.02 1487.56 C 1952.21 1498.34 1949.89 1500.88 1939.22 1504.12 L 459.229 1937.95 C 453.31 1938.3 449.988 1936.21 448.455 1930.33 C 442.317 1906.8 436.325 1883.21 430.258 1859.65 C 416.629 1807.38 403.353 1755.02 390.433 1702.56 L 164.558 818.672 L 116.239 633.526 C 113.204 621.68 97.8349 562.372 97.9735 552.369 C 99.9956 549.503 102.224 548.059 105.613 547.112 C 133.587 539.301 161.544 530.847 189.378 522.61 L 397.793 461.884 L 773.942 349.542 L 1230.82 215.232 C 1307.14 192.428 1383.63 170.229 1460.29 148.637 C 1503.12 136.405 1547.18 123.112 1590.31 112.157 z" fill="rgb(54,53,53)" transform="translate(0,0)"></path>
<path d="M 1509.3 266.051 C 1511.32 265.61 1510.31 265.519 1512.31 266.47 C 1517.59 283.404 1522.22 303.488 1526.78 320.835 L 1547.71 398.732 C 1571.21 484.843 1593.77 571.208 1615.38 657.813 L 1806.4 1404.55 C 1757.4 1420.85 1704.18 1435.56 1654.65 1450.33 C 1557.44 1479.97 1460.02 1508.91 1362.4 1537.14 L 541.217 1782.02 C 540.187 1782.34 538.648 1782.56 537.541 1782.76 C 534.895 1780.18 503.991 1659.65 501.554 1650.28 L 267.156 737.478 C 259.427 706.158 251.873 674.795 244.497 643.39 C 256.659 638.953 277.987 633.291 291.273 629.174 C 325.511 618.357 359.835 607.815 394.243 597.55 L 629.898 526.379 L 1509.3 266.051 z" fill="rgb(255,255,255)" transform="translate(0,0)"></path>
<path d="M 1455.07 393.114 C 1458.77 392.959 1463.33 393.044 1464.65 397.377 C 1469.97 414.869 1474.18 433.105 1478.95 450.751 L 1517.42 593.337 L 1656.57 1128.14 C 1662.28 1150.52 1707.31 1311.54 1704.01 1320.42 C 1698.02 1326.19 1689.39 1326.99 1681.5 1329.29 L 1634.58 1342.56 L 1496.09 1382.15 C 1328.66 1430.07 1161.72 1479.7 995.295 1531.02 L 594.224 1656.91 C 590.215 1657.64 584.772 1658.1 583.337 1653.41 C 573.176 1620.18 564.283 1581.36 556.055 1548.09 L 522.789 1417 L 399.252 939.3 L 363.625 799.86 C 360.753 788.481 344.22 729.835 345.978 723.801 C 354.581 717.761 396.525 706.343 409.044 702.509 L 520.061 668.814 C 724.074 606.847 928.534 546.36 1133.42 487.359 L 1344.82 425.89 C 1378.59 416.006 1422.61 404.544 1455.07 393.114 z" fill="rgb(54,53,53)" transform="translate(0,0)"></path>
<path d="M 1447.55 414.993 L 1449.78 414.912 C 1455.21 419.496 1589.11 945.531 1605.01 1004.96 C 1577.75 1018.06 1549.79 1033.77 1523.18 1048.35 C 1484.05 1070.12 1444.74 1091.54 1405.23 1112.62 C 1382.63 1069.66 1356.9 1029.52 1318.88 998.443 C 1305.54 987.532 1291.71 978.297 1277.54 968.517 C 1273.68 955.631 1270.14 942.201 1266.17 929.416 C 1263.27 920.103 1258.76 917.105 1250.5 913.582 C 1263.41 896.92 1273 877.933 1278.75 857.653 C 1288.09 826.11 1284.46 792.145 1268.66 763.291 C 1259.36 746.625 1247.15 731.758 1232.61 719.392 C 1195.08 687.543 1164 685.565 1115.91 696.358 C 1095.99 700.829 1075.22 713.462 1053.4 714.127 C 1034 714.717 1015.46 707.961 996.998 702.589 C 970.558 727.57 963.335 759.331 997.384 782.338 C 1005.64 787.916 1013.4 791.326 1022.37 795.504 C 1022.85 818.142 1027.5 841.665 1026.58 863.144 C 1025.72 883.116 992.05 901.719 1026.14 918.383 C 1027.01 939.073 1026.91 969.594 1042.46 984.942 C 1056.4 998.707 1073.37 997.225 1090.92 996.834 C 1095.94 1004.88 1099.95 1012.27 1104.44 1020.58 C 1094.96 1031.31 1077.59 1064.75 1081.49 1079.59 C 1084.53 1091.13 1106.14 1075.96 1111.71 1073.07 C 1106.94 1098.96 1103 1125 1099.9 1151.14 C 1097.35 1173.52 1095.98 1195.95 1093.14 1218.33 C 1068.4 1211.16 1043.56 1204.4 1018.6 1198.05 C 978.498 1188.33 937.883 1180.87 896.945 1175.7 C 891.366 1166.12 886.145 1157.02 879.445 1148.13 C 858.564 1120.46 827.337 1102.46 792.926 1098.26 C 741.887 1091.52 688.48 1118.09 658.822 1159.37 C 646.9 1175.97 632.082 1204.55 629.424 1224.96 C 593.639 1237.82 540.357 1261.15 506.685 1277.49 C 495.607 1230.08 480.316 1176.43 467.848 1128.75 L 396.369 853.405 C 386.397 814.889 374.597 773.522 365.802 735.03 C 385.187 728.423 409.085 721.931 429.076 715.813 L 594.31 665.929 C 733.328 623.611 872.581 582.073 1012.06 541.315 L 1259.17 469.924 C 1320.95 452.171 1386.36 434.075 1447.55 414.993 z" fill="rgb(255,255,255)" transform="translate(0,0)"></path>
<path d="M 586.972 730.364 C 627.816 727.62 652.885 749.912 667.935 785.682 C 686.737 759.068 722.909 748.353 753.612 758.446 C 774.565 765.246 791.905 780.183 801.732 799.899 C 805.368 807.182 812.4 821.369 809.76 829.294 C 804.046 834.468 671.323 870.626 651.449 876.314 C 590.705 892.691 530.329 911.241 469.529 927.419 C 466.938 928.109 464.135 928.797 461.66 927.638 C 458.323 923.533 458.286 919.445 458.277 914.135 C 458.096 895.946 465.294 878.459 478.227 865.668 C 491.14 852.982 508.204 847.2 526.085 847.22 C 521.291 837.57 518.139 827.189 516.759 816.503 C 511.252 771.453 542.84 735.661 586.972 730.364 z" fill="rgb(54,53,53)" transform="translate(0,0)"></path>
<path d="M 585.463 742.221 C 617.705 739.452 643.491 755.715 654.675 786.114 C 657.029 792.513 658.939 807.609 663.403 811.7 C 671.252 809.42 677.708 788.687 686.064 782.106 C 692.802 776.799 698.417 773.386 706.397 770.245 C 722.235 764.002 739.91 764.341 755.496 771.187 C 778.543 781.369 789.403 799.642 797.924 822.193 C 751.438 836.022 704.625 848.041 657.873 862.132 L 534.952 896.673 C 526.464 899.049 475.94 914.379 470.877 912.71 C 468.011 907.408 470.272 903.456 472.335 898.184 C 482.125 873.156 500.461 856.657 528.742 859.759 C 533.792 860.313 540.132 860.682 544.401 857.605 C 546.474 851.901 541.789 847.753 538.616 842.826 C 533.844 835.425 530.526 827.182 528.841 818.538 C 525.657 801.842 529.402 784.569 539.216 770.691 C 550.244 754.858 566.731 745.658 585.463 742.221 z" fill="rgb(255,255,255)" transform="translate(0,0)"></path>
<path d="M 1352.36 483.176 C 1368.71 481.539 1379.83 482.755 1394.63 490.316 C 1429.51 508.145 1440.51 555.277 1412.06 584.264 C 1408.86 587.354 1404.48 591.561 1400.51 593.495 C 1388.44 599.377 1373.89 602.789 1360.97 606.539 L 1305.47 622.794 C 1296.46 625.561 1258.47 638.644 1250.83 637.283 C 1241.7 629.303 1250.79 599.785 1257.07 591.483 C 1269.82 574.625 1281.82 570.153 1301.65 566.819 C 1301.02 564.778 1300.46 562.718 1299.96 560.641 C 1295.9 543.789 1298.86 526.01 1308.15 511.378 C 1318.62 494.937 1333.92 487.154 1352.36 483.176 z" fill="rgb(54,53,53)" transform="translate(0,0)"></path>
<path d="M 1354.51 494.138 C 1366.07 492.912 1377.15 493.873 1387.77 499.01 C 1400.34 505.056 1409.9 515.956 1414.25 529.201 C 1418.24 541.521 1417.69 554.783 1411.65 566.354 C 1408.09 573.189 1402.67 578.873 1396.01 582.746 C 1386.36 588.364 1364.44 593.76 1352.89 596.984 C 1335.79 601.668 1318.75 606.544 1301.76 611.613 C 1291.84 614.685 1268.72 623.058 1260.1 622.902 L 1259.14 621.491 C 1257.34 600.63 1279.07 580.295 1298.55 579.298 C 1302.63 579.089 1315.62 579.111 1318.13 577.517 C 1312.36 556.06 1301.37 543.185 1315.9 519.289 C 1325.03 504.276 1338.1 497.981 1354.51 494.138 z" fill="rgb(255,255,255)" transform="translate(0,0)"></path>
<path d="M 1259.83 979.135 C 1267.95 983.119 1275.19 988.382 1282.8 993.209 C 1339.11 1028.95 1369.84 1084.3 1400.23 1141.81 C 1420.12 1180.09 1439.35 1218.71 1457.91 1257.66 C 1471.74 1286.61 1493.77 1330.67 1504.83 1360.19 C 1475.54 1367.42 1440.82 1378.92 1411.5 1387.48 L 1238.16 1437.59 C 1246.18 1369.26 1250.85 1296.04 1257.41 1227.11 C 1258.7 1212.17 1260.61 1197.09 1261.44 1182.12 C 1261.76 1176.34 1261.73 1172.33 1256.86 1169.04 C 1247.55 1171.69 1248.72 1192.57 1248.06 1200.43 C 1246.62 1217.41 1245.08 1234.38 1243.44 1251.33 L 1226.35 1440.22 C 1185.77 1454.93 1136.52 1468.52 1094.85 1480.39 C 1098.83 1394.29 1104.38 1308.27 1111.47 1222.37 C 1114.19 1188.83 1116.64 1155.91 1121.59 1122.59 C 1126.41 1090.16 1123.58 1083.17 1146.37 1058.33 C 1180.41 1021.23 1215.9 1001.22 1259.83 979.135 z" fill="rgb(255,255,255)" transform="translate(0,0)"></path>
<path d="M 1157.01 1063.13 C 1159.85 1063.33 1162.69 1063.61 1165.52 1063.95 C 1195.7 1067.8 1212.88 1084.02 1231.92 1107.08 C 1235.19 1111.04 1240.44 1119.47 1239.06 1124.93 C 1238.31 1127.88 1236.16 1128.38 1233.58 1129.81 C 1229.49 1127.34 1227.59 1124.22 1224.9 1120.4 C 1216.48 1108.43 1207.96 1097.6 1195.67 1089.25 C 1189.37 1084.9 1182.36 1081.68 1174.95 1079.76 C 1167.83 1077.97 1159 1078.89 1154.98 1075.9 C 1151.31 1070.67 1152.32 1066.83 1157.01 1063.13 z" fill="rgb(54,53,53)" transform="translate(0,0)"></path>
<path d="M 1607.24 1016.09 C 1610.3 1018.84 1678.07 1283.31 1684.02 1309.56 C 1660.52 1316.45 1654.76 1316.07 1631.49 1308.51 C 1607 1300.54 1594.39 1289.99 1574.59 1274.54 C 1573.66 1269.67 1572.33 1264.36 1571.21 1259.48 C 1579.13 1264.52 1587.47 1268.85 1596.15 1272.42 C 1605.43 1276.21 1645.05 1291.19 1649.03 1276.35 C 1646.17 1268.38 1631.85 1267.28 1624.84 1264.75 C 1605.12 1257.63 1584 1248.66 1569.31 1233.2 C 1562.72 1226.27 1561.62 1218.41 1559.66 1209.49 C 1571.28 1217.21 1585.54 1224.15 1599.52 1225.94 C 1605.41 1226.7 1612.19 1223.64 1611.42 1216.7 C 1601.49 1203.29 1561 1206.75 1550.17 1169.92 L 1549.77 1168.5 C 1558.9 1171.51 1577.53 1179.49 1584.97 1172.24 C 1587.31 1159.3 1560.51 1159.86 1551.26 1152.44 C 1543.83 1146.48 1539.07 1136.53 1531.68 1134.39 C 1524.32 1139.68 1526.43 1151.33 1522.47 1160.4 C 1517.21 1172.43 1498.47 1182.89 1495.56 1194.4 C 1498.34 1206.19 1511.16 1196.46 1516.33 1192.23 C 1524.9 1185.21 1529.68 1176.88 1534.82 1167.31 L 1541.25 1190.97 C 1535.24 1206.69 1526.07 1221.25 1514.89 1233.87 C 1509.81 1239.6 1487.72 1250.73 1497.01 1259.01 C 1517.9 1263.58 1538.82 1232.91 1548.12 1218.15 C 1548.99 1222.24 1551.46 1232.58 1550.72 1236.14 C 1545.49 1261.54 1520.63 1290.93 1501.36 1306.18 C 1471.19 1242.63 1443.46 1186.32 1411.03 1123.77 C 1458.64 1096.63 1508.66 1071.83 1556.37 1044.43 C 1573.32 1034.69 1590.28 1026.45 1607.24 1016.09 z" fill="rgb(255,255,255)" transform="translate(0,0)"></path>
<path d="M 904.478 1189.98 C 915.004 1192.53 936.05 1194.93 947.861 1197.07 C 979.101 1202.82 1010.13 1209.64 1040.91 1217.52 C 1056.56 1221.37 1077.44 1226.06 1092.17 1231.64 C 1086.47 1308.05 1081.69 1384.52 1077.82 1461.04 C 1074.05 1456.37 1069.4 1451.82 1065.19 1447.47 C 1006.25 1390.12 961.251 1370.51 879.115 1364.96 C 893.568 1348.71 900.144 1335.62 904.675 1314.12 C 906.507 1306.99 906.957 1299.46 910.542 1292.92 C 928.239 1260.65 916.538 1222.33 904.478 1189.98 z" fill="rgb(255,255,255)" transform="translate(0,0)"></path>
<path d="M 510.109 1289.12 C 547.005 1275.31 587.874 1252.31 626.32 1239.23 C 624.266 1278.89 626.546 1316 654.625 1349.6 C 672.011 1370.4 713.308 1386.22 739.775 1368.26 C 741.217 1367.28 742.17 1364.7 742.757 1363.01 C 742.327 1359.32 743.072 1360.84 740.572 1358.24 C 737.251 1357.42 735.82 1357.89 732.474 1358.41 L 730.473 1356.51 C 733.804 1354.8 735.692 1353.82 738.783 1351.75 C 743.702 1351.74 747.554 1356.11 752.938 1359.44 C 755.501 1367.57 758.006 1375.73 760.452 1383.9 C 733.56 1391.6 710.184 1419.02 733.569 1443.52 C 726.922 1451.12 705.952 1481.68 701.58 1485.19 C 700.797 1481.84 701.234 1481.01 699.168 1479.06 C 680.207 1481.17 659.855 1479.58 644.558 1466.93 C 632.871 1457.27 631.181 1448.77 627.705 1435.1 C 638.718 1438.75 674.115 1448.26 681.722 1436.13 C 683.01 1421.81 640.576 1425.6 631.572 1415.46 C 627.361 1410.72 615.983 1400.08 610.039 1400.32 C 606.44 1400.5 603.108 1402.28 600.968 1405.18 C 599.239 1407.54 595.773 1421.89 594.359 1426.18 C 591.098 1436.05 573.017 1457.82 573.046 1465.89 C 574.613 1469.17 574.404 1469.01 577.558 1470.79 C 589.371 1472 603.847 1442.98 608.761 1433.57 C 610.447 1442.25 612.377 1454.17 614.524 1462.49 C 610.277 1477.85 608.067 1486.95 600.599 1501.41 C 594.732 1512.77 577.283 1525.02 577.302 1534.69 C 578.037 1535.96 578.173 1536.96 579.516 1537.1 C 597.69 1539.05 616.915 1505.21 622.542 1494.86 C 624.318 1501.94 626.465 1511.7 628.697 1518.44 C 617.682 1555.48 611.836 1564.77 587.451 1593.65 C 560.863 1492.35 535.081 1390.83 510.109 1289.12 z" fill="rgb(255,255,255)" transform="translate(0,0)"></path>
<path d="M 702.628 1358.6 C 662.014 1347.26 646.229 1308.62 643.777 1269.71 C 641.254 1229.13 655.213 1189.24 682.493 1159.08 C 705.037 1133.79 736.557 1117.31 770.59 1115.39 C 798.342 1113.81 831.224 1125.66 851.573 1144.83 C 875.848 1167.7 893.049 1204.55 899.296 1237.15 C 901.217 1247.17 901.435 1259.22 901.781 1269.49 C 895.434 1255.96 888.859 1242.53 882.059 1229.22 C 864.418 1194.52 851.556 1164.2 812.296 1151.41 C 802.722 1130.77 788.539 1136.35 792.681 1160.92 C 797.478 1189.37 777.369 1225.49 763.294 1248.83 C 749.299 1272.04 734.811 1291.09 716.049 1310.16 C 704.916 1321.48 692.299 1329.17 681.445 1339.93 C 688.325 1347.58 694.343 1352.05 703.538 1356.46 L 702.628 1358.6 z" fill="rgb(255,255,255)" transform="translate(0,0)"></path>
<path d="M 1143.75 709.394 C 1161.54 706.57 1184.22 708.778 1199.77 718.28 C 1229.21 736.268 1253.61 762.589 1262.64 796.218 C 1276.08 846.229 1251.95 879.072 1228.27 919.798 C 1218.55 924.185 1211.02 930.159 1202.53 936.464 C 1201.4 929.281 1200.96 926.903 1198.6 920.032 C 1200.45 915.087 1203.42 910.081 1205.46 905.082 C 1213.86 884.49 1213.15 867.372 1194.83 852.929 C 1175.08 841.901 1162.79 850.702 1149.98 866.361 C 1144.59 849.663 1142.88 836.461 1142.22 818.877 C 1141.85 809.007 1147.6 788.321 1143.12 782.25 C 1135.12 778.828 1128.19 787.475 1119.98 787.783 C 1084.61 789.11 1036.08 771.361 1016.78 740.13 C 1013.6 734.995 1011.59 728.251 1009.91 722.61 C 1077.85 746.59 1085.56 716.226 1143.75 709.394 z" fill="rgb(255,255,255)" transform="translate(0,0)"></path>
<path d="M 1126.59 802.201 L 1128.46 801.828 C 1129.8 804.101 1125.77 823.324 1126.03 829.064 C 1126.91 849.251 1133.01 868.406 1135.09 888.477 C 1135.71 894.492 1136.83 901.339 1142.25 904.494 C 1157.11 902.125 1160.78 853.731 1186.12 863.89 C 1207.85 872.605 1190.94 914.745 1174.97 921.664 C 1169.71 923.941 1165.04 914.898 1160.84 911.839 C 1150.62 910.66 1150.76 921.478 1155.15 928.022 C 1158.05 932.388 1162.69 935.293 1167.88 935.994 C 1177.27 937.309 1184.15 932.372 1190.86 926.92 C 1190.86 932.591 1191.38 938.216 1191.83 943.869 C 1164.02 965.517 1144.25 987.319 1120.44 1013.43 C 1113.41 1001.25 1106.49 987.339 1095.63 978.541 C 1082.93 979.054 1071.82 981.818 1059.5 978.526 C 1048.86 973.111 1037.72 952.357 1040.14 941.401 C 1046.02 946.223 1047.4 957.299 1056.64 957.851 C 1075.02 958.95 1107.25 934.12 1089.57 915.114 C 1080.86 905.75 1068.04 920.029 1059.08 922.182 C 1051.72 924.288 1048.01 924.327 1040.16 924.433 C 1039.62 909.344 1040.79 909.89 1028.05 900.96 C 1031.9 893.729 1035.1 888.971 1038.44 881.253 C 1047.78 859.688 1043.2 848.001 1039.41 826.433 C 1038.3 820.099 1037.94 809.733 1037.75 803.09 C 1064.43 816.252 1068.8 820.295 1098.32 819.866 C 1104.45 837.674 1093.45 877.85 1107.9 883.06 C 1117.16 881.624 1118.17 872.059 1118.32 864.236 C 1118.72 844.025 1123.97 820.422 1107.81 805.433 C 1114.04 805.085 1120.46 803.492 1126.59 802.201 z" fill="rgb(255,255,255)" transform="translate(0,0)"></path>
<path d="M 1170.91 872.935 C 1196.17 878.066 1191.58 910.168 1171.27 910.719 C 1156.94 901.558 1170.93 899.836 1172.39 890.85 C 1167.47 888.699 1163.33 887.995 1161.95 882.545 C 1163.24 877.492 1166.65 875.809 1170.91 872.935 z" fill="rgb(54,53,53)" transform="translate(0,0)"></path>
<path d="M 1056.39 822.116 C 1068.96 822.438 1089.27 828.045 1087.94 844.263 C 1087.75 846.686 1085.44 847.861 1083.71 848.858 C 1079.41 848.471 1081.41 849.138 1077.67 846.366 C 1071.09 838.68 1068.87 837.637 1059.96 833.68 C 1054.64 838.511 1048.92 842.468 1044.79 833.742 C 1044.84 825.418 1049.53 824.359 1056.39 822.116 z" fill="rgb(54,53,53)" transform="translate(0,0)"></path>
<path d="M 1063.13 845.966 C 1080.52 847.285 1078.02 865.146 1065.91 871.736 C 1053.57 866.94 1048.08 851.916 1063.13 845.966 z" fill="rgb(54,53,53)" transform="translate(0,0)"></path>
<path d="M 811.372 1171.63 C 825.737 1181.97 834.357 1185.59 846.91 1198.6 C 837.629 1201.1 817.882 1205.68 817.437 1216.95 C 818.883 1220.19 818.772 1219.96 821.634 1222.1 C 822.571 1222.18 850.622 1212.87 855.78 1211.73 C 866.924 1228.48 874.521 1248.73 884.261 1265.96 C 899.585 1293.07 882.828 1348.71 853.653 1360.62 C 815.413 1366.94 787.574 1352.25 752.646 1345.78 L 750.827 1345.45 C 746.358 1333.29 742.633 1325.69 734.938 1314.97 C 769.526 1279.26 808.74 1222.42 811.372 1171.63 z" fill="rgb(255,255,255)" transform="translate(0,0)"></path>
<path d="M 858.199 1278.67 C 863.092 1279.31 867.727 1281.33 869.026 1286.39 C 877.089 1317.84 862.663 1351.88 825.818 1333.63 C 816.749 1328.37 796.32 1314 812.91 1305.61 C 831.1 1296.42 842.185 1292.5 858.199 1278.67 z" fill="rgb(54,53,53)" transform="translate(0,0)"></path>
<path d="M 857.043 1299 C 857.725 1306.34 855.798 1320.44 847.752 1323.03 C 842.416 1324.75 838.433 1322.48 833.679 1320.5 C 831.47 1319.37 829.59 1318.22 827.466 1316.96 C 828.061 1315.15 830.443 1314.7 832.936 1313.76 C 842.469 1310.17 848.946 1305.09 857.043 1299 z" fill="rgb(255,255,255)" transform="translate(0,0)"></path>
<path d="M 837.821 1230.88 C 855.627 1230.1 861.074 1246.4 848.777 1257.95 C 831.988 1259.39 825.856 1242.25 837.821 1230.88 z" fill="rgb(54,53,53)" transform="translate(0,0)"></path>
<path d="M 788.893 1269.38 C 800.042 1270.83 800.979 1277.59 795.763 1285.94 C 784.128 1284.31 783.869 1278.05 788.893 1269.38 z" fill="rgb(54,53,53)" transform="translate(0,0)"></path>
<path d="M 1020.52 1434.9 C 1024.33 1436.18 1030.98 1442.6 1034.4 1445.6 C 996.412 1461.93 946.824 1479.5 907.425 1494.37 C 838.517 1520.84 769.472 1546.94 700.291 1572.69 L 689.146 1576.47 C 690.306 1570.65 692.222 1564.31 693.809 1558.53 L 1020.52 1434.9 z" fill="rgb(255,255,255)" transform="translate(0,0)"></path>
<path d="M 997.625 1485.18 C 999.345 1486.81 1004.29 1503.73 1005.45 1507.35 C 935.569 1529.93 865.481 1551.88 795.199 1573.19 C 760.682 1583.89 727.138 1593.76 693.048 1605.97 C 689.35 1607.04 691.027 1607.19 687.832 1606.26 C 685.129 1599.44 707.765 1593.82 713.322 1591.67 L 784.63 1564.68 L 874.136 1530.88 C 916.208 1514.74 954.717 1499.38 997.625 1485.18 z" fill="rgb(255,255,255)" transform="translate(0,0)"></path>
<path d="M 769.59 1366.44 C 796.252 1379.07 827.766 1381.41 856.655 1377.39 C 860.878 1397.93 854.942 1415.41 846.232 1433.92 L 841.102 1443.05 C 829.703 1439.9 817.628 1436.62 806.843 1432.08 C 794.672 1426.97 784.779 1419.5 776.554 1409.23 C 775.927 1408.59 771.813 1403.25 771.888 1402.97 C 776.73 1384.85 776.618 1384.34 769.59 1366.44 z" fill="rgb(255,255,255)" transform="translate(0,0)"></path>
<path d="M 908.277 1385.89 C 952.514 1393.01 964.826 1399.17 1003.58 1419.83 C 989.899 1425.64 971.786 1431.7 957.546 1436.91 C 935.869 1445.01 911.153 1454.89 889.397 1461.89 C 901.274 1434.93 907.033 1415.64 908.277 1385.89 z" fill="rgb(255,255,255)" transform="translate(0,0)"></path>
<path d="M 873.385 1382.88 C 879.691 1383.24 886.844 1384.03 893.209 1384.58 C 892.468 1405.9 875.039 1479.64 845.8 1476.97 C 813.438 1474.02 773.093 1456.85 749.75 1433.42 C 735.244 1417.07 742.762 1413.62 757.5 1402.08 C 763.312 1434.99 808.953 1453.71 838.116 1457.39 C 864.591 1460.73 873.242 1401.46 873.385 1382.88 z" fill="rgb(255,255,255)" transform="translate(0,0)"></path>
<path d="M 1244.68 933.015 L 1247.01 932.854 C 1250.35 935.81 1254.8 956.007 1257.06 962.733 C 1206.81 984.679 1171.15 1007.77 1133.1 1047.37 L 1126.72 1053.99 C 1127.04 1046.59 1128.36 1036.85 1129.17 1029.32 C 1134.15 1022.61 1142.85 1013.11 1149.03 1007.22 C 1177.58 980.008 1207.45 947.451 1244.68 933.015 z" fill="rgb(255,255,255)" transform="translate(0,0)"></path>
<path d="M 746.265 1455.5 C 768.786 1472.59 789.034 1482.55 815.816 1491.01 C 796.781 1499.49 769.956 1508.77 750.181 1515.93 C 733.498 1521.94 716.903 1528.2 700.402 1534.7 C 706.068 1519.54 712.735 1503.86 721.797 1490.37 C 729.429 1479.01 738.069 1468.86 745.323 1457.05 L 746.265 1455.5 z" fill="rgb(255,255,255)" transform="translate(0,0)"></path>
<path d="M 637.205 1547.62 C 639.046 1550.99 646.114 1570.97 647.916 1575.81 C 639.651 1599.9 632.222 1610.15 616.882 1630.01 C 611.684 1630.83 600.921 1634.51 597.537 1633.72 C 595.212 1627.16 588.95 1604.34 589.177 1597.82 L 590.865 1597.45 C 593.195 1599.28 595.406 1601.72 598.31 1600.03 C 616.434 1589.5 629.548 1566.35 637.205 1547.62 z" fill="rgb(255,255,255)" transform="translate(0,0)"></path>
<path d="M 642.356 1488.15 C 663.318 1496.51 675.867 1499.07 697.818 1494.25 C 693.183 1504.6 689.599 1513.13 685.592 1523.75 L 681.681 1535.73 C 669.445 1527.18 662.038 1527.56 648.733 1515.32 L 648.357 1514.11 C 645.506 1505.25 644.143 1497.25 642.356 1488.15 z" fill="rgb(255,255,255)" transform="translate(0,0)"></path>
<path d="M 1052.77 1463.04 C 1060.71 1466.4 1069.58 1479.29 1073.3 1487.2 C 1060.5 1491.68 1047.56 1495.73 1034.49 1499.34 C 1031.26 1500.27 1030.79 1500.38 1027.45 1500.69 C 1020.83 1497.86 1016.89 1484.02 1014.01 1476.96 C 1026.95 1472.8 1039.99 1467.77 1052.77 1463.04 z" fill="rgb(255,255,255)" transform="translate(0,0)"></path>
<path d="M 1559.43 1264.69 C 1560.02 1267.32 1561.31 1278.83 1560.75 1280.9 C 1555.52 1300.23 1535.02 1329.41 1519.46 1340.4 C 1516.65 1339.02 1516.79 1337.98 1514.84 1334.78 L 1506.33 1317.61 C 1532.03 1304.75 1544.28 1287.86 1559.43 1264.69 z" fill="rgb(255,255,255)" transform="translate(0,0)"></path>
<path d="M 1567.6 1310.7 C 1570.1 1313.26 1574.69 1335.28 1575.83 1340.2 C 1563.7 1343.92 1550.52 1347.38 1538.25 1350.84 C 1535.34 1351.64 1535.11 1352.12 1532.41 1351.5 C 1549.52 1339.14 1556.92 1328.79 1567.6 1310.7 z" fill="rgb(255,255,255)" transform="translate(0,0)"></path>
<path d="M 1581.35 1304.5 C 1586.99 1307.32 1595.86 1314.12 1602.54 1317.56 C 1610.18 1321.49 1615.63 1323.1 1623.37 1326.44 L 1618.79 1328.15 C 1609.62 1330.17 1599.67 1333.3 1590.59 1335.96 C 1587.7 1328.3 1583.83 1313.12 1581.35 1304.5 z" fill="rgb(255,255,255)" transform="translate(0,0)"></path>
<path d="M 993.192 729.648 C 995.435 732.093 997.588 739.308 999.186 742.99 C 1006.51 759.867 1015.95 768.78 1030.39 779.52 L 1030.14 780.668 C 1007.57 770.458 980.429 761.399 993.192 729.648 z" fill="rgb(255,255,255)" transform="translate(0,0)"></path>
<path d="M 723.348 1323.71 C 725.748 1325.02 730.838 1330.62 731.238 1333.32 C 732.749 1343.53 720.515 1344.21 714.64 1344.72 C 710.097 1344 708.571 1344.16 705.607 1341.38 C 706.317 1336.4 718.035 1328.65 723.348 1323.71 z" fill="rgb(255,255,255)" transform="translate(0,0)"></path>
<path d="M 661.184 1592.4 C 668.183 1599.27 669.625 1603.44 673.598 1612.24 C 668.06 1614.22 661.787 1616.08 656.124 1617.87 L 645.825 1620.78 C 652.143 1610.39 656.087 1603.44 661.184 1592.4 z" fill="rgb(255,255,255)" transform="translate(0,0)"></path>
<path d="M 657.563 1541.61 C 666.491 1544.82 668.843 1545.46 678.096 1547.1 C 676.263 1554.31 674.892 1561.76 673.454 1569.07 C 673.479 1570.17 673.53 1569.45 672.912 1571.14 C 668.172 1568.69 659.723 1547.25 657.563 1541.61 z" fill="rgb(255,255,255)" transform="translate(0,0)"></path>
<path d="M 1076.17 931.002 C 1077.07 931.766 1076.61 931.215 1077.1 932.947 C 1074.04 938.392 1063.46 941.712 1057.62 942.536 C 1056.31 940.699 1056.67 941.72 1056.52 939.474 C 1058.37 938.31 1071.94 933.057 1076.17 931.002 z" fill="rgb(255,255,255)" transform="translate(0,0)"></path>
<path d="M 1109.4 1040.69 C 1111.14 1050.52 1113.31 1052.93 1103.96 1057.98 L 1103.13 1056.91 C 1104.13 1051.86 1107.27 1045.55 1109.4 1040.69 z" fill="rgb(255,255,255)" transform="translate(0,0)"></path>
<path d="M 703.538 1356.46 C 715.087 1358.43 718.952 1358.55 730.473 1356.51 L 732.474 1358.41 C 720.8 1360.9 714.213 1360.32 702.628 1358.6 L 703.538 1356.46 z" fill="rgb(196,197,197)" transform="translate(0,0)"></path>
<path d="M 1815.29 1421.4 C 1816.48 1421.86 1834.78 1434.2 1836.99 1435.66 C 1852.01 1445.47 1866.93 1455.41 1881.75 1465.5 C 1893.76 1473.75 1906.75 1483.29 1919.31 1490.38 L 558.301 1889.31 C 531.092 1896.48 503.346 1906.66 475.415 1913.88 C 477.935 1908.44 480.94 1902.87 483.725 1897.54 C 500.297 1865.85 516.446 1834.04 533.761 1802.75 C 549.579 1799.63 572.662 1792.1 588.642 1787.37 L 681.544 1759.63 L 952.166 1678.86 L 1380.36 1551.1 C 1525.56 1508.6 1670.54 1465.37 1815.29 1421.4 z" fill="rgb(255,255,255)" transform="translate(0,0)"></path>
<path d="M 1567.67 137.058 L 1570.29 137.063 C 1570.45 140.676 1519.79 233.076 1513.07 245.525 C 1469.87 256.718 1419.77 272.858 1376.26 285.735 L 1141.01 355.137 L 666.362 495.766 L 387.275 580.487 C 337.044 596.313 286.668 611.678 236.155 626.581 L 175.582 588.168 L 130 558.91 C 150.982 553.705 173.999 546.1 194.875 539.87 L 280.354 515.102 C 397.514 481.804 514.328 447.3 630.778 411.596 C 942.542 318.271 1254.84 226.757 1567.67 137.058 z" fill="rgb(255,255,255)" transform="translate(0,0)"></path>
<path d="M 121.733 576.387 C 126.839 578.382 142.7 589.471 148.74 593.174 C 174.426 608.919 199.73 625.199 224.878 641.791 C 247.283 734.808 270.767 827.561 295.326 920.032 L 419.744 1404.53 L 492.014 1688.34 L 509.176 1754.53 C 511.159 1762.19 516.061 1782.69 518.743 1788.78 C 513.195 1803.79 490.507 1845.43 482.006 1861.82 C 474.312 1875.21 467.603 1886.97 461.785 1901.33 C 457.303 1888.77 453.108 1872.28 449.663 1859.15 C 441.71 1828.84 434.315 1798.35 426.535 1767.97 L 354.978 1485.79 L 121.733 576.387 z" fill="rgb(255,255,255)" transform="translate(0,0)"></path>
<path d="M 1586.41 146.684 C 1589.81 150.752 1633.47 322.256 1638.05 340.302 L 1830.55 1096.15 C 1852.73 1179.78 1874.43 1263.54 1895.63 1347.43 C 1905.24 1385.67 1919.28 1435.14 1925.12 1472.98 C 1913.63 1464.36 1903.7 1457.51 1891.7 1449.57 C 1871.25 1434.71 1847.89 1420.52 1826.68 1405.46 L 1613.9 576.738 L 1576.67 435.118 C 1560.84 377.139 1543.35 315.417 1529.63 256.907 C 1534.91 243.722 1544.91 225.71 1551.61 213.07 C 1563.38 191.028 1574.98 168.899 1586.41 146.684 z" fill="rgb(255,255,255)" transform="translate(0,0)"></path>
<path d="M 318.822 163.297 C 329.098 167.563 326.121 177.997 327.808 188.027 C 336.58 240.196 375.871 280.856 427.585 291.681 C 439.453 294.165 452.487 293.162 464.273 295.893 C 466.409 297.493 466.262 297.997 467.306 300.566 C 466.427 305.546 462.264 306.297 457.706 306.682 C 382.155 313.072 327.317 365.211 327.746 443.094 C 325.325 445.008 325.14 444.772 322.035 445.415 C 319.694 444.73 317.518 444.056 317.219 441.214 C 314.447 414.813 312.438 392.992 297.929 369.446 C 278.347 337.666 245.36 316.174 208.77 308.938 C 200.591 307.321 192.378 308.208 185.2 306.495 C 179.831 301.533 182.732 294.888 187.055 294.91 C 246.796 295.212 301.135 255.769 311.278 195.408 C 312.614 187.462 312.388 169.102 318.822 163.297 z" fill="rgb(54,53,53)" transform="translate(0,0)"></path>
<path d="M 320.445 205.771 C 322.568 208.57 327.447 223.708 329.727 228.423 C 347.999 266.217 383.92 293.024 425.045 301.4 C 414.088 304.133 403.498 308.164 393.496 313.406 C 356.585 332.603 335.563 359.731 323.107 398.683 L 322.567 399.911 C 320.944 399.163 317.484 385.492 315.851 381.39 C 313.178 374.764 309.895 368.4 306.043 362.382 C 287.138 332.746 256.497 309.704 221.989 301.898 C 274.855 286.529 304.171 258.078 320.445 205.771 z" fill="rgb(255,255,255)" transform="translate(0,0)"></path>
<path d="M 1722.3 1616.81 C 1725.47 1616.94 1731.39 1617.67 1731.62 1621.09 C 1733.74 1653.23 1738.93 1676.24 1760.16 1702.42 C 1783.62 1731.37 1819.86 1745.98 1856.92 1746.93 C 1861.35 1747.04 1865.71 1749.1 1865.09 1754.29 C 1860.66 1759.8 1852.87 1757.9 1845.74 1758.6 C 1838.73 1759.31 1831.8 1760.61 1825.02 1762.49 C 1813.33 1765.76 1802.16 1770.62 1791.8 1776.95 C 1761.51 1795.63 1740.54 1826.26 1734.07 1861.25 C 1732.32 1870.93 1733.02 1882.13 1730.73 1891.32 C 1727.05 1892.24 1725.93 1892.61 1722.84 1890.69 C 1718.12 1882.89 1719.59 1867.41 1718.41 1857.96 C 1717.44 1850.24 1714.77 1843.7 1711.99 1836.5 C 1697.96 1799.41 1666.87 1771.39 1628.54 1761.26 C 1623.88 1759.99 1619.65 1759.12 1614.87 1758.42 C 1606.96 1757.26 1596.31 1760.6 1590.12 1755.3 C 1588.92 1752.05 1588.82 1752.28 1589.74 1748.97 C 1594.71 1743.55 1605.06 1745.58 1613.25 1744.92 C 1665.06 1740.24 1707.59 1701.98 1717.7 1650.95 C 1719.54 1641.74 1717.74 1622.27 1722.3 1616.81 z" fill="rgb(54,53,53)" transform="translate(0,0)"></path>
<path d="M 1725.98 1661.54 C 1727.97 1664.16 1735.1 1682.81 1737.88 1687.96 C 1755.96 1721.45 1784.75 1741.76 1820.31 1752.95 C 1809.04 1756.88 1799.18 1760.77 1788.74 1766.69 C 1758.48 1783.93 1736.35 1812.54 1727.27 1846.16 C 1725.23 1844.71 1715.18 1817.54 1711.91 1811.93 C 1694.96 1782.64 1666.97 1761.38 1634.21 1752.89 C 1681.32 1739.12 1711.16 1707.83 1725.98 1661.54 z" fill="rgb(255,255,255)" transform="translate(0,0)"></path>
<metadata><recraft-signature>{"signed_by": "recraft", "signature_b64": "dNkQ4o4n5rvB3xaVH82BnK5w+1vxMzbdThVjxMprjFl2UL8PhWdAGnW1XZt9p0AUjiDUv+S5rP5a5bU6blcjBw==", "signing_algo": "Ed25519", "generation_timestamp": 1765311471, "identifier": "d6a3ae93-214b-402b-bb60-7506ef916d07"}</recraft-signature></metadata></svg>