<svg xmlns="http://www.w3.org/2000/svg" height="1024" preserveAspectRatio="none" style="display: block;" version="1.1" viewBox="0 0 2048 2048" width="1024">
<path d="M 1820.49 90.1738 C 1845.72 87.7558 1871.8 99.6833 1872.02 127.329 C 1872.31 165.435 1842.95 216.321 1824.29 248.988 C 1763.09 356.132 1687.09 454.257 1609.41 549.722 C 1544.31 629.45 1477.63 707.865 1409.39 784.921 C 1367.18 831.287 1324.67 877.378 1281.86 923.189 C 1257.45 949.58 1230.94 974.713 1206.67 1001.51 C 1190.85 1018.97 1172.75 1034.55 1157.01 1052.7 C 1157.16 1068.51 1154.32 1079.69 1144.21 1092.56 C 1136.19 1102.76 1115.9 1108.71 1105.73 1099.24 C 1103.71 1095.25 1104.72 1084.45 1104.87 1079.37 C 1080.71 1102.21 1051.76 1134.47 1027.9 1158.92 C 986.731 1200.32 945.221 1241.38 903.377 1282.1 C 789.587 1392.51 668.336 1494.95 540.483 1588.71 C 530.284 1596.25 486.233 1633.1 476.649 1633.66 C 469.019 1634.1 462.114 1624.87 457.463 1619.95 C 449.36 1676.82 453.913 1721.39 419.168 1773.09 C 375.144 1838.6 302.95 1830.12 237.069 1851.34 C 200.842 1863 158.102 1886.47 124.304 1904.97 C 114.788 1909.79 97.6025 1920.17 88.819 1923.33 L 86.713 1921.55 C 86.2023 1916.38 116.818 1861.15 121.01 1852.31 C 135.723 1821.26 150.237 1794.04 154.922 1759.16 C 159.224 1727.13 160.022 1694.34 170.921 1663.7 C 196.203 1593.65 255.006 1574.92 322.886 1565.88 C 349.596 1562.32 368.001 1562.1 392.481 1550.44 C 384.174 1544.77 378.619 1541.25 371.637 1533.95 C 375.765 1521.65 387.62 1511.78 395 1500.81 C 401.057 1491.75 407.564 1482.71 413.326 1473.48 C 466.358 1388.51 527.952 1310.47 591.474 1233.12 C 649.751 1162.06 709.868 1092.54 771.764 1024.62 C 815.5 976.838 861.938 930.265 906.034 882.555 C 879.493 873.857 887.617 846.912 905.107 832.986 C 915.69 824.56 929.184 824.203 942.024 826.282 C 956.713 805.567 978.047 786.38 995.323 767.774 C 1012.18 749.62 1031.15 733.181 1048.64 715.628 C 1135.46 627.645 1225.1 542.498 1317.43 460.321 C 1409.25 377.415 1709.62 115.137 1820.49 90.1738 z" fill="rgb(53,50,51)" transform="translate(0,0)"></path>
<path d="M 1824.87 106.247 C 1850.47 103.724 1860.34 124.942 1853.47 147.156 C 1844.95 174.693 1831.74 199.879 1817.98 225.075 C 1757.04 336.638 1679.33 437.805 1599.54 536.204 C 1530.3 621.106 1459.01 704.312 1385.72 785.748 C 1327.03 849.984 1267.91 913.834 1208.38 977.294 C 1182.49 936.64 1165.58 916.145 1133.82 881.403 C 1096.11 842.194 1053.35 806.271 1004.43 782.012 L 1081.4 706.804 C 1112.23 676.377 1142.25 645.928 1173.58 615.79 C 1273.85 519.332 1377.52 426.482 1484.41 337.417 C 1551.71 281.795 1748.15 121.996 1824.87 106.247 z" fill="rgb(255,255,255)" transform="translate(0,0)"></path>
<path d="M 1656.77 268.181 C 1670.51 267.095 1674.82 267.545 1687.5 274.895 C 1704.07 284.499 1710.52 314.09 1698.27 328.933 C 1681.99 348.666 1661.8 368.46 1643.61 387.183 L 1537 496.706 L 1303.14 738.494 C 1280.02 761.943 1257.89 786.993 1234.31 810.081 C 1226.87 817.361 1220.76 822.098 1210.67 824.959 C 1188.61 827.167 1169.33 815.904 1163.53 793.666 C 1157.68 771.206 1171.65 756.515 1186.23 742.182 C 1193.03 735.504 1199.92 728.163 1206.55 721.14 C 1244.97 680.894 1283.63 640.867 1322.5 601.06 C 1424.58 495.461 1525.27 388.469 1629.21 284.666 C 1637.08 276.811 1645.83 270.574 1656.77 268.181 z" fill="rgb(53,50,51)" transform="translate(0,0)"></path>
<path d="M 1660.09 284.147 C 1670.39 284.953 1679.88 287.21 1685.34 297.054 C 1688.28 302.305 1688.8 308.575 1686.75 314.236 C 1682.91 325.165 1652.97 353.181 1642.97 363.424 C 1624.83 382.369 1606.57 401.193 1588.19 419.893 L 1463.82 548.226 L 1310.08 708.14 C 1295.24 723.538 1221.34 803.221 1207.81 809.286 C 1195.67 809.605 1184.18 805.375 1179.75 793.041 C 1173.27 775.02 1192.71 760.157 1203.59 748.554 C 1213.35 738.162 1223.7 728.061 1233.57 717.698 C 1265.41 683.916 1297.51 650.373 1329.85 617.074 L 1552.47 387.069 C 1581.75 357.28 1610.62 326.749 1640.4 297.547 C 1646.71 291.362 1651.72 287.326 1660.09 284.147 z" fill="rgb(255,255,255)" transform="translate(0,0)"></path>
<path d="M 924.967 888.215 C 976.703 906.59 1035.95 967.084 1067.96 1011.44 C 1078.28 1025.74 1089.61 1045.13 1098.01 1060.75 C 970.222 1198.72 834.297 1328.92 690.96 1450.66 C 683.944 1456.66 642.436 1492.05 638.35 1492.61 C 636.608 1490.52 636.405 1490.16 635.083 1487.77 L 634.106 1489.02 C 629.784 1482.95 625.374 1476.95 620.878 1471.01 L 622.141 1468.25 C 595.461 1428.77 554.54 1383.57 514.781 1356.87 C 544.586 1317.08 575.451 1278.09 607.341 1239.95 C 694.061 1134.95 784.644 1033.2 878.904 934.921 C 894.176 918.795 910.161 903.789 924.967 888.215 z" fill="rgb(255,255,255)" transform="translate(0,0)"></path>
<path d="M 620.878 1471.01 L 622.141 1468.25 C 627.112 1475.18 630.717 1480.46 635.083 1487.77 L 634.106 1489.02 C 629.784 1482.95 625.374 1476.95 620.878 1471.01 z" fill="rgb(27,27,26)" transform="translate(0,0)"></path>
<path d="M 428.785 1581.67 C 433.352 1585.01 442.091 1596.58 445.509 1601.45 C 440.727 1617.14 439.06 1635.22 437.66 1651.61 C 433.787 1696.96 426.747 1739.63 396.006 1775.14 C 354.538 1823.62 287.973 1817.54 232.234 1835.33 C 197.693 1846.35 164.481 1865.34 132.362 1882.39 C 131.944 1882.54 130.056 1882.77 129.542 1882.85 C 130.209 1880.4 143.098 1868.78 145.672 1866.28 C 198.507 1814.99 248.821 1760.94 300.115 1708.08 C 311.459 1715.69 324.71 1718.36 337.382 1712.11 C 345.232 1708.2 351.217 1701.34 354.032 1693.04 C 357.706 1682.09 354.972 1672.53 350.26 1662.61 C 376.785 1635.98 402.962 1608.99 428.785 1581.67 z" fill="rgb(255,255,255)" transform="translate(0,0)"></path>
<path d="M 402.985 1557.76 C 407.436 1558.56 414.319 1566.57 417.819 1570.13 C 409.998 1579.28 398.375 1589.83 389.531 1598.63 L 336.639 1651.42 C 325.322 1646.28 314.889 1645.37 303.639 1651.74 C 295.864 1656.14 290.218 1663.51 288.01 1672.17 C 285.104 1683.47 288.033 1692.1 293.678 1701.62 C 281.381 1716.79 249.81 1745.72 234.666 1760.43 C 206.486 1788.29 178.566 1816.42 150.91 1844.8 C 145.883 1849.99 140.185 1855.07 134.846 1859.99 C 145.431 1837.35 162.259 1805.59 167.726 1781.52 C 174.415 1752.07 173.102 1721 179.879 1690.91 C 194.89 1624.23 237.457 1596.8 301.922 1585.27 C 339.158 1578.61 370.551 1578.47 402.985 1557.76 z" fill="rgb(255,255,255)" transform="translate(0,0)"></path>
<path d="M 472.26 1414.56 C 506.379 1437.07 549.509 1480.11 574.455 1512.33 L 588.131 1531.88 C 586.267 1535.37 508.046 1593 499.565 1599.23 C 481.463 1559.25 449.143 1529.18 412.379 1506.2 C 429.912 1475.85 452.276 1443.28 472.26 1414.56 z" fill="rgb(255,255,255)" transform="translate(0,0)"></path>
<path d="M 920.188 837.162 C 953.558 834.253 970.395 848.03 996.915 865.857 C 1052.24 903.049 1101.36 952.074 1133.97 1010.52 C 1148.09 1035.82 1158.2 1075.38 1125.62 1091.46 C 1121.11 1092.83 1116.97 1093.07 1112.29 1093.59 C 1115.28 1071.03 1108.52 1051.08 1096.41 1031.99 C 1055.59 967.794 1001.89 908.166 931.119 876.998 C 912.686 868.879 888.209 875.647 907.472 848.082 C 911.826 841.852 913.755 840.848 920.188 837.162 z" fill="rgb(255,255,255)" transform="translate(0,0)"></path>
<path d="M 507.479 1365.75 C 541.683 1387.86 594.917 1439.42 620.878 1471.01 C 625.374 1476.95 629.784 1482.95 634.106 1489.02 C 636.031 1492 636.857 1492.08 636.651 1494.89 C 630.855 1500.48 594.805 1530.47 589.353 1530.74 L 588.131 1531.88 L 574.455 1512.33 L 575.752 1509.79 C 561.027 1483.03 504.849 1421.83 478.568 1404.68 C 487.166 1391.85 498.229 1378.66 507.479 1365.75 z" fill="rgb(255,255,255)" transform="translate(0,0)"></path>
<path d="M 575.752 1509.79 C 580.777 1517.05 584.919 1523.05 589.353 1530.74 L 588.131 1531.88 L 574.455 1512.33 L 575.752 1509.79 z" fill="rgb(27,27,26)" transform="translate(0,0)"></path>
<path d="M 994.722 792.666 C 1004.99 795.839 1015.52 803.635 1024.71 809.37 C 1082.7 846.356 1132.92 894.307 1172.54 950.533 C 1182.14 963.908 1190.67 975.776 1198.36 990.386 C 1190.34 997.981 1184.08 1004.24 1176.54 1012.34 C 1173.48 1010.69 1169.21 1002.35 1167.31 999.061 C 1128.55 931.73 1071.18 876.027 1006.68 833.378 C 996.449 826.612 983.115 820.461 972.091 814.973 L 994.722 792.666 z" fill="rgb(255,255,255)" transform="translate(0,0)"></path>
<path d="M 957.96 823.685 C 959.711 823.917 962.95 824.715 964.574 825.419 C 1049.89 862.427 1128.63 946.076 1167.89 1027.45 C 1165.53 1030.49 1162.37 1033.72 1159.72 1036.58 C 1157.64 1037.98 1158.68 1037.88 1156.61 1037.48 C 1153.19 1031.79 1150.2 1020.42 1146.72 1013.34 C 1115.43 949.746 1018.7 853.609 951.253 831.31 C 953.359 828.682 955.697 826.19 957.96 823.685 z" fill="rgb(255,255,255)" transform="translate(0,0)"></path>
<path d="M 396.904 1515.68 C 400.621 1516.47 406.004 1519.41 409.34 1521.28 C 439.718 1538.29 481.024 1580.62 490.844 1614.43 C 486.621 1617.85 482.181 1620.35 477.539 1623.17 C 469.705 1625.8 467.269 1615.9 463.239 1609.23 C 442.562 1575 416.894 1551.53 383.742 1529.97 C 388.333 1524.06 391.524 1520.95 396.904 1515.68 z" fill="rgb(255,255,255)" transform="translate(0,0)"></path>
<path d="M 316.432 1660.55 C 320.933 1659.58 325.635 1660.22 329.712 1662.36 C 336.88 1666.13 340.993 1673.92 340.064 1681.96 C 339.135 1690.01 333.354 1696.65 325.516 1698.69 C 318.645 1700.47 311.346 1698.4 306.434 1693.28 C 301.522 1688.15 299.764 1680.77 301.838 1673.99 C 303.912 1667.2 309.494 1662.06 316.432 1660.55 z" fill="rgb(255,255,255)" transform="translate(0,0)"></path>
<path d="M 1807.35 841.223 C 1826.89 839.864 1846.95 849.093 1864.3 856.864 C 1907.57 876.241 1949.45 920.578 1965.05 965.902 C 1953.81 992.56 1942.88 1017.37 1927.24 1042.17 C 1846.29 1170.47 1737.97 1291.33 1612.6 1377.35 C 1599.06 1386.64 1580 1402.75 1564.95 1407.38 C 1559.97 1408.91 1555.15 1405.67 1551.08 1403.13 C 1511.63 1427.77 1467.99 1459.93 1428.67 1482.38 L 1420.31 1465.3 C 1378.16 1376.24 1336.93 1318.75 1267.86 1250.44 C 1273.94 1244.59 1287.14 1235.58 1294.4 1230.29 C 1312.28 1217.2 1330.26 1204.23 1348.32 1191.39 C 1359.83 1183.24 1379.13 1170.34 1388.78 1161.15 C 1379.74 1151.3 1363.27 1145.25 1360.65 1130.74 C 1357.71 1114.41 1365.57 1106.55 1377.86 1098.35 C 1411.72 1075.75 1446.31 1054.49 1480.63 1032.69 C 1542.99 992.906 1605.93 954.019 1669.41 916.046 C 1703.88 895.013 1738.96 873.434 1773.92 853.116 C 1783.48 847.561 1796.43 843.179 1807.35 841.223 z" fill="rgb(53,50,51)" transform="translate(0,0)"></path>
<path d="M 1864.06 934.268 C 1871.28 940.447 1907.53 1010.88 1916.4 1024.24 C 1872.43 1103.51 1801.03 1187.22 1737.01 1251.22 C 1726.38 1261.84 1707.36 1280.3 1695.77 1288.48 C 1687.77 1261.19 1678.41 1242.5 1665.35 1217.58 C 1635.48 1162.98 1590.04 1108.24 1539.16 1072.23 C 1555.94 1064.5 1572.39 1056.3 1589.02 1048.28 C 1667.56 1010.41 1748.02 976.336 1830.15 947.023 C 1841.33 943.033 1853.25 939.011 1864.06 934.268 z" fill="rgb(255,255,255)" transform="translate(0,0)"></path>
<path d="M 1401.98 1173.74 C 1409.76 1175.7 1445.58 1216.15 1452.99 1224.36 C 1497.03 1273.17 1523.17 1324.4 1547.97 1384.63 C 1513.24 1406.1 1478.86 1428.14 1444.85 1450.73 C 1442.6 1452.04 1442.74 1452.12 1440.19 1452.34 C 1435.36 1448.37 1430.56 1433.39 1427.45 1426.73 C 1414.97 1399.99 1400.15 1375.66 1384.86 1350.52 C 1361.37 1311.89 1333.48 1280.34 1301.3 1248.9 C 1323.07 1229.92 1347.9 1213.47 1371.22 1196.47 C 1381.54 1188.95 1392.42 1182.21 1401.98 1173.74 z" fill="rgb(255,255,255)" transform="translate(0,0)"></path>
<path d="M 1805.23 859.2 C 1835.42 855.733 1882.77 884.462 1903.87 904.57 C 1893.77 908.444 1879.56 912.074 1868.17 916.193 C 1868.01 915.948 1867.86 915.704 1867.71 915.46 L 1866.91 914.258 C 1857.39 899.657 1837.18 890.1 1820.6 885.973 C 1793.21 879.153 1773.35 893.31 1750.23 905.874 C 1726.12 918.798 1702.32 932.278 1678.83 946.304 C 1601.1 991.726 1524.48 1039.02 1449.04 1088.15 C 1436.87 1096 1424.07 1102.96 1412.13 1111.25 C 1397.79 1121.21 1392.57 1126.16 1389.34 1143.32 C 1383.61 1139.73 1376.53 1135.42 1374.52 1128.49 C 1373.75 1125.81 1374 1122.11 1375.72 1119.81 C 1385.72 1106.41 1744.55 887.075 1779.85 868.155 C 1787.91 863.84 1796.42 861.419 1805.23 859.2 z" fill="rgb(255,255,255)" transform="translate(0,0)"></path>
<path d="M 1506.14 1072.68 C 1510.04 1073.52 1517.11 1077.67 1520.53 1079.86 C 1591.22 1125.16 1661.56 1220.68 1680.87 1301.79 C 1676.44 1305.49 1666.23 1314.8 1661.95 1316.72 L 1660.87 1315.59 C 1635.2 1241.1 1590.5 1174.62 1531.22 1122.72 C 1516.34 1109.92 1498.6 1096.4 1481.14 1087.63 C 1489.4 1082.26 1497.62 1077.58 1506.14 1072.68 z" fill="rgb(255,255,255)" transform="translate(0,0)"></path>
<path d="M 1474.35 1092.17 C 1560.49 1151.87 1617.74 1227.18 1651.93 1326.1 C 1644.11 1332.62 1638.01 1337.15 1629.78 1343.01 C 1629.59 1342.84 1609.43 1292.16 1606.63 1286.22 C 1578.57 1226.91 1509.73 1138.71 1452.22 1107.19 C 1459.58 1102.38 1467.06 1097.14 1474.35 1092.17 z" fill="rgb(255,255,255)" transform="translate(0,0)"></path>
<path d="M 1442.12 1112.07 C 1462.83 1124.25 1478.12 1138.65 1495.22 1155.16 C 1537.69 1195.83 1572.5 1243.79 1598.01 1296.77 C 1606.59 1315.06 1612.53 1331.5 1619.78 1350.24 C 1612.17 1356.29 1606.35 1360.69 1598.28 1366.08 C 1597.95 1365.75 1584.01 1326.99 1581.09 1320.62 C 1551.45 1255.93 1507.7 1196.24 1453.71 1149.78 C 1444.2 1141.6 1431.71 1131.18 1420.4 1126.67 L 1442.12 1112.07 z" fill="rgb(255,255,255)" transform="translate(0,0)"></path>
<path d="M 1798.18 902.229 C 1819.59 899.765 1835.58 907.411 1851.17 921.462 C 1839.54 925.65 1827.68 929.073 1816.05 933.242 C 1730.11 964.055 1648.48 1001.87 1566.1 1040.94 C 1553.77 1046.85 1538.51 1054.54 1525.81 1058.77 C 1535.06 1051.61 1547.87 1044.33 1558.03 1038.17 L 1609.65 1006.86 C 1651.17 981.655 1692.8 955.62 1735.69 932.865 C 1752.05 924.189 1780.75 905.366 1798.18 902.229 z" fill="rgb(255,255,255)" transform="translate(0,0)"></path>
<path d="M 1412.75 1130.73 C 1488.94 1184.31 1560.29 1282.43 1587.96 1371.42 C 1585.28 1373.75 1582.1 1376.04 1579.23 1378.2 C 1575.92 1380.08 1575.99 1380.82 1572.92 1380.5 C 1540.37 1297.03 1495.44 1224.09 1427.54 1164.61 C 1422.57 1160.26 1405.63 1146.01 1405.11 1140.1 C 1406.99 1135.81 1409.39 1134 1412.75 1130.73 z" fill="rgb(255,255,255)" transform="translate(0,0)"></path>
<path d="M 1913.73 918.028 C 1923.93 919.098 1942.47 955.98 1946.05 965.569 C 1937.05 984.338 1932.62 997.066 1921.82 1017.16 L 1916.64 1006.72 C 1907.62 986.764 1884.46 949.941 1872.63 931.205 C 1886.37 927.102 1900.37 923.175 1913.73 918.028 z" fill="rgb(255,255,255)" transform="translate(0,0)"></path>
<metadata><recraft-signature>{"signed_by": "recraft", "signature_b64": "rrkNFIfroM8qhi3fwY90UBj65PRbv/L+dxarFK+OmXXMogySqfCwU3tQ0vhHvekJiMqXHU7bBfbjH8yZeEswBg==", "signing_algo": "Ed25519", "generation_timestamp": 1765311555, "identifier": "56c731c4-15c2-4450-868f-198ec7f80702"}</recraft-signature></metadata></svg>