<svg xmlns="http://www.w3.org/2000/svg" height="1024" preserveAspectRatio="none" style="display: block;" version="1.1" viewBox="0 0 2048 2048" width="1024">
<path d="M 631.556 57.4537 C 762.355 54.0997 907.487 75.0419 1024.38 136.954 C 1072.91 162.655 1126.84 202.424 1140.94 258.314 C 1145.97 278.252 1144.56 304.292 1144.43 325.139 C 1144.23 347.441 1144.16 369.744 1144.2 392.047 C 1144.39 436.448 1145.03 481.124 1144.77 525.5 C 1143.86 600.032 1143.84 674.572 1144.73 749.105 C 1211.59 733.296 1273.06 722.297 1342.5 719.618 C 1478.06 714.388 1623.8 731.018 1745.83 793.96 C 1770.14 806.496 1792.89 820.572 1812.8 838.669 C 1843.04 866.157 1865.9 903.847 1866.86 945.49 C 1867.33 965.581 1867.04 986.378 1867.02 1006.59 L 1867.11 1115.87 L 1867.19 1477.68 L 1867.26 1668.63 L 1867.3 1724.94 C 1867.29 1736.86 1867.51 1751.67 1865.97 1763.12 C 1862.61 1788.07 1845.36 1818.12 1827.87 1836.03 C 1728.53 1937.8 1553.83 1966.73 1419.64 1971.95 C 1275.04 1973.54 1121.99 1954.9 997.484 1875.11 C 953.061 1846.64 912.031 1802.28 906.709 1747.65 C 840.94 1765.61 784.389 1775.64 715.933 1778.75 C 677.457 1780.63 638.906 1780.43 600.451 1778.15 C 481.598 1770.14 328.873 1736.42 237.158 1653.91 C 206.388 1626.22 181.289 1585.22 180.97 1543.24 C 180.723 1510.57 180.812 1477.37 180.784 1444.55 L 180.817 1250.14 L 180.792 729.204 L 180.818 414.563 L 180.794 322.592 C 180.792 307.247 180.392 284.657 181.918 270.012 C 184.617 244.103 207.568 208.255 225.743 190.084 C 323.264 92.586 501.536 61.8571 631.556 57.4537 z" fill="rgb(59,55,64)" transform="translate(0,0)"></path>
<path d="M 1350.77 741.433 C 1478.6 735.824 1632.79 756.312 1745.75 820.102 C 1763.63 830.198 1783.14 842.051 1798.27 855.911 C 1825.78 881.109 1843.13 909.708 1845.15 947.397 C 1846.84 978.905 1832.72 1010.95 1811.02 1033.25 C 1721.68 1125.03 1545.9 1158.33 1424.75 1163.35 C 1405.5 1164.66 1375.57 1164.37 1355.54 1163.56 C 1227.98 1157.51 1083.3 1134.26 981.009 1052.01 C 923.37 1005.67 909.707 931.623 961.342 875.345 C 1021.66 809.602 1119.36 777.113 1204.44 758.517 C 1251.04 748.334 1303.44 743.947 1350.77 741.433 z" fill="rgb(254,254,254)" transform="translate(0,0)"></path>
<path d="M 1720.91 843.5 C 1722.99 843.658 1725.53 844.153 1727.31 845.341 C 1758.11 866.029 1793 893.711 1803.95 930.689 C 1821.18 988.815 1772.79 1039.29 1726.41 1065.85 C 1712.2 1073.99 1698.67 1082.42 1683.25 1087 C 1679.29 1086.71 1675.3 1085.96 1674.06 1081.85 C 1675.25 1077.48 1677.32 1075.76 1681.02 1073.28 C 1688.26 1068.41 1697.01 1065.08 1704.71 1060.89 C 1732.14 1045.98 1759.12 1027.45 1777.02 1001.33 C 1835.11 916.541 1716.99 863.833 1715.93 853.294 C 1715.51 849.141 1718.32 846.327 1720.91 843.5 z" fill="rgb(59,55,64)" transform="translate(0,0)"></path>
<path d="M 1568.64 792.651 C 1583.37 792.08 1669.46 814.6 1674.6 826.579 C 1674.86 830.519 1673.81 831.712 1671.97 835.204 C 1670.51 835.568 1667.96 835.83 1666.57 835.332 C 1641.26 826.286 1616.31 817.755 1590.05 811.643 C 1585.06 810.48 1569.93 807.69 1567.32 803.172 C 1565.56 800.138 1567.41 795.931 1568.64 792.651 z" fill="rgb(59,55,64)" transform="translate(0,0)"></path>
<path d="M 1619.28 1096.97 C 1626.32 1096.41 1629.07 1101.58 1627.36 1107.78 C 1622.06 1113.98 1607.31 1117.09 1598.8 1119.81 C 1592.87 1120.16 1588.44 1117.06 1589.81 1110.8 C 1594.89 1104.03 1610.62 1099.91 1619.28 1096.97 z" fill="rgb(59,55,64)" transform="translate(0,0)"></path>
<path d="M 641.795 80.4803 C 702.874 79.1986 763.93 83.9395 824.079 94.6343 C 909.889 109.976 1011.6 142.97 1078.25 201.633 C 1130.06 247.23 1138.18 318.154 1087.47 368.428 C 989.19 465.865 816.636 497.583 684.016 500.893 C 541.588 502.569 359.461 477.649 248.146 379.329 C 191.946 329.691 187.916 258.633 241.903 205.784 C 311.676 137.481 425.773 104.668 519.725 90.4534 C 560.137 84.3218 600.924 80.9896 641.795 80.4803 z" fill="rgb(254,254,254)" transform="translate(0,0)"></path>
<path d="M 1012.58 202.138 C 1032.51 204.529 1067.32 247.897 1075.05 267.022 C 1083.52 288.333 1083.26 312.123 1074.33 333.246 C 1054.14 380.655 989.521 417.565 942.988 436.069 C 939.749 435.989 936.757 434.185 935.068 431.451 C 934.673 426.445 938.679 421.147 942.838 419.543 C 1017.41 390.786 1119.99 317.603 1034.97 236.761 C 1028.82 230.913 1009.64 217.449 1008.05 210.476 C 1009.08 206.357 1009.95 205.656 1012.58 202.138 z" fill="rgb(59,55,64)" transform="translate(0,0)"></path>
<path d="M 860.712 138.638 C 888.63 142.855 942.777 161.55 968.059 175.86 C 970.681 177.344 970.933 179.513 971.136 182.016 C 969.742 185.925 969.015 186.245 965.877 189.215 C 960.327 188.735 927.368 174.274 916.407 170.262 C 899.742 164.163 875.425 158.284 858.514 151.872 C 856.453 151.09 856.15 148.399 855.861 146.463 C 857.1 142.412 857.838 141.953 860.712 138.638 z" fill="rgb(59,55,64)" transform="translate(0,0)"></path>
<path d="M 880.892 443.147 C 885.23 442.504 887.866 442.952 891.048 446.225 C 893.357 457.533 878.242 459.837 870.245 461.855 C 866.077 462.709 863.457 461.83 860.602 458.673 C 857.397 448.372 874.299 444.957 880.892 443.147 z" fill="rgb(59,55,64)" transform="translate(0,0)"></path>
<path d="M 929.478 1290.57 C 931.995 1291.83 939.178 1300.41 941.232 1302.99 C 957.146 1322.94 975.277 1337.35 996.724 1351.26 C 1156.71 1455.03 1402.4 1464.06 1584.39 1427.53 C 1669.18 1410.51 1796.18 1365.53 1845.03 1290.33 L 1844.77 1433.12 C 1844.79 1454.71 1845.78 1478.48 1844.3 1499.97 C 1843.9 1505.87 1839.31 1515.76 1836.74 1521.35 C 1817.1 1561.99 1780.68 1589.17 1741.19 1609.26 C 1629.48 1666.06 1492.38 1689.59 1367.41 1686.9 C 1233.16 1684.01 1068.33 1658.25 967.242 1561.75 C 953.005 1546.79 936.278 1523.18 932.016 1502.42 C 926.546 1475.78 929.237 1440.85 929.084 1413.16 C 928.858 1372.36 928.442 1331.2 929.478 1290.57 z" fill="rgb(254,254,254)" transform="translate(0,0)"></path>
<path d="M 1415.24 1515.07 C 1444.86 1509.16 1473.65 1528.44 1479.46 1558.08 C 1485.26 1587.72 1465.88 1616.44 1436.22 1622.14 C 1406.7 1627.82 1378.16 1608.55 1372.38 1579.06 C 1366.6 1549.56 1385.77 1520.95 1415.24 1515.07 z" fill="rgb(59,55,64)" transform="translate(0,0)"></path>
<path d="M 1421.23 1528.65 C 1443.27 1526.01 1463.31 1541.65 1466.09 1563.67 C 1468.88 1585.69 1453.37 1605.83 1431.37 1608.76 C 1409.16 1611.72 1388.79 1596.03 1385.98 1573.81 C 1383.17 1551.58 1398.99 1531.32 1421.23 1528.65 z" fill="rgb(254,254,254)" transform="translate(0,0)"></path>
<path d="M 1647.94 1487.79 C 1649.9 1488.24 1656.53 1490.67 1656.25 1493.46 C 1654.55 1506.14 1658.71 1552.65 1653.49 1561.53 C 1647.91 1571.03 1567.56 1586.23 1558.23 1587.95 C 1554.52 1587.99 1553.92 1587.63 1551.28 1585.44 C 1548.39 1580.03 1548.28 1526.34 1550.31 1517.85 C 1550.75 1514.98 1553.25 1513.22 1556.13 1512.71 C 1588.34 1507.04 1618.17 1502.78 1647.94 1487.79 z" fill="rgb(59,55,64)" transform="translate(0,0)"></path>
<path d="M 1639.37 1508.05 L 1640.22 1508.31 C 1641.67 1511.61 1640.89 1546.4 1640.85 1552.1 C 1617.74 1560.5 1589.57 1568.1 1565.23 1571.62 L 1564.62 1571.38 C 1562.27 1568.41 1563.25 1533.07 1563.28 1526.56 C 1591.98 1521.35 1611.79 1517.32 1639.37 1508.05 z" fill="rgb(254,254,254)" transform="translate(0,0)"></path>
<path d="M 1774.91 1421.69 C 1789.21 1421.21 1784.95 1438.97 1784.77 1447.78 C 1784.09 1481.15 1792.86 1496.78 1760.08 1517.17 C 1739.78 1529.79 1721.98 1538.85 1699.23 1547.34 C 1694.86 1547.53 1693.73 1547.07 1690.75 1544.64 C 1687.4 1536.45 1690.76 1496.36 1689.4 1484.79 C 1689.13 1482.5 1690.37 1472.87 1691.41 1472.33 C 1703.97 1465.82 1725.56 1457.43 1737.14 1451.03 C 1755.85 1440.68 1761.2 1435.34 1774.91 1421.69 z" fill="rgb(59,55,64)" transform="translate(0,0)"></path>
<path d="M 1768.95 1448.04 C 1771.38 1451.7 1770.06 1483.77 1769.85 1490.29 C 1754.26 1509.16 1728.35 1518.9 1706.26 1528.29 C 1703.67 1525.58 1704.86 1488.61 1704.92 1481.92 C 1728.48 1472.74 1748.37 1462.86 1768.95 1448.04 z" fill="rgb(254,254,254)" transform="translate(0,0)"></path>
<path d="M 929.73 1551.51 C 947.512 1576.22 968.917 1596.39 994.096 1613.47 C 1112.37 1693.71 1291.8 1715.83 1431.09 1708.76 C 1478.05 1706.16 1524.78 1700.35 1570.94 1691.36 C 1660.52 1674.06 1791.41 1630.68 1844.68 1551.75 L 1844.94 1688.08 C 1845.01 1721.94 1849.1 1752.24 1835.64 1783.96 C 1772.26 1920.2 1479.52 1958.19 1348.74 1948.57 C 1217.87 1938.94 1060.35 1915.14 963.82 1816.73 C 917.872 1769.89 930.635 1723.91 929.083 1664.59 C 928.767 1627.51 927.767 1588.17 929.73 1551.51 z" fill="rgb(254,254,254)" transform="translate(0,0)"></path>
<path d="M 1419.42 1774.67 C 1449.46 1770.62 1477.06 1791.8 1480.92 1821.87 C 1484.79 1851.94 1463.43 1879.41 1433.33 1883.08 C 1403.51 1886.72 1376.34 1865.59 1372.51 1835.79 C 1368.68 1805.98 1389.64 1778.68 1419.42 1774.67 z" fill="rgb(59,55,64)" transform="translate(0,0)"></path>
<path d="M 1420.57 1788.63 C 1435.13 1786.45 1449.74 1792.29 1458.79 1803.91 C 1467.84 1815.52 1469.92 1831.11 1464.25 1844.7 C 1458.57 1858.29 1446.02 1867.76 1431.39 1869.49 C 1409.26 1872.1 1389.13 1856.48 1386.17 1834.39 C 1383.22 1812.3 1398.53 1791.93 1420.57 1788.63 z" fill="rgb(254,254,254)" transform="translate(0,0)"></path>
<path d="M 1644.41 1750.03 C 1652.89 1749.43 1657.73 1754.49 1656.49 1762 C 1653.85 1777.98 1658.85 1810.92 1655.18 1824.54 C 1646.83 1835.25 1575.31 1849.1 1559.26 1852.44 C 1555.37 1853.03 1554.16 1852.08 1551.44 1849.41 C 1548.71 1843.12 1549.46 1826.95 1549.95 1819.62 C 1550.88 1805.62 1547.54 1791.27 1550.59 1777.79 C 1551.09 1775.57 1553.85 1773.52 1555.81 1773.24 C 1586.44 1768.95 1615.96 1762.56 1644.41 1750.03 z" fill="rgb(59,55,64)" transform="translate(0,0)"></path>
<path d="M 1640.03 1769.27 C 1641.71 1772.04 1641 1810.5 1640.98 1816.81 C 1616.64 1825.65 1590.67 1830.98 1565.32 1835.9 C 1563.02 1831.94 1564.39 1794.93 1564.5 1787.5 C 1572.74 1785.13 1587.75 1782.63 1596.68 1780.74 C 1611.32 1777.67 1625.79 1773.84 1640.03 1769.27 z" fill="rgb(254,254,254)" transform="translate(0,0)"></path>
<path d="M 1775.25 1680.74 C 1779.75 1681.01 1780.82 1680.8 1784.16 1683.59 C 1786.87 1688.59 1785.73 1750.24 1785.32 1760.66 C 1764.16 1785.98 1729.09 1799.22 1699.31 1811.26 C 1695.78 1811.9 1696.04 1811.87 1692.62 1810.76 C 1686.28 1804.19 1689.84 1746.71 1690.37 1734.95 C 1690.47 1732.85 1732.98 1714.22 1738.77 1711 C 1756.18 1701.29 1761.74 1695.72 1775.25 1680.74 z" fill="rgb(59,55,64)" transform="translate(0,0)"></path>
<path d="M 1770.03 1708.98 C 1771.15 1716.63 1770.28 1746.31 1770.15 1754.74 C 1756.66 1771.94 1724.71 1785.03 1704.66 1791.99 C 1704 1776.98 1704.59 1759.32 1704.79 1744.09 C 1728.25 1733.31 1749.48 1725.11 1770.03 1708.98 z" fill="rgb(254,254,254)" transform="translate(0,0)"></path>
<path d="M 929.151 1028.7 C 935.84 1034.41 943.34 1046.4 949.873 1053.12 C 1128.38 1236.75 1694.81 1233.79 1844.5 1028.08 C 1845.36 1079.05 1844.66 1130.15 1845.08 1181.12 C 1845.33 1211.63 1847.23 1229.16 1836.17 1258.21 C 1776.88 1385.74 1518.43 1425.65 1383.89 1424.91 C 1259.5 1424.23 992.987 1390.71 933.294 1246.27 C 926.868 1230.72 929.031 1168.13 929.019 1146.11 L 929.151 1028.7 z" fill="rgb(254,254,254)" transform="translate(0,0)"></path>
<path d="M 1420.89 1251.32 C 1450.68 1248.46 1477.1 1270.42 1479.74 1300.23 C 1482.37 1330.05 1460.22 1356.3 1430.39 1358.72 C 1400.87 1361.12 1374.94 1339.24 1372.33 1309.74 C 1369.72 1280.23 1391.4 1254.14 1420.89 1251.32 z" fill="rgb(59,55,64)" transform="translate(0,0)"></path>
<path d="M 1423.2 1265.25 C 1445.14 1263.6 1464.28 1280.03 1466 1301.97 C 1467.72 1323.91 1451.36 1343.1 1429.42 1344.89 C 1407.38 1346.69 1388.08 1330.24 1386.35 1308.19 C 1384.63 1286.15 1401.14 1266.9 1423.2 1265.25 z" fill="rgb(254,254,254)" transform="translate(0,0)"></path>
<path d="M 1646.71 1226.04 C 1651.52 1226.08 1651.23 1226.13 1654.04 1228.55 C 1657.03 1234.79 1656.39 1300.75 1654.64 1301.93 C 1633.38 1316.22 1582.98 1324.46 1558.23 1329.06 C 1557.41 1329.03 1556.28 1329.03 1555.51 1328.78 C 1553.49 1328.14 1552.23 1327.02 1551.19 1325.22 C 1548.54 1320.66 1548.64 1260.81 1550.76 1253.91 C 1556.36 1249.65 1603.4 1241.21 1615 1237.37 C 1625.8 1233.78 1634.83 1231.04 1646.71 1226.04 z" fill="rgb(59,55,64)" transform="translate(0,0)"></path>
<path d="M 1639.94 1245.14 L 1640.63 1245.75 C 1641.65 1250.17 1641.03 1287.05 1640.98 1294.05 C 1619.73 1301.83 1586.56 1309.39 1564.25 1312.78 C 1562.61 1307.17 1563.36 1273.15 1563.45 1265.01 C 1590.89 1258.54 1613.11 1253.66 1639.94 1245.14 z" fill="rgb(254,254,254)" transform="translate(0,0)"></path>
<path d="M 1775.22 1158.58 C 1778.78 1158.81 1778.63 1158.85 1781.98 1160.18 C 1787.1 1166 1785.23 1179.48 1785.21 1187.55 C 1785.23 1203.38 1785.09 1219.21 1784.76 1235.03 C 1769.83 1257.6 1724.4 1278.77 1699.29 1287.88 C 1695.85 1287.67 1696.03 1287.61 1692.86 1286.17 C 1689.41 1282.47 1689.79 1279.37 1689.91 1273.31 C 1690.35 1252.71 1688.73 1231.61 1690.44 1211.12 C 1693.38 1205.96 1710.58 1201.23 1715.13 1199.2 C 1738.94 1188.58 1756.99 1177.11 1775.22 1158.58 z" fill="rgb(59,55,64)" transform="translate(0,0)"></path>
<path d="M 1768.44 1186.87 L 1769.73 1188.12 C 1770.75 1199.01 1770.27 1217.74 1770.28 1229.23 C 1751.77 1249.5 1731.26 1258.63 1706.42 1269.09 C 1703.92 1265.7 1705.03 1226.83 1705.07 1219.62 C 1712.28 1215.51 1724.2 1211.29 1732.24 1207.55 C 1746.08 1201.1 1755.91 1195.11 1768.44 1186.87 z" fill="rgb(254,254,254)" transform="translate(0,0)"></path>
<path d="M 1120.66 359.727 C 1122.2 368.862 1122.07 415.288 1121.92 426.193 C 1121.38 464.679 1122.64 505.487 1121.34 543.75 C 1115.49 552.007 1100.92 567.131 1093.26 573.553 C 966.384 679.827 759.922 714.314 599.927 702.372 C 469.68 692.65 293.231 647.909 204.702 545.475 C 202.734 541.535 203.816 381.7 203.944 362.776 C 220.504 389.208 252.183 415.36 278.677 431.957 C 398.657 507.117 574.469 529.955 713.649 522.633 C 765.852 519.637 817.732 512.476 868.794 501.216 C 955.044 481.998 1071.31 437.285 1120.66 359.727 z" fill="rgb(254,254,254)" transform="translate(0,0)"></path>
<path d="M 203.861 804.566 C 208.648 810.056 212.93 819.498 218.601 826.273 C 244.365 857.052 280.706 882.282 316.674 900.108 C 443.682 963.052 600.333 978.089 740.11 968.593 C 793.038 964.998 855.96 955.591 906.217 938.94 C 904.88 980.024 906.55 1022.6 905.934 1063.72 C 905.786 1073.63 906.828 1105.32 905.721 1113.38 L 903.788 1114.81 C 696.343 1181.09 360.823 1157.52 203.499 990.598 C 202.632 929.602 203.532 865.709 203.861 804.566 z" fill="rgb(254,254,254)" transform="translate(0,0)"></path>
<path d="M 204.045 1234.58 C 206.134 1236.21 218.406 1253.85 224.023 1259.51 C 251.671 1287.35 282.512 1306.85 317.304 1324.5 C 475.659 1404.85 738.733 1418.58 905.922 1362.93 L 906.126 1475.6 C 906.131 1493.09 907.052 1519.72 905.773 1536.05 C 774.699 1576.66 629.788 1578.85 495.323 1554.8 C 411.709 1539.84 320.347 1507.68 251.916 1456.57 C 234.218 1443.35 216.791 1428.97 204.134 1410.68 C 202.66 1392.59 203.342 1361.74 203.365 1343 C 203.299 1306.86 203.526 1270.72 204.045 1234.58 z" fill="rgb(254,254,254)" transform="translate(0,0)"></path>
<path d="M 204.049 624.436 C 211.495 629.025 222.633 641.535 230.296 647.521 C 339.545 732.851 484.792 764.168 620.758 770.835 C 744.528 776.903 873.028 757.636 987.76 709.825 C 1041.78 687.313 1078.17 665.114 1121.13 625.617 C 1121.2 646.327 1121.51 667.323 1120.94 688.033 C 1120.56 701.961 1114.03 713.574 1107.36 725.455 C 1080.23 768.9 1062.05 779.548 1017.85 801.562 C 1005.1 807.91 990.563 822.209 977.79 827.644 C 877.396 870.365 765.509 887.431 656.817 887.13 C 544.766 886.215 434.045 869.217 332.515 821.632 C 300.141 806.459 269.083 787.951 243.664 762.505 C 196.743 713.071 203.256 685.283 204.049 624.436 z" fill="rgb(254,254,254)" transform="translate(0,0)"></path>
<path d="M 204.179 1492.64 C 210.34 1497.3 221.615 1508.18 229.044 1514.14 C 249.139 1529.97 270.511 1544.11 292.941 1556.4 C 463.008 1650.74 721.553 1660.36 905.975 1607.6 L 906.233 1693.79 C 906.242 1699.45 907.156 1720.33 904.774 1723.85 C 827.142 1747.01 746.493 1758.48 665.481 1757.89 C 532.005 1757.42 345.897 1727.1 244.78 1629.28 C 198.55 1584.56 203.869 1550.86 204.179 1492.64 z" fill="rgb(254,254,254)" transform="translate(0,0)"></path>
<path d="M 203.97 1068.38 C 207.508 1070.35 225.095 1086.61 230.695 1090.87 C 256.463 1110.46 281.03 1127.58 310.011 1142.04 C 438.204 1206 592.968 1224.93 734.69 1215.15 C 788.489 1211.44 854.742 1201.92 906.062 1184.64 L 906.262 1263.93 C 906.267 1270.87 906.673 1294.16 905.683 1299.48 C 824.864 1323.29 740.914 1334.78 656.668 1333.53 C 526.128 1331.71 336.927 1301.4 239.76 1204.05 C 196.289 1160.5 203.177 1124.12 203.97 1068.38 z" fill="rgb(254,254,254)" transform="translate(0,0)"></path>
<path d="M 204.022 566.409 C 208.152 569.02 218.174 580.255 222.429 584.294 C 286.634 645.252 403.865 686.092 488.382 702.5 C 549.363 714.284 611.354 720.044 673.462 719.697 C 806.575 719.421 970.094 683.357 1079.71 603.767 C 1094.87 592.758 1107.99 579.581 1121.15 566.326 C 1121.26 577.935 1121.16 589.544 1120.86 601.15 C 1117.84 605.886 1113.86 610.701 1109.84 614.65 C 1007.48 715.416 815.945 753.84 678.575 756.268 C 542.414 758.675 382.949 731.506 267.971 655.969 C 242.885 639.488 225.246 623.857 203.888 603.358 C 204.131 591.181 204.007 578.619 204.022 566.409 z" fill="rgb(254,254,254)" transform="translate(0,0)"></path>
<path d="M 204.099 1434.77 C 207.574 1437.44 211.264 1441.63 214.686 1444.75 C 338.067 1556.98 521.673 1585.72 682.453 1585.39 C 758.722 1585.23 833.3 1572.12 906.113 1552.36 C 906.337 1565.04 906.158 1578.22 906.156 1590.94 C 792.157 1625.63 665.495 1630.88 547.753 1617.14 C 451.93 1605.96 353.64 1578.24 271.818 1526.04 C 246.702 1510.01 222.332 1492.39 203.761 1468.75 C 204.252 1458.34 204.03 1445.35 204.099 1434.77 z" fill="rgb(254,254,254)" transform="translate(0,0)"></path>
<path d="M 204.283 1012.63 C 210.404 1016.35 229.628 1035.19 237.042 1041.02 C 258.96 1058.25 283.575 1073.27 308.146 1086.35 C 428.642 1150.48 600.14 1173.12 734.862 1162.6 C 792.927 1158.44 850.33 1147.69 905.963 1130.55 L 906.143 1167.22 C 881.673 1177.22 853.436 1183.2 827.506 1187.98 C 635.357 1223.42 345.411 1196.93 204.295 1046.77 L 204.283 1012.63 z" fill="rgb(254,254,254)" transform="translate(0,0)"></path>
<path d="M 208.941 757.491 C 212.331 759.316 230.728 781.269 236.559 786.387 C 322.722 862.021 443.736 891.873 555.16 904.43 C 620.899 911.838 695.542 912.494 761.549 905.324 C 821.186 898.725 879.998 886.084 937.08 867.596 C 931.601 876.495 926.731 883.763 921.4 893.099 C 918.196 899.165 914.965 906.652 912.053 912.98 C 893.987 918.777 877.851 923.604 859.357 927.794 C 806.165 939.709 751.997 946.75 697.526 948.831 C 642.532 950.733 572.77 945.688 518.672 937.506 C 420.147 922.604 233.869 869.621 208.941 757.491 z" fill="rgb(254,254,254)" transform="translate(0,0)"></path>
<path d="M 215.965 1209.95 C 219.002 1212.67 222.213 1216.52 225.03 1219.59 C 260.676 1258.36 313.249 1286.56 362.703 1304.83 C 514.453 1360.89 686.432 1369.11 844.701 1338.69 C 865.165 1334.75 885.897 1327.95 905.811 1321.72 C 905.8 1327.19 905.757 1332.67 905.682 1338.15 C 876.147 1347.06 847.443 1355.3 816.734 1360.79 C 670.22 1386.99 504.093 1374.29 364.751 1321.16 C 315.698 1302.45 236.94 1258.32 215.965 1209.95 z" fill="rgb(254,254,254)" transform="translate(0,0)"></path>
<path d="M 1120.52 740.693 C 1121.38 743.832 1121.09 752.841 1121.09 756.547 L 1107.66 761.548 C 1107.58 757.732 1117.61 744.803 1120.52 740.693 z" fill="rgb(254,254,254)" transform="translate(0,0)"></path>
<metadata><recraft-signature>{"signed_by": "recraft", "signature_b64": "7mBBDieFleNLur5Lw8JjwasCpkv1cUdYQfktSJUHjfkUFesla0sy6SXi10jyk79G7GfsWtbsobnnrxX4qDbzCg==", "signing_algo": "Ed25519", "generation_timestamp": 1765311512, "identifier": "243e99e5-7455-46df-bd0a-05b78339a34c"}</recraft-signature></metadata></svg>