<svg xmlns="http://www.w3.org/2000/svg" height="1024" preserveAspectRatio="none" style="display: block;" version="1.1" viewBox="0 0 2048 2048" width="1024">
<path d="M 946.769 673.123 C 950.157 672.698 954.33 671.818 957.29 674.05 C 963.728 678.904 1000.72 801.684 1006.97 821.614 L 1161.74 1300.93 L 1205.97 1435.75 C 1215.14 1463.18 1229.46 1503.16 1235.74 1530.42 C 1224.7 1552.93 1202.61 1586.91 1189.29 1609.48 L 1162.9 1654.01 C 1154.73 1667.75 1150.02 1681.49 1134.17 1686.83 C 1069.78 1708.56 1005.2 1729.76 940.577 1750.76 L 670.258 1838.7 L 507.526 1892.24 C 485.464 1899.4 463.355 1906.19 441.41 1913.71 C 430.64 1917.4 427.268 1907.81 424.769 1900.22 C 421.732 1889.89 417.328 1878.47 413.889 1867.99 L 392.65 1802.09 L 342.889 1648.4 L 210.813 1235.52 L 149.89 1045.54 C 140.691 1016.37 130.792 986.81 122.392 957.411 C 121.32 953.661 122.066 951.261 123.543 947.851 C 133.06 941.962 180.021 927.695 193.887 923.124 L 333.019 876.78 L 946.769 673.123 z" fill="rgb(46,44,45)" transform="translate(0,0)"></path>
<path d="M 975.417 793.931 L 976.659 794.227 C 980.497 798.785 1029.76 957.336 1034.63 972.688 L 1158.92 1354.64 L 1195.03 1464.17 C 1200.41 1480.57 1209.44 1505.73 1213.19 1521.6 L 413.209 1785.18 L 409.486 1786.25 C 405.63 1782.59 362.366 1644.6 357.153 1628.37 L 259.795 1323.88 L 207.132 1159.65 C 196.961 1128.09 184.638 1092.53 176.153 1060.9 L 696.848 886.624 L 880.771 825.227 C 912.05 814.836 944.478 804.978 975.417 793.931 z" fill="rgb(255,255,255)" transform="translate(0,0)"></path>
<path d="M 682.829 994.844 C 685.925 995.479 688.065 996.741 690.893 998.125 C 698.224 1013.08 712.293 1137.3 715.367 1159.96 L 742.991 1362.97 L 755.597 1452.22 C 757.059 1462.98 760.839 1486.7 760.343 1496.34 C 757.451 1502.56 708.752 1536.56 701.381 1539.35 C 695.326 1538.47 692.304 1536.19 691.043 1529.89 C 688.864 1519 687.612 1507.93 685.807 1496.98 C 681.287 1469.57 678.521 1441.88 674.451 1414.43 C 661.128 1321.66 648.331 1228.82 636.06 1135.91 C 631.605 1103.84 627.855 1070.97 622.653 1039.11 C 630.064 1030.77 672.602 1000.54 682.829 994.844 z" fill="rgb(46,44,45)" transform="translate(0,0)"></path>
<path d="M 675.16 1025.04 C 677.23 1027.09 681.701 1064.51 682.449 1069.76 C 687.588 1104.25 692.323 1138.8 696.654 1173.4 L 740.264 1488.5 L 709.603 1510.85 C 709.054 1510.59 708.505 1510.33 707.957 1510.07 C 703.114 1480.26 699.726 1448.37 695.456 1418.22 L 664.857 1199.51 L 650.895 1098.42 C 649.095 1085.03 645.064 1059.77 644.838 1047.09 C 655.159 1040.12 664.083 1032.23 675.16 1025.04 z" fill="rgb(255,255,255)" transform="translate(0,0)"></path>
<path d="M 766.546 1039.05 C 771.01 1038.71 773.799 1038.9 777.913 1040.75 C 793.932 1047.96 809.693 1055.75 825.483 1063.44 C 859.646 1080.17 893.685 1097.14 927.599 1114.36 C 943.688 1122.39 1009.73 1153.43 1018.74 1161.55 C 1020.1 1169.4 1010.8 1182.13 1006.75 1188.74 C 967.294 1252.95 922.708 1315.03 883.624 1379.37 C 881.139 1383.96 879.555 1387.93 874.713 1389.88 C 865.924 1389.67 846.804 1370.86 840.107 1364.64 C 832.734 1357.78 811.719 1345.64 818.716 1334.18 C 828.387 1318.34 839.045 1302.83 849.387 1287.38 L 911.43 1194.54 C 872.416 1174.72 833.223 1155.27 793.854 1136.17 C 786.816 1132.68 733.845 1108.89 734.732 1102.71 C 736.221 1092.32 759.656 1045.7 766.546 1039.05 z" fill="rgb(46,44,45)" transform="translate(0,0)"></path>
<path d="M 776.194 1062.11 C 799.702 1074.57 825.716 1085.91 849.647 1097.99 C 897.686 1122.23 947.217 1145.68 994.888 1170.55 C 955.207 1231.75 912.376 1294.83 874.449 1356.48 L 869.634 1363.92 C 860.449 1354.94 850.258 1346.91 840.668 1337.52 C 867.508 1295.45 896.017 1254.49 923.161 1212.62 C 927.702 1205.62 934.235 1197.21 937.372 1189.73 C 934.227 1180.99 900.944 1166.78 891.186 1161.93 L 810.968 1122.22 C 794.868 1114.27 773.166 1104.22 758.303 1094.71 C 762.653 1085.56 771.058 1071.54 776.194 1062.11 z" fill="rgb(255,255,255)" transform="translate(0,0)"></path>
<path d="M 509.224 1126.59 C 517.542 1127.34 560.48 1170.05 563.122 1178.69 C 560.886 1188.25 541.067 1215.74 534.899 1225.75 C 514.977 1258.07 491.076 1291.36 472.546 1324.35 C 509.418 1343.1 546.5 1361.44 583.785 1379.36 C 602.255 1388.45 621.967 1397.72 639.927 1407.81 C 642.983 1409.53 645.341 1412.9 647.347 1415.76 C 643.101 1425.2 622.86 1478.17 615.885 1480.67 C 610.503 1482.59 605.206 1479.15 600.585 1476.77 C 576.18 1463.11 550.494 1450.93 525.475 1438.42 C 496.843 1424.05 468.288 1409.53 439.811 1394.85 C 423.441 1386.55 376.747 1365.39 367.354 1353.65 C 367.04 1352.48 366.976 1351.61 367.269 1350.42 C 370.573 1337.01 420.235 1261.78 431.225 1244.22 C 453.96 1207.89 475.02 1169.62 500.239 1134.98 C 502.872 1131.36 505.373 1128.9 509.224 1126.59 z" fill="rgb(46,44,45)" transform="translate(0,0)"></path>
<path d="M 511.295 1153.56 C 515.648 1156.14 534.714 1175.83 539.37 1180.51 C 510.881 1223.34 484.582 1269.11 455.957 1312.03 C 453.684 1315.44 446.703 1326.71 447.596 1330.59 C 450.223 1334.31 453.717 1337.5 457.754 1339.65 C 511.583 1368.3 568.198 1393.02 622.101 1421.4 C 616.73 1433.76 612.25 1445.21 607.47 1457.81 L 600.389 1454.03 C 559.931 1432.02 517.796 1412.73 477.116 1391.07 C 448.986 1376.1 420.189 1362.07 391.606 1347.96 C 418.767 1298.08 452.343 1250.46 481.14 1201.35 C 490.367 1185.61 500.92 1168.54 511.295 1153.56 z" fill="rgb(255,255,255)" transform="translate(0,0)"></path>
<path d="M 944.77 695.185 C 949.065 698.835 968.336 764.491 971.25 774.495 C 945.509 782.014 916.694 792.563 891.002 801.254 L 754.725 847.075 L 442.328 951.153 C 353.909 980.902 259.811 1013.64 170.926 1040.86 L 170.01 1040.54 C 165.689 1034.64 147.326 971.278 144.269 960.85 C 266.159 918.389 390.571 879.393 512.927 837.969 C 603.943 807.027 695.141 776.62 786.514 746.749 C 837.97 729.745 893.218 710.339 944.77 695.185 z" fill="rgb(255,255,255)" transform="translate(0,0)"></path>
<path d="M 1204.55 1545.2 C 1204.84 1547.71 1174.49 1596.45 1170.57 1603.01 C 1158.43 1623.31 1146.18 1645.72 1133.49 1665.62 C 1107.59 1676.27 1074.06 1685.83 1046.86 1694.67 L 913.572 1738.74 L 443.136 1891.88 L 436.059 1872.04 C 428.862 1850.54 420.832 1827.68 415.539 1805.77 C 435.672 1798.49 458.598 1791.44 479.087 1784.67 L 616.614 1739.52 L 880.628 1651.99 C 988.936 1617.41 1096.92 1581.81 1204.55 1545.2 z" fill="rgb(255,255,255)" transform="translate(0,0)"></path>
<path d="M 1641.55 134.433 C 1706.38 129.596 1790.81 158.204 1852.5 176.416 C 1861.88 178.927 1870.55 181.534 1879.86 184.506 C 1895.62 189.566 1920.26 189.7 1925.88 208.631 C 1930.26 223.357 1921.43 231.614 1909.32 238.34 C 1863.04 264.043 1805.69 250.905 1755.41 251.174 C 1726.52 251.328 1697.57 252.162 1669.51 258.994 C 1645.35 265.475 1615.95 281.909 1606.52 306.135 C 1602.59 316.222 1599.44 328.308 1594.17 337.471 C 1601.46 352.962 1607.84 372.464 1613.62 388.819 L 1636.7 453.127 C 1656.48 508.059 1678.89 564.818 1696.83 620.14 C 1719.68 619.76 1737.48 618.398 1751.47 640.488 C 1766.32 663.684 1771.32 691.836 1765.38 718.729 C 1779.04 746.397 1791.67 769.747 1804.47 798.541 C 1831.9 860.571 1851.25 925.866 1862.04 992.824 C 1878.59 1096.05 1876.82 1201.39 1856.81 1304 C 1852.29 1327.57 1847.56 1355.26 1833.72 1375.27 C 1820.26 1394.7 1789.73 1398.89 1772.09 1382.9 C 1742.28 1355.88 1750.34 1305.53 1751.94 1269.61 C 1752.53 1252.42 1752.59 1235.23 1752.11 1218.04 C 1749.48 1098.08 1722.37 966.785 1673.11 856.936 C 1657.82 826.657 1642.45 792.503 1623.92 764.247 C 1608.1 740.102 1593.71 727.105 1592.03 695.288 C 1591.36 682.727 1590.85 671.199 1599.55 660.701 C 1593.11 648.349 1585.78 626.815 1581.03 613.5 C 1571.8 586.117 1562.18 558.863 1552.2 531.745 C 1538.98 527.44 1526.19 524.261 1512.69 521.032 C 1506.48 527.435 1500.4 533.974 1494.47 540.644 C 1496 555.269 1501.29 575.85 1504.4 590.339 L 1522.67 675.867 C 1552.14 691.169 1558.37 723.624 1554.77 753.965 C 1554.09 759.646 1550.92 774.318 1551.5 779.637 C 1553.71 800.042 1556.91 820.787 1559.95 841.112 L 1603.18 1143.05 C 1610.99 1196.29 1619.44 1249.37 1626.36 1302.76 C 1629.61 1327.81 1633.23 1351.81 1630.32 1377.34 C 1628.3 1395.05 1624.88 1416.47 1609.85 1428.32 C 1594.01 1440.13 1574.91 1440.83 1556.12 1443.46 C 1543.24 1444.89 1528.73 1447.83 1515.86 1445.55 C 1475.02 1438.33 1460.14 1397.44 1453.86 1361.61 C 1448.6 1331.63 1446.18 1302.08 1443.53 1272.3 C 1439.59 1228.05 1436.14 1183.74 1433.18 1139.41 L 1409.32 839.033 C 1407.07 812.394 1406.82 806.109 1392.75 782.7 C 1370.62 745.874 1379.52 701.729 1415.28 676.958 C 1407.08 600.987 1393.25 523.056 1385.11 447.019 C 1373.25 446.828 1346.12 452.612 1340.65 449.961 C 1337.66 446.712 1335.41 442.549 1334.74 438.175 C 1330.01 407.12 1329.73 373.975 1323.66 343.216 C 1338.69 313.212 1357.61 285.323 1379.93 260.269 C 1447.03 185.33 1541.12 140.074 1641.55 134.433 z" fill="rgb(46,44,45)" transform="translate(0,0)"></path>
<path d="M 1476.81 685.578 C 1491.8 684.107 1507.59 686.109 1519.46 696.009 C 1550.89 722.225 1529.67 761.71 1534.6 796.777 L 1609.54 1309.44 C 1613.29 1336.59 1619.29 1384.72 1602.94 1409.6 C 1593.68 1423.68 1554.51 1425.47 1536.35 1427.61 C 1532.61 1428.12 1528.85 1428.54 1525.09 1428.88 C 1494.81 1431.28 1479.58 1396.62 1474.37 1372.19 C 1463.73 1322.26 1461.75 1270.59 1457.39 1219.75 C 1450.49 1137.26 1444.03 1054.74 1438.01 972.181 C 1435.72 938.973 1433.15 905.784 1430.31 872.618 C 1428.93 854.656 1427.76 836.615 1426.13 818.683 C 1423.57 791.144 1400.19 772.601 1399.15 744.618 C 1398 713.338 1416.8 687.898 1449.74 687.033 C 1458.4 686.806 1468.04 686.079 1476.81 685.578 z" fill="rgb(255,255,255)" transform="translate(0,0)"></path>
<path d="M 1500.23 764.569 C 1506.92 763.957 1508.76 763.244 1514.56 766.226 L 1514.65 767.542 C 1505.52 772.296 1457.82 772.761 1445.26 773.139 C 1441.29 773.503 1436.47 774.691 1433.56 771.845 L 1433.94 769.608 C 1437.69 766.385 1490.31 765.066 1500.23 764.569 z" fill="rgb(46,44,45)" transform="translate(0,0)"></path>
<path d="M 1548.01 1232.54 C 1549.45 1233.07 1550.77 1233.18 1551.21 1234.37 C 1553.95 1241.77 1559.29 1278.69 1558.1 1284.41 L 1555.06 1283.57 C 1551.78 1279.01 1545.96 1237.84 1548.01 1232.54 z" fill="rgb(46,44,45)" transform="translate(0,0)"></path>
<path d="M 1512.94 942.583 L 1514.75 943.696 C 1517.98 948.396 1523.11 989.118 1522.6 995.724 C 1521.19 995.362 1518.67 994.85 1518.31 993.282 C 1516.03 983.303 1509.64 950.839 1512.94 942.583 z" fill="rgb(46,44,45)" transform="translate(0,0)"></path>
<path d="M 1560.71 1328.33 C 1562.16 1328.9 1564.02 1329.56 1564.21 1331.43 C 1565.13 1340.45 1572.47 1373.87 1569.1 1380.53 C 1567.26 1379.75 1565.76 1379.5 1565.36 1376.98 C 1563.95 1368.09 1557.64 1335.05 1560.71 1328.33 z" fill="rgb(46,44,45)" transform="translate(0,0)"></path>
<path d="M 1462.74 884.236 L 1465.71 885.386 C 1467.78 889.886 1473.08 932.686 1472.55 938.744 C 1470.68 938.332 1468.94 938.432 1468.52 937.164 C 1465.64 928.543 1461.53 891.178 1462.74 884.236 z" fill="rgb(46,44,45)" transform="translate(0,0)"></path>
<path d="M 1537.86 1137.29 C 1540.25 1137.87 1539.53 1137.54 1541.48 1138.8 C 1544.46 1145.44 1548.07 1180.68 1547.46 1187.74 C 1545.32 1187.18 1545.77 1187.28 1543.79 1186.22 C 1540.82 1180.57 1536.83 1143.76 1537.86 1137.29 z" fill="rgb(46,44,45)" transform="translate(0,0)"></path>
<path d="M 1525.55 1040.2 C 1527.19 1040.7 1528.73 1040.73 1529.16 1041.96 C 1531.64 1049.09 1537.32 1088.26 1535.95 1093.27 C 1534.57 1092.82 1533.26 1092.75 1532.82 1091.61 C 1529.76 1083.83 1524.31 1046.62 1525.55 1040.2 z" fill="rgb(46,44,45)" transform="translate(0,0)"></path>
<path d="M 1495.12 1165.35 L 1497.99 1166.61 C 1501.8 1174.32 1504.22 1203.23 1504.99 1212.94 C 1503.97 1212.99 1502.22 1212.82 1501.14 1212.75 C 1497.34 1208.14 1494.02 1172.71 1495.12 1165.35 z" fill="rgb(46,44,45)" transform="translate(0,0)"></path>
<path d="M 1484.54 1077.18 C 1486.36 1077.64 1487.72 1077.53 1488.2 1078.86 C 1491.18 1087.1 1495.41 1117.87 1493.64 1124.87 C 1491.53 1124.71 1492.62 1125 1490.46 1123.74 C 1487.63 1117.9 1483.18 1083.12 1484.54 1077.18 z" fill="rgb(46,44,45)" transform="translate(0,0)"></path>
<path d="M 1475.67 984.419 C 1477.19 985.28 1478.84 986.031 1479.15 988.002 C 1480.48 996.269 1486.42 1031.25 1483.65 1036.87 C 1478.21 1033.73 1472.96 988.979 1475.67 984.419 z" fill="rgb(46,44,45)" transform="translate(0,0)"></path>
<path d="M 1506.64 1258.32 C 1507.93 1259.04 1509.03 1259.33 1509.54 1260.57 C 1512.64 1268.11 1516.28 1298.98 1514.8 1305.2 C 1511.5 1304.19 1512.68 1305.19 1510.7 1302.81 C 1509.01 1294.89 1504.33 1264.91 1506.64 1258.32 z" fill="rgb(46,44,45)" transform="translate(0,0)"></path>
<path d="M 1516.32 1350.59 L 1519.55 1351.51 C 1519.95 1352.49 1520.35 1353.48 1520.75 1354.47 C 1521.55 1363.94 1526.85 1386.7 1521.99 1394.63 C 1520.97 1394.1 1520.01 1393.88 1519.77 1392.93 C 1518.02 1385.94 1514.61 1355.57 1516.32 1350.59 z" fill="rgb(46,44,45)" transform="translate(0,0)"></path>
<path d="M 1502.44 860.227 L 1505.25 861.221 C 1508.45 865.574 1511.68 896.107 1511.31 902.605 L 1507.76 901.387 C 1504.41 895.66 1501.5 867.244 1502.44 860.227 z" fill="rgb(46,44,45)" transform="translate(0,0)"></path>
<path d="M 1629.23 154.577 C 1697.38 148.13 1770.73 170.871 1834.75 190.823 C 1850.13 195.615 1871.93 200.164 1885.95 205.421 C 1862.04 204.854 1838.17 203.414 1814.37 201.102 C 1771.26 196.882 1718.34 189.743 1675.78 196.872 C 1636.17 204.908 1598.4 218.11 1575.11 253.018 C 1552.79 286.462 1557.76 290.146 1570.49 324.555 C 1576.42 340.544 1582.2 356.588 1587.82 372.686 L 1653.3 552.288 C 1661.73 575.572 1670.91 599.679 1678.6 623.076 C 1653.22 627.471 1634.13 635.268 1612.8 649.449 C 1604.35 623.33 1594.24 596.699 1585.68 570.367 C 1581.44 557.304 1571.57 527.382 1565.94 516.428 C 1555.6 512.419 1527.23 504.818 1516.36 502.282 C 1515.01 493.849 1513.27 486.652 1511.29 478.387 C 1553.69 461.594 1580.63 425.791 1572.72 378.966 C 1570.74 365.476 1565.45 352.685 1557.33 341.733 C 1529.47 303.93 1475.1 297.419 1438.51 325.617 C 1420.29 339.909 1408.43 360.795 1405.49 383.76 C 1402.95 405.083 1409.22 430.84 1423.02 447.44 C 1444.25 472.976 1461.6 477.587 1492.41 481.157 C 1494.63 490.28 1496.91 499.391 1499.23 508.489 C 1492.84 514.627 1479.22 527.378 1474.39 534.282 C 1475.12 540.01 1476.54 545.656 1477.69 551.314 C 1485.47 589.915 1495.22 628.149 1501.68 667.008 C 1481.49 665.835 1452.77 667.994 1432.43 670.198 C 1428.97 636.252 1423.52 600.22 1419.14 566.115 L 1403.03 437.824 C 1388.9 420.931 1371.8 427.984 1352.32 431.221 L 1343.94 345.483 C 1393.27 242.052 1515.18 162.541 1629.23 154.577 z" fill="rgb(255,255,255)" transform="translate(0,0)"></path>
<path d="M 1747.38 704.978 L 1749.2 705.442 C 1749.56 708.634 1747.45 713.901 1746.4 717.186 C 1750.43 728.974 1760.06 746.278 1766.23 758.446 C 1857.38 938.13 1879.96 1153.69 1827.36 1348.1 C 1817.67 1383.89 1786.6 1385.8 1771.51 1348.28 C 1764.24 1324.15 1768.64 1295.75 1769.64 1270.61 C 1775.4 1126.82 1747.1 977.422 1687.79 846.21 C 1672.51 812.395 1654.15 780.697 1636.15 748.372 C 1664.14 734.801 1717.67 714.75 1747.38 704.978 z" fill="rgb(255,255,255)" transform="translate(0,0)"></path>
<path d="M 1719.64 762.606 C 1738.9 785.636 1757.85 821.198 1769.37 848.951 C 1819.32 969.252 1825.37 1102.96 1812.75 1231.18 C 1812.29 1235.81 1809.76 1262.14 1808.51 1265.73 L 1807.57 1263.86 L 1805.31 1263.77 C 1818.33 1102.25 1790.71 909.117 1719.64 762.606 z" fill="rgb(46,44,45)" transform="translate(0,0)"></path>
<path d="M 1805.31 1263.77 L 1807.57 1263.86 L 1808.51 1265.73 C 1805.94 1288.26 1801.62 1311.91 1798.37 1334.51 C 1797.16 1326.2 1804.29 1276.96 1805.31 1263.77 z" fill="rgb(46,44,45)" transform="translate(0,0)"></path>
<path d="M 1483.83 328 C 1520.28 324.868 1552.38 351.839 1555.58 388.282 C 1558.77 424.724 1531.86 456.874 1495.42 460.137 C 1458.89 463.407 1426.65 436.41 1423.44 399.875 C 1420.23 363.341 1447.29 331.14 1483.83 328 z" fill="rgb(255,255,255)" transform="translate(0,0)"></path>
<path d="M 1498.18 360.792 C 1526.9 358.858 1534.08 399.575 1513.77 421.353 C 1505.34 406.764 1500.82 400.759 1486.95 390.934 C 1481.16 399.805 1475.33 408.644 1469.44 417.452 L 1463.54 426.671 L 1454.91 420.292 C 1462.56 408.595 1470.03 396.782 1477.32 384.858 C 1469.56 381.959 1460.01 380.16 1451.74 378.019 C 1455.09 374.541 1457.66 371.329 1460.7 367.606 C 1467.91 370.342 1476.11 374.106 1483.29 377.191 C 1487.98 370.404 1491.29 365.581 1498.18 360.792 z" fill="rgb(46,44,45)" transform="translate(0,0)"></path>
<path d="M 1499.77 368.473 C 1513.97 371.379 1519.04 379.764 1519.15 394.181 C 1519.18 398.003 1518.72 403.64 1515.87 406.448 L 1514.17 405.732 C 1507.37 396.558 1500.39 388.827 1490.81 382.616 L 1499.77 368.473 z" fill="rgb(255,255,255)" transform="translate(0,0)"></path>
<path d="M 1695.54 638.396 C 1702.89 637.015 1719.17 637.972 1726.55 638.672 C 1741.2 652.869 1748.91 678.43 1750.82 698.262 C 1719.7 707.122 1686.9 719.75 1656.75 731.603 C 1648.94 734.724 1639.09 739.603 1631.28 743.191 C 1618.15 729.775 1600.57 686.678 1614.52 671.623 C 1631.95 652.795 1671.05 640.835 1695.54 638.396 z" fill="rgb(255,255,255)" transform="translate(0,0)"></path>
<path d="M 1699.78 213.422 C 1740.36 209.524 1795.31 219.029 1836.26 221.511 C 1861.89 223.065 1880.51 225.872 1906.67 220.106 C 1863.08 242.061 1820.42 235.632 1773.4 233.541 C 1754.1 232.611 1734.78 232.751 1715.5 233.958 C 1687.59 235.669 1657.75 239.141 1632.75 252.599 C 1611.88 263.836 1592.12 284.808 1585.19 307.799 C 1582.84 301.293 1580.45 294.805 1578.01 288.335 C 1582.65 275.97 1589.39 264.496 1597.92 254.414 C 1621.79 226.754 1664.83 216.137 1699.78 213.422 z" fill="rgb(255,255,255)" transform="translate(0,0)"></path>
<path d="M 1207.61 398.837 C 1214.68 398.834 1218.07 401.556 1218.89 408.858 C 1223.74 452.101 1228.08 495.403 1232.51 538.696 L 1237.38 585.662 C 1238.32 594.5 1240.11 607.406 1239.83 615.833 C 1238.63 618.402 1236.31 621.149 1233.37 621.88 C 1225.39 623.864 1138.03 575.279 1124.33 568.047 C 1108.63 559.661 1092.89 551.369 1077.09 543.172 C 1067.57 538.298 1043.6 526.965 1036.87 521.25 C 1034.33 515.114 1035.25 511.28 1041.02 507.35 C 1048.23 502.438 1055.66 497.884 1062.99 493.146 L 1105.54 465.397 C 1138.13 444.022 1174.7 418.44 1207.61 398.837 z" fill="rgb(46,44,45)" transform="translate(0,0)"></path>
<path d="M 1200.04 426.838 C 1202.54 429.677 1216.65 577.376 1219.59 596.159 C 1191.03 581.941 1160.83 565.177 1132.53 550.164 C 1111.21 538.819 1086.78 525.942 1065.05 515.746 C 1079.68 504.774 1100.31 492.146 1116.01 481.913 L 1200.04 426.838 z" fill="rgb(255,255,255)" transform="translate(0,0)"></path>
<path d="M 1170.84 486.663 C 1179.43 487.063 1179.08 500.398 1179.75 507.081 C 1180.6 515.669 1182.3 528.372 1179.41 536.453 L 1177.93 537.043 C 1171.95 535.513 1164.82 531.149 1159.21 528.076 C 1151.29 524.124 1138.95 519.919 1137.56 510.535 C 1140.01 504.155 1162.4 492.77 1170.84 486.663 z" fill="rgb(46,44,45)" transform="translate(0,0)"></path>
<path d="M 1046.34 141.879 C 1047.45 141.897 1048.57 141.883 1049.67 141.982 C 1055.84 142.536 1244.15 238.614 1246.65 242.286 C 1247.97 244.211 1248.14 245.779 1247.75 247.991 C 1242.31 255.355 1188.45 288.536 1177.51 295.628 C 1151.19 313.572 1123.56 330.162 1097.34 348.315 C 1089.38 353.821 1078.14 361.592 1068.61 363.203 C 1062.74 361.366 1061.76 358.106 1061.12 352.49 C 1053.49 285.823 1047.02 218.917 1041.43 152.043 C 1040.93 146.13 1042.57 145.953 1046.34 141.879 z" fill="rgb(46,44,45)" transform="translate(0,0)"></path>
<path d="M 1060.65 168.311 C 1068.72 171.072 1094.3 185.497 1103.45 189.794 C 1141.14 207.499 1178.75 229.171 1216.19 246.959 C 1199.25 256.901 1179.47 271.096 1162.44 282.126 C 1136.09 299.887 1104.51 319.05 1079.64 337.433 C 1071.64 281.491 1068.97 223.425 1060.65 168.311 z" fill="rgb(255,255,255)" transform="translate(0,0)"></path>
<path d="M 1099.62 227.632 C 1107.15 229.282 1143.59 244.708 1142.92 252.071 C 1139.1 256.462 1133.08 259.89 1128.09 263.168 C 1122.6 266.795 1112.41 274.478 1106.41 274.778 C 1100.44 270.193 1097.04 234.626 1099.62 227.632 z" fill="rgb(46,44,45)" transform="translate(0,0)"></path>
<metadata><recraft-signature>{"signed_by": "recraft", "signature_b64": "EHd55NoaW7sQsV+6C1Paii2AUtooP2isgIBkXVajsCI6i8zeO8QSIIkoMk1ukURFH/apEH6tNQrSAHNm7VwpCw==", "signing_algo": "Ed25519", "generation_timestamp": 1765311451, "identifier": "27ddcae2-4b4a-4248-b89d-c30ab004d1c0"}</recraft-signature></metadata></svg>