<svg xmlns="http://www.w3.org/2000/svg" height="1024" preserveAspectRatio="none" style="display: block;" version="1.1" viewBox="0 0 2048 2048" width="1024">
<path d="M 1183.62 133.423 C 1245.98 131.355 1273.28 147.786 1324.95 176.663 L 1420.63 231.29 C 1439.97 242.31 1460.05 254.137 1479.61 264.576 C 1503.84 277.51 1524.44 286.332 1544.87 305.921 C 1561.7 322.051 1575.5 338.086 1588.06 357.762 C 1592.76 364.923 1601.23 384.215 1607.65 388.339 C 1633.68 405.041 1661.22 419.936 1688.19 435.14 L 1807.87 503.808 C 1829.16 516.172 1854.94 528.819 1873.66 543.785 C 1894.34 560.423 1911.87 580.624 1925.43 603.433 C 2034.09 785.71 1903.85 1053.78 1751.68 1169.26 C 1738.12 1179.55 1722.15 1188.04 1707.3 1196.38 L 1645.5 1230.92 C 1555.07 1281.92 1462.97 1331.09 1371.56 1380.38 C 1355.5 1389.04 1339.84 1398.13 1324.14 1407.41 C 1323.87 1505.08 1324.1 1602.75 1324.83 1700.42 C 1324.83 1716.18 1325.93 1801.63 1322.37 1811.39 C 1314.7 1817.47 1298.62 1825.44 1289.36 1830.3 L 1241.19 1855.73 L 1169.44 1893.97 C 1156 1901.13 1139.53 1910.68 1125.82 1916.3 C 1105.59 1906.55 1077.29 1887.61 1057.36 1875.82 C 1043.54 1867.63 1024.01 1856.59 1011.22 1848.16 C 1009.53 1829.18 1010.26 1800.45 1010.24 1780.59 L 1010.47 1659.58 C 1010.77 1627.07 1011.73 1583.52 1008.88 1551.87 C 996.912 1558.73 984.802 1565.36 972.561 1571.73 C 890.677 1614.77 809.493 1661.38 727.209 1704.04 C 694.254 1721.13 666.05 1741.72 629.996 1754.38 C 593.771 1767.09 563.228 1773.98 524.459 1773.44 C 498.09 1773.1 471.998 1768.01 447.438 1758.4 C 414.701 1745.59 368.057 1715.55 335.628 1697.02 C 302.343 1678.07 269.167 1658.91 236.103 1639.57 C 205.249 1621.5 175.772 1606.45 151.114 1579.84 C 99.9686 1524.63 77.8959 1443.44 80.7014 1369.14 C 85.9912 1229.04 155.136 1090.33 251.004 989.984 C 265.59 975.06 280.417 960.897 296.637 947.779 C 306.442 939.848 321.341 931.946 329.81 923.349 C 328.945 920.733 328.152 918.094 327.433 915.434 C 322.185 895.898 319.207 866.776 318.692 846.502 C 316.345 755.412 347.156 669.546 391.607 590.93 C 466.924 457.723 637.96 307.293 801.058 381.005 C 814.962 387.289 833.684 399.763 847.603 407.765 C 875.793 352.822 897.875 315.141 938.692 268.14 C 998.565 199.196 1090.62 139.275 1183.62 133.423 z" fill="rgb(32,31,32)" transform="translate(0,0)"></path>
<path d="M 1376.17 329.392 C 1401.54 325.728 1438.27 332.51 1461.24 344.138 C 1541.69 384.879 1576.41 473.598 1576.06 559.853 C 1576.02 568.89 1575.47 577.825 1574.71 586.815 C 1573.97 595.442 1570.2 605.488 1573.11 613.734 C 1581.48 622.179 1602.37 601.933 1611.55 596.896 C 1655.1 573.011 1713.48 559.462 1762.16 573.436 C 1808.95 587.309 1848.46 618.949 1872.22 661.585 C 1956.71 815.489 1841.43 1044.21 1707.98 1134.02 C 1689.6 1146.39 1667.78 1157.2 1648.19 1167.85 L 1567.82 1212.47 L 1323.56 1346.96 C 1322.53 1330.78 1323.39 1296.77 1323.55 1279.79 C 1323.83 1248.76 1322.97 1212.67 1324.6 1182.08 C 1337.08 1173.44 1361.21 1161.24 1375.24 1153.55 L 1478.31 1095.93 C 1487.71 1090.74 1529.37 1070.82 1532.29 1064.57 C 1531.72 1059.64 1530.22 1057.62 1526.92 1053.78 C 1502.77 1025.8 1476.94 999.339 1452.14 972.005 C 1403.95 918.134 1355.39 864.601 1306.45 811.408 C 1283.99 787.025 1256.11 753.8 1231.42 730.45 C 1219.91 723.697 1205.2 713.923 1193.69 708.018 C 1182.32 702.19 1146.77 677.46 1135.24 679.498 C 1123.31 687.118 1105.64 736.171 1099.11 751.677 C 1090.3 772.066 1081.14 792.3 1071.63 812.368 L 888.415 1195.31 C 880.329 1211.39 869.776 1235.27 862.137 1251.37 C 855.636 1265.07 819.744 1332.93 821.909 1341.26 C 828.601 1347.61 904.738 1389.22 913.957 1392.6 C 927.358 1387.13 946.408 1376.07 959.169 1368.83 C 976.285 1359.08 993.487 1349.48 1010.77 1340.03 C 1011.41 1389.93 1010.78 1440.28 1011.05 1490.27 C 971.01 1513.04 930.316 1534.24 889.758 1556.05 L 759.547 1626.28 L 690.969 1663.24 C 639.779 1690.59 597.599 1708.84 537.375 1702.18 C 397.028 1686.67 344.211 1552.74 359.341 1426.74 C 374.617 1299.53 443.709 1181.83 546.081 1104.89 C 558.05 1095.91 571.172 1088.13 584.522 1081.43 C 590.587 1078.52 609.388 1076.51 614.596 1072.35 C 615.511 1064.97 606.85 1049.93 604.162 1042.54 C 576.779 967.194 591.094 870.077 622.167 798.048 C 662.654 704.2 735.408 613.876 831.164 574.068 C 876.284 555.31 923.337 549.135 968.866 568.496 C 1009.78 585.237 1051.19 627.476 1060.35 671.519 C 1062.66 682.662 1062.68 695.727 1065.11 706.365 C 1065.61 708.538 1068.04 709.169 1069.84 709.615 C 1071.6 708.981 1074.24 707.92 1074.67 706.104 C 1077.4 693.485 1077.53 679.654 1078.73 666.568 C 1092.39 517.516 1221.15 347.135 1376.17 329.392 z" fill="rgb(255,255,255)" transform="translate(0,0)"></path>
<path d="M 832.334 637.072 C 836.538 636.856 838.763 636.72 840.458 640.848 C 838.171 651.877 815.058 653.057 805.025 658.362 C 698.536 714.672 624.624 852.712 643.244 972.783 C 643.566 974.863 641.607 976.971 640.441 978.675 C 639.013 978.56 637.064 978.504 636.031 977.587 C 629.702 971.968 629.487 950.065 628.992 943.233 C 624.864 886.313 645.136 826.107 672.39 776.641 C 699.646 727.174 742.022 678.951 791.763 652.018 C 804.38 645.425 818.65 641.057 832.334 637.072 z" fill="rgb(32,31,32)" transform="translate(0,0)"></path>
<path d="M 509.56 1245.66 C 513.198 1246.14 514.801 1247.07 516.692 1250.07 C 516.396 1255.69 513.136 1258.07 509.179 1261.89 C 475.955 1293.97 451.817 1331.67 437.09 1375.69 C 412.172 1450.17 423.804 1551.63 511.781 1575.66 C 515.503 1576.68 516.941 1577.85 518.546 1581.13 C 518.235 1585.02 517.865 1585.13 515.898 1588.4 C 494.383 1585.56 464.399 1568.2 450.405 1552.41 C 422.933 1521.4 412.325 1477.94 414.631 1437.5 C 419.109 1358.99 453.707 1297.86 509.56 1245.66 z" fill="rgb(32,31,32)" transform="translate(0,0)"></path>
<path d="M 458.845 1404.49 C 460.675 1405.3 464.981 1406.97 465.132 1409.03 C 465.379 1412.39 464.016 1420.88 463.238 1424.02 C 458.25 1444.17 462.259 1462.9 469.97 1482.06 C 484.206 1517.44 515.025 1540.96 553.006 1545.54 C 563.411 1546.8 572.096 1544.03 581.593 1547.93 C 583.975 1550.76 583.476 1549.21 583.546 1552.58 C 581.729 1555.37 581.704 1555.15 578.806 1556.91 C 572.876 1557.39 566.925 1557.56 560.976 1557.44 C 530.516 1556.66 501.657 1543.64 480.92 1521.31 C 456.938 1495.17 445.373 1455.68 451.43 1420.44 C 452.63 1413.45 453.465 1409.35 458.845 1404.49 z" fill="rgb(32,31,32)" transform="translate(0,0)"></path>
<path d="M 1226.32 750.603 C 1237.15 760.372 1249.59 774.846 1259.61 785.748 L 1321.93 854.379 L 1434.1 978.267 C 1458.19 1004.84 1483.97 1031.83 1507 1059.07 C 1464.78 1085.06 1417.87 1107.06 1375.25 1132.61 C 1357.01 1143.55 1323.91 1156.76 1309.17 1169.36 C 1306.08 1178.73 1306.89 1212.61 1306.82 1224.18 C 1306.67 1261.86 1306.74 1299.54 1307.03 1337.21 L 1307.92 1653.57 C 1308.19 1702.16 1308.06 1750.75 1307.51 1799.34 C 1259.4 1826.14 1209.63 1850.52 1161.51 1877.4 C 1153.84 1881.69 1145.87 1885.73 1137.81 1889.24 C 1137.44 1880.35 1137.67 1869.94 1137.64 1860.94 L 1136.89 1400.09 L 1137 1305.05 C 1137.02 1297.05 1137.61 1265 1136.2 1259.47 C 1133.95 1256.39 1134.18 1256.54 1130.65 1255.14 C 1120.54 1257.41 1075.96 1283.46 1064.57 1289.63 C 1020.71 1313.39 977.725 1336.8 934.844 1362.33 C 944.068 1340.12 957.338 1315.32 968.121 1293.56 L 1032.91 1162.8 C 1099.5 1026.41 1163.98 888.99 1226.32 750.603 z" fill="rgb(255,255,255)" transform="translate(0,0)"></path>
<path d="M 708.859 379.432 C 770.861 376.028 821.253 411.875 871.604 442.616 C 896.545 457.844 916.683 469.122 942.17 483.188 C 931.365 482.832 915.903 482.281 905.289 483.554 C 810.112 494.966 722.595 557.237 662.191 628.237 C 574.487 731.325 521.016 863.075 531.133 999.246 C 531.26 1006.88 533.653 1025.4 534.481 1033.8 C 523.794 1028.53 507.642 1018.41 497.031 1012.11 L 433.251 974.078 C 409.659 959.965 369.733 938.266 349.311 923.539 C 342.383 904.551 338.2 881.287 336.966 861.157 C 324.667 660.55 497.236 393.959 708.859 379.432 z" fill="rgb(255,255,255)" transform="translate(0,0)"></path>
<path d="M 1400.19 269.429 C 1439.75 267.014 1483.02 281.607 1515.25 304.532 C 1573.77 346.157 1605.98 419.094 1612.76 489.04 C 1613.85 500.263 1613.81 510.219 1613.66 521.44 C 1613.57 527.795 1612.78 538.74 1613.67 544.527 C 1619.27 552.479 1626.26 547.146 1632.67 543.018 C 1731.78 479.244 1865.42 519.624 1917.98 624.996 C 1957.9 705.031 1954.25 796.666 1927.98 881.294 C 1902.76 962.599 1859.35 1037.09 1801.05 1099.11 C 1754.61 1149.43 1723.4 1167.02 1663.98 1199.63 L 1571.53 1250.79 C 1489.25 1296.44 1406.51 1341.27 1323.34 1385.28 L 1324.02 1361.94 C 1356 1341 1398.89 1319.87 1433.07 1301.04 L 1560.45 1230.51 C 1605.01 1206.17 1652.32 1180.54 1696.78 1155.19 C 1794.88 1099.25 1870.18 982.782 1899.84 875.539 C 1919.75 803.526 1919.14 719.733 1881.34 653.311 C 1857.75 611.868 1811.75 572.193 1764.55 561.351 C 1696.52 545.72 1642.38 563.844 1585.17 598.34 C 1592.85 528.881 1583.17 463.768 1544.56 403.85 C 1505.83 343.764 1441.2 307.832 1368.81 318.152 C 1232.86 337.535 1129.86 458.987 1085.66 582.444 C 1077.5 605.252 1072.86 629.645 1068.03 653.146 C 1055.25 624.388 1035.72 599.138 1011.09 579.538 C 977.079 552.776 928.406 540.425 886.036 546.676 C 796.894 559.827 726.806 618.816 673.245 686.494 C 595.868 786.194 545.819 942.405 600.473 1063.13 C 590.275 1066.43 580.37 1070.57 570.861 1075.51 C 538.406 1092.1 516.735 1112.45 491.003 1137.06 C 375.728 1247.34 297.946 1454.88 376.469 1605.83 C 401.199 1653.58 444.105 1689.38 495.521 1705.16 C 601.998 1738.74 676.19 1683.98 764.211 1636.89 C 845.894 1592.56 927.868 1548.76 1010.13 1505.51 C 1010.76 1512.93 1010.8 1521.42 1010.99 1528.95 C 931.015 1575.19 847.869 1618.17 766.444 1661.86 L 697.859 1699.49 C 661.577 1719.77 633.455 1736.6 592.629 1747.93 C 501.452 1773.24 400.544 1741.63 353.593 1655.7 C 264.471 1492.59 335.264 1279.6 448.018 1146.49 C 480.485 1108.17 512.777 1080.63 556.067 1055.24 C 555.088 1039.77 550.904 1017.45 549.247 1000.89 C 545.327 958.662 548.049 916.084 557.313 874.703 C 584.675 747.548 669.761 618.392 779.828 548.561 C 859.387 498.085 959.65 477.781 1038.5 539.427 C 1046.39 545.602 1057.76 559.038 1067.08 561.054 C 1072.36 559.428 1081.19 533.306 1084.44 526.29 C 1141.64 402.816 1257.18 279.646 1400.19 269.429 z" fill="rgb(255,255,255)" transform="translate(0,0)"></path>
<path d="M 339.102 937.741 C 342.8 938.663 365.537 953.708 371.381 957.181 C 399.661 973.779 427.77 990.668 455.702 1007.84 C 479.75 1022.48 502.467 1036.96 527.711 1049.49 C 518.922 1054.56 506.218 1065.14 498.177 1071.81 C 461.671 1101.61 429.464 1136.31 402.473 1174.94 C 321.363 1288.78 270.506 1455.63 308.944 1593.85 C 315.27 1616.74 324.282 1638.79 335.792 1659.55 C 339.496 1666.09 352.919 1683.89 353.646 1688.22 L 350.233 1686.71 C 316.97 1665.64 280.806 1646.94 247.054 1626.5 C 215.038 1607.1 176.609 1588.73 154.167 1557.85 C 30.5996 1387.82 132.671 1140.54 262.384 1004.63 C 287.206 978.627 311.441 959.718 339.102 937.741 z" fill="rgb(255,255,255)" transform="translate(0,0)"></path>
<path d="M 1185.85 151.43 C 1241.89 147.053 1278.64 169.901 1324.59 196.162 L 1423.04 252.988 C 1388.55 251.051 1362.78 253.289 1329.51 264.234 C 1256.96 288.101 1197.55 336.387 1147.68 393.059 C 1117.99 426.799 1095.28 465.463 1075.01 505.545 C 1070.33 514.818 1065.92 525.225 1061.65 534.769 C 1044.7 519.595 1030.1 510.245 1009.19 500.765 C 1000.87 496.526 988.821 493.597 981.142 488.58 C 943.111 463.733 901.487 441.691 863.855 416.567 C 880.204 376.287 916.966 322.192 945.179 288.585 C 1004.84 217.521 1091.13 158.853 1185.85 151.43 z" fill="rgb(255,255,255)" transform="translate(0,0)"></path>
<path d="M 1026.78 1450.35 C 1033.19 1454.93 1066.89 1491.91 1073.52 1499.13 C 1087.84 1514.71 1107.6 1534 1120.99 1549.92 C 1120.93 1587.82 1120.6 1625.72 1119.99 1663.62 L 1118.73 1663.72 C 1114.03 1660.22 1086.6 1630.08 1081 1623.92 C 1064.79 1606.09 1042.71 1586 1027.68 1568.13 C 1028.91 1531.73 1027.03 1487.46 1026.78 1450.35 z" fill="rgb(255,255,255)" transform="translate(0,0)"></path>
<path d="M 1064.62 1310.88 C 1068.93 1312.28 1114 1362.69 1120.1 1369.73 L 1121.07 1478.41 L 1102.92 1460.36 C 1077.01 1433.66 1053.92 1410.78 1026.96 1385.18 L 1026.91 1331.23 C 1039.4 1324.31 1051.98 1317.53 1064.62 1310.88 z" fill="rgb(255,255,255)" transform="translate(0,0)"></path>
<path d="M 1027.26 1583.54 C 1030.12 1585.32 1048.3 1605.55 1051.76 1609.27 C 1074.45 1633.97 1097.34 1658.47 1120.44 1682.79 C 1120.93 1710.09 1120.86 1737.41 1120.25 1764.71 C 1117.02 1764.81 1081.52 1734.75 1074.44 1730.11 C 1058.74 1719.82 1043.21 1705.91 1027.03 1695.98 C 1026.98 1658.92 1026.42 1620.49 1027.26 1583.54 z" fill="rgb(255,255,255)" transform="translate(0,0)"></path>
<path d="M 1082.44 831.363 C 1104.01 844.857 1127.8 863.739 1147.38 879.854 C 1141.18 894.395 1133.03 911.116 1126.27 925.525 C 1120.76 937.284 1112.82 955.089 1106.58 966.119 C 1084.15 951.401 1061.96 936.333 1040 920.922 C 1054.95 892.23 1066.02 860.49 1082.44 831.363 z" fill="rgb(255,255,255)" transform="translate(0,0)"></path>
<path d="M 991.333 1021.35 C 1009.87 1031.06 1038.44 1055.47 1059.03 1067.81 C 1045.86 1094.19 1032.09 1123.09 1019.18 1149.68 C 1017.46 1149.03 1003.54 1139.49 1000.78 1137.62 L 951.573 1104.29 C 964.944 1076.6 977.526 1048.88 991.333 1021.35 z" fill="rgb(255,255,255)" transform="translate(0,0)"></path>
<path d="M 932.031 1146.52 C 948.19 1156.03 983.696 1179.4 997.651 1190.73 C 986.827 1217.52 973.453 1242.78 960.127 1268.36 C 955.284 1266.46 904.282 1229.79 895.825 1223.97 C 907.152 1197.81 919.225 1171.99 932.031 1146.52 z" fill="rgb(255,255,255)" transform="translate(0,0)"></path>
<path d="M 1614.82 413.356 C 1622.5 416.506 1651.23 433.633 1659.85 438.506 L 1762.9 497.461 L 1740.17 495.856 C 1694.81 495.362 1672.92 503.93 1632.18 520.356 C 1630.35 504.152 1630.01 488.326 1627.88 471.977 C 1625.11 450.734 1620.42 433.857 1614.82 413.356 z" fill="rgb(255,255,255)" transform="translate(0,0)"></path>
<path d="M 1027.08 1709.38 C 1032.31 1711.8 1053.04 1727.47 1058.82 1731.92 C 1079.17 1747.59 1100.94 1763.38 1120.68 1779.69 C 1121.13 1798.56 1121.32 1821.21 1120.64 1839.93 C 1113.11 1838.07 1042.52 1785.42 1027.18 1777.25 L 1027.08 1709.38 z" fill="rgb(255,255,255)" transform="translate(0,0)"></path>
<path d="M 866.444 1284.36 C 870.358 1286.48 874.064 1288.95 877.775 1291.4 C 895.659 1303.22 914.06 1314.29 931.677 1326.52 C 926.465 1339.23 919.494 1357.39 913.159 1370.1 C 912.518 1371.38 912.277 1371.06 910.4 1371.23 C 887.086 1359.02 864.671 1347.71 842.812 1332.96 C 848.84 1318.67 859.473 1299.06 866.444 1284.36 z" fill="rgb(255,255,255)" transform="translate(0,0)"></path>
<path d="M 1027.07 1790.32 C 1033.71 1793.61 1048.83 1804.17 1055.62 1808.84 C 1077.81 1824.11 1099.24 1839.56 1121.69 1854.56 C 1120.75 1863.68 1121.05 1882.59 1120.92 1892.46 C 1116.84 1892.44 1038.46 1843.71 1027.89 1836.89 C 1026.55 1825.39 1027.08 1802.75 1027.07 1790.32 z" fill="rgb(255,255,255)" transform="translate(0,0)"></path>
<path d="M 1018.41 967.235 C 1033.66 974.959 1068.7 1000.61 1085.43 1011.36 C 1079.66 1025.08 1070.47 1042.83 1063.86 1056.58 L 1062.42 1057.53 C 1040.83 1041.59 1019.84 1026.81 998.074 1011.24 C 1003.87 996.473 1011.44 981.566 1018.41 967.235 z" fill="rgb(255,255,255)" transform="translate(0,0)"></path>
<path d="M 1141.16 699.438 C 1164.05 711.196 1192.1 726.601 1213.52 740.3 C 1206.52 753.283 1199.26 769.959 1192.93 783.557 C 1192.4 784.229 1192.85 783.775 1191.02 785.018 C 1184.28 781.091 1172.22 772.178 1165.4 767.49 C 1151.38 757.864 1137.19 748.493 1122.84 739.381 C 1127.8 726.72 1135.1 711.599 1141.16 699.438 z" fill="rgb(255,255,255)" transform="translate(0,0)"></path>
<path d="M 1027.05 1400.48 C 1034.34 1406.18 1052.75 1425.1 1059.81 1432.14 L 1120.99 1493.35 C 1121.41 1506 1120.82 1520.58 1120.55 1533.38 C 1114.75 1528.99 1098.6 1510.03 1092.72 1503.74 C 1071 1480.37 1049.05 1457.22 1026.87 1434.3 L 1027.05 1400.48 z" fill="rgb(255,255,255)" transform="translate(0,0)"></path>
<path d="M 1104.06 782.454 C 1114.27 788.578 1125.33 796.449 1135.38 803.138 C 1147.24 811.028 1160.73 819.288 1172.01 827.762 C 1166.09 841.141 1159.99 854.441 1153.72 867.658 L 1153.09 868.22 L 1151.58 868.1 C 1138.86 855.723 1103.55 831.655 1087.84 820.631 C 1092.91 807.767 1098.32 795.037 1104.06 782.454 z" fill="rgb(255,255,255)" transform="translate(0,0)"></path>
<path d="M 891.072 1233.7 C 910.939 1248.69 936.564 1265.01 954.812 1279.9 L 937.311 1316.11 C 915.537 1302.15 893.907 1287.97 872.425 1273.57 C 877.13 1261.77 885.448 1245.53 891.072 1233.7 z" fill="rgb(255,255,255)" transform="translate(0,0)"></path>
<path d="M 1034.45 932.232 C 1041.1 935.568 1053.54 944.859 1060.12 949.382 C 1073.61 958.594 1087.18 967.703 1100.81 976.709 C 1098.27 983.712 1093.91 992.696 1090.78 999.65 C 1087.88 999.693 1030.98 960.749 1024.43 956.351 C 1027.3 947.757 1030.73 940.453 1034.45 932.232 z" fill="rgb(255,255,255)" transform="translate(0,0)"></path>
<path d="M 1118.43 749.629 C 1141.68 765.315 1163.71 780.7 1187.63 795.405 L 1177.36 818.602 C 1175.93 817.895 1162.46 807.659 1159.68 805.815 C 1142.78 794.612 1125.81 783.473 1108.96 772.202 C 1111.91 764.339 1115.03 757.276 1118.43 749.629 z" fill="rgb(255,255,255)" transform="translate(0,0)"></path>
<path d="M 947.445 1115.62 C 968.368 1130.27 992.384 1145.2 1012.36 1160.4 C 1010.28 1166.15 1007.12 1174.8 1003.52 1179.63 C 984.737 1165.5 957.095 1148.27 936.719 1136.55 L 947.445 1115.62 z" fill="rgb(255,255,255)" transform="translate(0,0)"></path>
<path d="M 1119.12 1280.85 L 1120.46 1282.14 C 1121.35 1289.49 1120.82 1301.96 1120.77 1309.7 L 1120.76 1354.16 C 1114.09 1346.65 1107.01 1339.05 1100.22 1331.6 L 1076.03 1304.4 C 1089.13 1296.22 1105.25 1288.3 1119.12 1280.85 z" fill="rgb(255,255,255)" transform="translate(0,0)"></path>
<metadata><recraft-signature>{"signed_by": "recraft", "signature_b64": "SE9OcbxBjbSbphMY4lwfuAF548tDmjK1ocFPgu7aExglGyzmFvcSb6/b8Tkn2YOhfZ4K/q6bjEQUFC6H84tJBw==", "signing_algo": "Ed25519", "generation_timestamp": 1765311493, "identifier": "b5f0e28e-1b7b-49f7-9ebb-6aef34967826"}</recraft-signature></metadata></svg>