<svg xmlns="http://www.w3.org/2000/svg" height="1024" preserveAspectRatio="none" style="display: block;" version="1.1" viewBox="0 0 2048 2048" width="1024">
<path d="M 1546.55 97.76 C 1555.99 97.0373 1599.94 100.222 1608.32 104.336 C 1611.97 108.513 1616.76 163.44 1617.44 172.875 C 1635.24 177.327 1652.57 183.49 1669.19 191.276 C 1684.4 178.972 1709.68 152.034 1724.03 142.677 C 1734.84 148.611 1765.72 169.805 1774.12 178.47 C 1766.75 198.542 1754.14 223.585 1745.64 244.484 C 1757.28 254.682 1773.92 274.381 1784.37 286.239 C 1804.57 281.099 1833.43 271.866 1854.32 268.488 C 1856.07 268.206 1857.58 269.738 1858.41 270.612 C 1863.01 275.431 1885.92 320.637 1883.63 323.656 C 1875.98 333.741 1837.88 363.006 1828.06 370.933 C 1832.75 389.987 1834.84 402.463 1837.29 421.946 C 1848.01 424.602 1903.76 434.101 1907.78 439.293 C 1910.73 447.271 1906.81 494.762 1903.29 502.488 C 1898.65 507.217 1841.24 510.841 1831.34 511.832 C 1827.13 529.388 1822.41 544.877 1814.69 561.257 C 1821.95 566.859 1862.66 604.911 1863.8 612.536 C 1861.59 622.209 1839.58 653.241 1831.95 660.386 C 1823.88 658.573 1812.49 654.149 1804.38 651.344 C 1791.2 646.843 1777.99 642.446 1764.74 638.155 C 1753.24 653.185 1740.61 664.233 1726.27 676.203 C 1732.61 698.351 1738.58 720.601 1744.2 742.943 C 1729.61 751.544 1700.94 765.271 1685.13 772.771 C 1672.05 755.006 1658.84 737.337 1645.5 719.764 C 1620.21 726.764 1608.05 729.313 1581.71 730.584 C 1574.65 749.195 1569.49 772.749 1563.24 792.272 C 1550.54 792.296 1534.84 791.211 1522.21 790.066 C 1539.3 821.875 1556 854.892 1568.28 888.907 C 1539.73 921.644 1485.76 960.826 1450.45 986.32 C 1460.07 1034.03 1462.38 1072.45 1460.88 1120.56 C 1481.31 1128.2 1502.57 1138.21 1523.11 1146.25 C 1541.84 1153.58 1561.42 1161.93 1579.88 1169.91 C 1582.57 1171.07 1590.09 1175.45 1590.02 1176.91 C 1589.19 1193.69 1568.63 1290.09 1564.48 1298.83 L 1425.23 1305.38 C 1412.17 1334.88 1402.59 1352.49 1386.67 1380.34 C 1411.59 1370.28 1438.41 1356.09 1464.18 1345.2 C 1468.93 1350.83 1477.15 1364.2 1481.3 1370.61 C 1491.02 1385.48 1500.62 1400.42 1510.1 1415.44 L 1439.6 1485.75 C 1447.6 1505.61 1453.28 1526.32 1456.52 1547.47 C 1486.41 1551.81 1517.5 1558.67 1547.22 1564.34 C 1551.05 1565.07 1556.24 1567.51 1558.23 1571.08 C 1560.59 1583.76 1553.67 1627.6 1553.53 1643.5 C 1553.51 1646.05 1551.93 1649.72 1550.59 1652.04 C 1548.48 1653.83 1546.6 1654.49 1543.87 1654.86 C 1513.59 1659.06 1482.13 1660.41 1451.98 1665.2 C 1447.54 1685.72 1436.75 1710.64 1428.58 1729.87 C 1438.27 1738.9 1488.53 1789.49 1493.5 1797.14 C 1487.91 1806.92 1447 1861.26 1440.15 1862.81 C 1431.44 1864.77 1367.59 1826.32 1355.4 1819.5 C 1336.39 1834.73 1322.07 1842.98 1300.91 1854.17 C 1302.08 1871.57 1309.12 1941.3 1305.93 1952.88 C 1305.1 1955.91 1303.45 1956.94 1300.73 1958.32 C 1293.46 1962.01 1235.43 1977.61 1228.78 1975.18 C 1221.47 1972.51 1190.54 1896.55 1185.21 1884.1 C 1160.69 1886.51 1134.01 1884.66 1109.89 1880.04 C 1095.04 1904.76 1081.24 1930.29 1065.86 1954.68 C 1063.91 1957.77 1061.02 1963.1 1057.11 1963.66 C 1049.83 1964.72 987.218 1942 980.252 1936.36 C 975.943 1928.77 995.817 1854.41 998.994 1840.9 C 987.961 1833.11 977.761 1826.82 966.474 1818.46 C 938.249 1827.16 910.251 1828.26 881.286 1831.08 C 877.168 1831.48 862.15 1838.25 856.596 1840.16 C 853.125 1837.92 851.299 1836.38 848.105 1833.71 C 839.815 1834.28 825.125 1836.38 817.979 1831.68 C 803.23 1821.97 775.832 1699.06 771.136 1675.74 L 752.224 1671.81 C 723.014 1666.82 700.164 1660.08 672.487 1650.01 C 650.937 1672.57 629.546 1695.29 608.314 1718.15 C 600.197 1726.83 573.401 1756.21 565.066 1761.41 C 548.955 1756.32 526.724 1741.24 511.63 1732.56 C 495.064 1723.03 477.075 1714 461.467 1703.02 C 458.818 1701.16 455.255 1698.69 453.895 1695.65 C 452.262 1692 498.105 1571.01 503.546 1555.96 C 462.208 1520.16 445.643 1503.35 412.016 1461.16 C 394.421 1465.94 274.615 1503.4 267.781 1501.57 C 265.216 1498.82 262.47 1494.99 260.797 1491.56 C 246.049 1461.31 231.614 1430.92 216.574 1400.81 C 213.845 1395.35 211.239 1390.13 210.057 1384.1 C 217.703 1374.91 234.43 1361.94 243.933 1353.58 C 268.112 1332.29 293.883 1311.75 317.617 1289.98 C 301.498 1248.44 293.071 1205.85 287.805 1161.83 C 252.29 1150.82 214.978 1143.37 179.405 1132.8 C 171.607 1130.48 139.771 1124.71 139.717 1117.17 C 139.593 1099.96 143.632 1005.73 148.412 997.304 C 160 991.043 273.98 971.087 294.518 968.437 C 300.711 930.16 317.622 887.61 334.264 852.897 C 329.756 846.582 315.617 831.709 309.967 825.479 L 264.509 775.16 C 256.827 766.587 248.579 758.109 241.496 749.041 C 239.061 745.925 237.122 743.566 237.855 739.451 C 238.902 733.57 304.65 643.061 312.232 637.267 C 320.818 636.276 354.104 651.915 364.351 656.254 L 443.797 689.824 C 478.083 653.319 507.016 624.418 551.011 598.936 C 542.311 569.006 533.796 539.023 525.465 508.989 C 523.378 501.388 511.919 466.256 516.876 463.554 C 536.98 452.594 614.833 408.183 633.803 407.038 C 643.106 411.405 712.335 504.154 727.414 520.086 L 728.396 521.112 C 743.424 517.498 758.373 513.252 773.467 510.203 C 797.289 505.391 820.957 503.692 845.162 501.96 C 854.314 475.38 866.402 448.808 876.172 422.394 C 878.697 415.567 897.392 363.399 903.65 364.288 C 922.864 367.017 1016.05 374.883 1026.54 382.639 C 1030.16 389.619 1034.44 502.415 1035.82 520.849 C 1075.03 532.931 1124.59 551.384 1159.61 573.189 C 1193.14 547.899 1228.66 528.62 1260.23 505.154 C 1258.08 493.862 1256.37 481.191 1254.75 469.786 C 1234.67 462.559 1214.03 455.876 1194.58 447.267 C 1185.71 443.34 1189.8 426.946 1190.17 418.937 C 1190.59 409.745 1190.2 390.091 1195.15 383.16 C 1204.76 377.621 1252.65 372.725 1266.25 371.804 C 1271.98 353.601 1275.76 342.354 1283.96 324.95 C 1271.37 307.07 1247.15 282.965 1236.86 266.407 C 1242.45 256.451 1266.36 221.286 1274.34 215.263 C 1278.61 212.048 1334.03 239.697 1342.71 243.783 C 1357.44 231.54 1367.92 222.935 1383.65 211.518 C 1379.36 198.621 1366.44 157.223 1364.2 145.282 C 1362.96 138.627 1416.19 113.989 1424.16 114.482 C 1430 117.262 1463.37 165.792 1469.34 174.125 C 1490.62 167.075 1502.31 166.083 1524.44 164.219 C 1527.78 150.75 1540.26 108.85 1546.55 97.76 z" fill="rgb(24,26,55)" transform="translate(0,0)"></path>
<path d="M 1063.41 1226.96 L 1064.52 1227.08 C 1070.22 1230.89 1103.3 1301.02 1110.87 1313.14 C 1149.67 1309.85 1164.6 1309.45 1204.21 1314.28 C 1214.9 1289.38 1235.89 1251 1249.2 1226.58 C 1270.49 1232.15 1292.39 1238.96 1313.55 1245.24 C 1306.49 1279.15 1301.02 1312.65 1294.29 1346.53 C 1326.43 1364.43 1342.16 1375.65 1368.03 1402.25 C 1393.39 1393.58 1433.19 1373.68 1459.88 1362.52 C 1470.93 1379.54 1481.8 1396.67 1492.49 1413.93 C 1469.91 1437.21 1446.21 1459.67 1423.19 1482.58 C 1436.65 1510.16 1439.9 1529.65 1445.12 1558.83 C 1453.45 1561.04 1469.74 1563.49 1478.83 1565.11 C 1500.91 1568.98 1522.97 1572.97 1545 1577.07 C 1543.86 1597.83 1543.04 1621.69 1540.01 1641.95 C 1509.6 1644.9 1470.68 1648.14 1440.95 1653.1 C 1432.93 1684.84 1426.74 1702.21 1411.5 1731.58 C 1429.93 1747.8 1459.28 1780.13 1477.16 1798.86 C 1465.96 1814.33 1448.82 1834.27 1436.56 1849.46 C 1425.38 1843.97 1411.47 1835.49 1400.41 1829.29 C 1385.46 1820.9 1368.84 1811.95 1354.9 1802.18 C 1332.04 1820.79 1314.97 1833.66 1286.92 1844.8 C 1288.99 1878.76 1291.27 1912.7 1293.76 1946.63 C 1278.8 1952.2 1251.58 1958.06 1235.28 1962.03 C 1230.08 1955.96 1198.48 1880.62 1193.82 1869.12 C 1165.36 1873.9 1129.98 1870.56 1101.93 1864.87 C 1085.15 1892.55 1070.23 1922.11 1052.75 1949.65 C 1034 1942.35 1012.31 1935.09 993.057 1927.95 C 999.531 1897.42 1008.71 1863.05 1013.86 1833.12 C 988.282 1819.65 970.668 1804.57 950.41 1784.62 C 940.105 1788.26 925.63 1795.39 915.509 1800.05 C 896.513 1808.91 877.433 1817.58 858.271 1826.07 C 848.212 1814.63 829.034 1786.25 819.519 1772.97 C 844.075 1749.62 871.902 1730.36 896.722 1704.74 C 887.478 1686.58 880.263 1657.43 875.933 1637.47 C 848.488 1629.41 803.843 1619.81 775.655 1614.53 C 776.121 1594.12 777.772 1572.98 778.423 1552.33 C 811.064 1548.6 843.856 1542.51 876.563 1538.66 C 881.566 1515.39 889.415 1492.83 899.935 1471.48 C 877.065 1445.57 853.493 1419.84 831.21 1393.43 C 845.218 1377.45 857.99 1360.5 872.456 1344.54 C 896.609 1357.04 928.49 1377.76 953.133 1392.18 C 962.779 1384.52 971.623 1376.11 981.701 1368.46 C 995.146 1358.24 1005.47 1352.4 1020 1344.27 C 1014.75 1312.13 1008.92 1280.1 1002.52 1248.17 L 1063.41 1226.96 z" fill="rgb(255,255,255)" transform="translate(0,0)"></path>
<path d="M 1144.69 1348.58 C 1279.57 1341.14 1394.94 1444.45 1402.39 1579.33 C 1409.83 1714.21 1306.52 1829.59 1171.64 1837.03 C 1036.76 1844.48 921.372 1741.17 913.93 1606.28 C 906.488 1471.39 1009.81 1356.01 1144.69 1348.58 z" fill="rgb(24,26,55)" transform="translate(0,0)"></path>
<path d="M 1138.06 1362.84 C 1265.19 1351.74 1377.22 1445.89 1388.18 1573.03 C 1399.14 1700.18 1304.87 1812.11 1177.71 1822.93 C 1050.75 1833.73 939.036 1739.64 928.094 1612.69 C 917.151 1485.74 1011.12 1373.92 1138.06 1362.84 z" fill="rgb(255,255,255)" transform="translate(0,0)"></path>
<path d="M 1231.35 1412.64 C 1234.51 1415.37 1228.78 1437.35 1227.74 1442.33 C 1259.68 1459.9 1282.08 1477.26 1301.99 1508.98 C 1325.36 1546.21 1331.07 1593.46 1320.73 1636 C 1309.97 1679.13 1282.47 1716.19 1244.3 1738.98 C 1202.44 1764.13 1155.52 1765.25 1109.29 1753.76 C 1104.6 1759.39 1088.08 1786.43 1082.47 1785.82 L 1081.45 1782.81 C 1084.77 1770.12 1089 1758.66 1093.38 1746.31 C 1058.45 1728.78 1028.35 1705.48 1009.49 1670.43 C 988.038 1630.74 983.418 1584.1 996.671 1540.97 C 1009.48 1499.67 1038.24 1465.19 1076.57 1445.17 C 1119.76 1422.58 1168.26 1421.33 1214.31 1435.81 C 1219.94 1426.2 1223.42 1420.4 1231.35 1412.64 z" fill="rgb(24,26,55)" transform="translate(0,0)"></path>
<path d="M 1146.11 1439.42 C 1168.12 1438.19 1185.31 1440.82 1206.52 1446.66 C 1184.03 1477.97 1161.21 1509.05 1138.08 1539.89 C 1118.96 1565.38 1097.89 1592.39 1079.9 1618.45 C 1101.24 1618.8 1122.25 1616.9 1143.14 1617.44 C 1129.95 1646.51 1117.41 1681.88 1106.02 1712.04 C 1103.41 1719.04 1100.74 1726.02 1098 1732.98 C 1082.55 1725.25 1072.04 1719.77 1058.46 1708.63 C 1027.34 1683.19 1007.54 1646.48 1003.4 1606.5 C 994.846 1517.71 1058.41 1446.89 1146.11 1439.42 z" fill="rgb(255,255,255)" transform="translate(0,0)"></path>
<path d="M 1221.36 1453.54 C 1242.46 1465.57 1259.23 1475.88 1274.98 1494.65 C 1302.89 1527.89 1315.76 1566.19 1311.75 1609.57 C 1307.81 1650.37 1287.85 1687.94 1256.25 1714.04 C 1223.33 1741.33 1187.63 1750.72 1145.76 1746.78 C 1134.41 1745.52 1126.97 1744.4 1116.14 1740.83 C 1128.11 1721.41 1144.5 1700.74 1157.85 1681.86 C 1187.5 1639.92 1219.57 1597.73 1247.88 1554.92 C 1230.75 1554.71 1205.03 1557.37 1187.05 1558.29 C 1197.94 1523.52 1210.04 1488.29 1221.36 1453.54 z" fill="rgb(255,255,255)" transform="translate(0,0)"></path>
<path d="M 1204.61 1467.81 C 1204.97 1473.12 1175.2 1559.85 1171.46 1571.04 C 1189.65 1570.09 1208.65 1568.04 1226.95 1566.75 L 1129.49 1703.29 C 1126.66 1707.32 1111.17 1732.13 1108.92 1733.03 C 1115.75 1712.4 1128.6 1682.86 1137.1 1662.24 C 1144.84 1643.4 1152.05 1624.34 1158.72 1605.09 C 1139.02 1604.77 1117.82 1606.6 1097.83 1607.07 C 1110.48 1593.66 1123.87 1575.59 1135.29 1560.8 C 1158.71 1530.04 1181.82 1499.04 1204.61 1467.81 z" fill="rgb(255,255,255)" transform="translate(0,0)"></path>
<path d="M 909.164 378.569 C 940.31 380.627 982.783 388.122 1014.85 392.267 C 1016.6 434.766 1018.94 488.809 1022.53 530.557 C 1034.22 535.767 1058.69 542.574 1072.16 547.503 C 1102.6 558.871 1131.95 572.954 1159.87 589.58 C 1167.8 585.44 1180.19 575.183 1188.16 569.85 C 1206.35 557.686 1225.01 544.514 1243.79 533.356 C 1231.54 543.524 1219.45 553.884 1207.53 564.433 C 1210.84 575.744 1228.2 610.735 1235.33 620.158 C 1257.21 618.351 1289.52 612.736 1311.74 609.409 C 1318.96 618.659 1328.83 630.237 1336.82 638.645 C 1330.56 653.46 1325.96 670.641 1318.71 684.321 C 1317.36 686.878 1308.11 697.188 1305.01 701.533 L 1304.29 702.563 C 1313.73 717.003 1326.35 730.326 1335.83 744.242 C 1351.92 767.854 1366.87 793.816 1380.48 818.886 C 1424.66 812.031 1469.99 809.935 1514.13 804.35 C 1528.49 827.688 1542.41 861.523 1552.69 886.812 C 1535.17 899.875 1516.39 918.199 1499.14 932.429 C 1478.3 949.631 1457.19 963.748 1436.18 980.039 C 1436.75 987.206 1438.19 995.654 1439.58 1002.73 C 1447.94 1045.38 1448.23 1085.71 1446.69 1128.88 C 1486.31 1148.17 1534.05 1164.1 1575.78 1183.97 C 1571.15 1214.34 1561.15 1255.36 1554.45 1286.21 C 1508.25 1287.83 1462.07 1289.89 1415.91 1292.37 C 1413.64 1296.33 1411.26 1302.1 1409.45 1306.4 C 1398.03 1333.5 1384.33 1358.07 1368.36 1382.73 C 1358.19 1373.57 1348.6 1365.12 1337.72 1356.81 C 1406.71 1228.53 1422.51 1078.26 1381.7 938.431 C 1341.98 800.138 1248.48 683.54 1122.12 614.723 C 1002.71 549.684 853.453 537.888 723.621 576.19 C 589.574 615.184 476.341 705.523 408.55 827.562 C 334.38 964.151 322.583 1110.6 366.582 1258.85 C 412.833 1409.72 525.023 1531.46 671.615 1589.86 C 701.904 1601.66 731.804 1609.09 762.891 1618.1 C 763.371 1618.24 768.282 1626.68 770.842 1627.29 C 801.947 1634.74 833.493 1640.76 864.498 1648.71 C 869.08 1661.57 875.276 1688.1 879.825 1702.92 C 856.55 1723.58 830.161 1744.48 807.908 1765.86 C 796.801 1732.47 788.947 1697.51 782.179 1663.02 C 738.09 1656.09 710.345 1649.95 668.893 1633.74 C 657.051 1644.5 641.402 1662.08 630.231 1674.01 C 607.887 1698.06 585.404 1721.99 562.783 1745.78 C 531.898 1727.5 499.961 1709.69 468.834 1691.48 C 473.887 1675.28 483.693 1651.55 489.87 1635.11 C 500.502 1607.07 510.544 1578.8 519.989 1550.33 C 514.877 1545.5 505.815 1538.64 500.084 1533.81 C 489.436 1524.76 479.151 1515.3 469.254 1505.43 C 445.688 1482.07 438.246 1469.45 418.223 1445.14 C 373.874 1457.22 317.475 1473.21 274.279 1487.56 C 258.454 1455.55 241.252 1420.4 226.544 1388.11 C 249.811 1366.42 274.905 1345.98 298.921 1325.09 C 310.125 1315.34 325.091 1303.86 335.177 1293.35 C 314.837 1244.64 305.487 1204.4 300.575 1151.46 C 288.582 1146.7 263.59 1140.78 250.274 1137.22 C 217.806 1128.45 185.275 1119.93 152.683 1111.64 C 153.281 1080.48 157.355 1038.29 159.624 1006.56 C 191.698 1001.44 223.673 995.732 255.535 989.428 C 270.779 986.535 291.39 983.364 306.026 979.517 C 316.722 928.105 329.652 897.379 350.795 850.082 C 343.78 841.006 332.092 829.212 324.061 820.165 C 300.508 793.406 276.492 767.057 252.026 741.13 C 273.886 711.452 295.459 681.565 316.741 651.47 C 358.894 666.947 405.222 689.793 447.512 707.021 C 453.56 701.414 461.075 692.069 467.112 685.746 C 480.684 671.783 494.894 658.455 509.698 645.806 C 519.294 637.754 529.276 630.171 539.607 623.086 C 548.057 617.324 560.053 609.924 567.5 603.406 C 553.701 559.855 542.08 515.004 528.774 471.101 C 562.446 455.733 595.949 436.804 629.494 421.711 C 649.352 445.438 668.18 468.729 687.435 492.905 C 696.498 504.283 714.719 527.431 724.415 536.637 C 740.749 532.695 755.313 528.203 772.163 524.63 C 801.447 518.421 824.916 517.29 854.442 515.745 C 861.091 500.954 867.789 482.443 873.766 467.135 C 885.156 437.451 896.957 407.926 909.164 378.569 z" fill="rgb(255,255,255)" transform="translate(0,0)"></path>
<path d="M 1554.6 110.826 C 1568.35 112.831 1584.32 113.21 1598.68 114.829 C 1599.57 136.284 1602.62 162.17 1604.15 184.214 C 1627.15 187.749 1651.53 197.894 1672.48 208.102 C 1688.41 191.517 1707.44 174.443 1724.3 158.415 C 1733.45 163.552 1749.91 175.449 1758.9 181.807 C 1748.85 203.642 1738.59 225.383 1728.14 247.027 C 1746.36 262.087 1764.16 282.886 1777.75 302.026 C 1801.85 296.467 1827.07 286.937 1850.73 282.135 C 1856.83 293.214 1864.44 309.291 1869.17 320.888 C 1849.71 334.649 1831.53 351.947 1811.42 365.322 C 1819.86 384.642 1822.97 412.015 1825.15 433.303 C 1831.88 435.369 1844.17 437.338 1851.43 438.786 C 1866.04 441.774 1880.64 444.841 1895.22 447.989 C 1895.01 462.082 1893.65 478.537 1892.75 492.749 C 1869.4 495.585 1844.11 497.55 1820.6 499.676 C 1813.81 527.098 1811.15 538.056 1799.16 563.669 C 1815.34 580.822 1832.52 595.2 1848.73 613.456 C 1842.33 624.506 1835.48 635.073 1828.61 645.827 C 1809.28 639.374 1779.66 627.34 1760.92 623.063 C 1742.74 645.055 1732.75 652.854 1711.41 670.513 C 1716.39 692.034 1723.02 714.279 1728.29 736.161 C 1716.23 743.173 1702.6 749.619 1690 755.844 C 1681.21 745.259 1673.4 734.257 1665.16 723.286 C 1660.94 717.66 1654.96 708.642 1650.04 704.008 C 1621.59 714.484 1601.68 717.317 1572.04 717.198 C 1565.65 732.59 1558.03 760.799 1552.7 777.726 C 1549.5 779.65 1517.94 775.288 1511.39 774.552 C 1506.38 752.413 1500.52 734.254 1497.67 711.567 C 1469.09 705.439 1452.36 699.493 1426.48 687.147 C 1416.79 696.892 1382.89 717.134 1368.85 728.41 C 1361.47 723.839 1350.69 715.373 1343.18 710.046 C 1350.21 690.692 1357.2 664.262 1363.46 643.754 C 1347.1 629.727 1330.84 611.272 1316.95 594.896 C 1295.24 598.845 1263.18 602.626 1240.94 605.393 C 1235.15 593.021 1229.49 580.586 1223.96 568.092 C 1241.85 551.989 1260.85 536.738 1279.08 520.394 C 1273.76 500.024 1269.02 480.913 1268.7 459.663 C 1246.63 452.32 1224.67 444.672 1202.82 436.721 C 1202.87 422.367 1204 407.648 1205.13 393.325 C 1223.11 389.659 1257.85 385.871 1276.46 383.95 C 1279.82 366.56 1292.65 337.626 1300.95 321.399 C 1287.91 309.128 1264.65 280.023 1253.17 265.971 C 1260.68 254.368 1270.34 241.53 1278.36 229.814 C 1297.19 236.683 1326.67 250.83 1346.03 259.263 C 1367.47 239.592 1375.67 233.144 1400.18 217.678 C 1392.45 194.649 1385.15 171.479 1378.28 148.18 C 1392.49 142.669 1405.68 135.727 1419.28 128.903 C 1434.09 146.096 1451.14 174.646 1464.38 188.593 C 1488.08 181.093 1511.2 177.865 1535.88 176.423 C 1540.44 155.883 1548.46 131.247 1554.6 110.826 z" fill="rgb(255,255,255)" transform="translate(0,0)"></path>
<path d="M 1539.89 194.222 C 1679.74 191.143 1795.51 302.243 1798.17 442.108 C 1800.84 581.974 1689.4 697.409 1549.53 699.666 C 1410.24 701.913 1295.39 591.036 1292.73 451.751 C 1290.07 312.467 1400.61 197.289 1539.89 194.222 z" fill="rgb(24,26,55)" transform="translate(0,0)"></path>
<path d="M 1529.87 208.043 C 1662 199.372 1776.08 299.551 1784.57 431.685 C 1793.05 563.818 1692.71 677.765 1560.57 686.06 C 1428.68 694.339 1315.02 594.244 1306.55 462.375 C 1298.08 330.507 1398.02 216.697 1529.87 208.043 z" fill="rgb(255,255,255)" transform="translate(0,0)"></path>
<path d="M 1520.59 243.958 C 1632.49 230.973 1733.67 311.285 1746.42 423.205 C 1759.17 535.126 1678.65 636.14 1566.7 648.656 C 1455.09 661.136 1354.44 580.902 1341.72 469.312 C 1329.01 357.723 1409.03 256.905 1520.59 243.958 z" fill="rgb(24,26,55)" transform="translate(0,0)"></path>
<path d="M 1538.64 257.43 C 1575.81 256.239 1611.54 267.244 1643.54 285.742 C 1685.93 310.594 1716.8 351.166 1729.46 398.648 C 1742.65 449.007 1736.8 497.798 1710.36 542.756 C 1685.1 585.144 1644.09 615.817 1596.29 628.079 C 1556.04 638.514 1496.2 634.843 1460.36 613.878 C 1471.09 603.684 1481.51 593.671 1490.96 582.256 C 1508.33 588.47 1526.53 592.057 1544.96 592.897 C 1581.77 594.467 1617.69 581.27 1644.73 556.238 C 1671.03 532.065 1690.64 493.5 1691.74 457.52 C 1693.08 413.579 1676.36 379.65 1647.24 348.146 C 1633.3 335.25 1622.25 327.447 1605.57 318.508 C 1608.86 308.15 1619.5 287.239 1618.29 278.224 L 1616.75 277.474 C 1609.31 281.235 1592.8 302.946 1586.09 310.632 C 1521.19 292.149 1449.6 314.411 1414.99 374.291 C 1395.38 407.641 1390.19 447.534 1400.61 484.792 C 1410.73 521.179 1438.41 555.644 1471.27 573.999 C 1466.59 586.484 1461.69 600.161 1455.1 611.641 C 1441.92 605.372 1426.03 593.787 1415.11 584.147 C 1376.32 549.901 1354.44 506.671 1351.34 454.958 C 1348.79 406.525 1365.66 359.073 1398.21 323.117 C 1434.94 281.842 1484.01 260.491 1538.64 257.43 z" fill="rgb(255,255,255)" transform="translate(0,0)"></path>
<path d="M 1601.7 330.769 C 1662.18 367.108 1695.39 428.533 1668.92 498.977 C 1654.82 536.512 1620.04 565.755 1581.85 576.3 C 1560.82 582.111 1540.7 580.761 1519.24 576.492 C 1512.86 574.761 1506.4 573.3 1499.96 571.784 C 1527.18 535.442 1558.36 500.963 1586.01 464.85 C 1601 445.268 1616.2 425.879 1631.99 406.928 C 1612.37 405.855 1592.5 407.082 1572.65 406.259 C 1582.49 382.762 1592.44 354.798 1601.7 330.769 z" fill="rgb(255,255,255)" transform="translate(0,0)"></path>
<path d="M 1536.36 316.42 C 1550.62 315.871 1562.16 318.13 1575.7 321.964 C 1544.26 367.362 1502.09 414.844 1469.06 461.011 C 1487.37 461.713 1505.34 460.981 1524.34 461.895 C 1511.34 488.656 1498.55 515.516 1485.97 542.472 L 1476.38 562.19 C 1469.11 557.064 1461.38 551.832 1454.8 545.868 C 1364.94 464.456 1413.55 324.292 1536.36 316.42 z" fill="rgb(255,255,255)" transform="translate(0,0)"></path>
<path d="M 1587.77 325.894 L 1588.48 326.9 C 1588.19 334.215 1557.97 408.788 1553.77 418.839 C 1571.64 419.159 1589.53 419.308 1607.41 419.287 C 1583.26 450.772 1557.19 482.823 1531.93 513.44 C 1518.36 529.891 1502.54 551.611 1488.04 566.412 L 1486.65 565.546 C 1487.53 556.246 1537.62 463.026 1544.29 450.856 C 1530.06 448.72 1508.18 450.311 1492.4 449.461 C 1501.15 435.517 1521.17 410.24 1531.48 396.905 C 1549.43 373.701 1568.88 348.017 1587.77 325.894 z" fill="rgb(255,255,255)" transform="translate(0,0)"></path>
<path d="M 860.745 568.447 C 942.082 564.508 1027.34 584.302 1100.28 619.799 C 1222.14 680.321 1315.16 786.516 1359.11 915.276 C 1400.26 1032.6 1399.72 1160.53 1357.59 1277.51 C 1347.91 1304.43 1338.26 1324.17 1325.82 1349.59 L 1309.69 1338.8 C 1312.28 1327.38 1329.13 1243.7 1325.98 1238.06 C 1315.83 1229.74 1267.57 1217.92 1252.83 1214.05 C 1272.89 1136.16 1277.53 1071.85 1259.21 992.206 C 1238.9 905.718 1191.08 828.156 1122.92 771.179 C 1101.87 753.845 1081.86 741.601 1058.8 727.149 C 1065.83 710.703 1075.95 696.308 1082.66 679.891 C 1083.66 676.794 1082.64 672.249 1080.62 669.708 C 1070.74 657.304 1055.34 677.328 1048.74 683.088 C 1037.85 692.595 1027.56 704.748 1016.17 712.973 C 931.675 681.391 838.981 679.327 753.164 707.116 C 651.452 739.574 567.085 811.604 519.083 906.97 C 427.703 1084.37 482.368 1297.65 643.102 1414.24 C 639.484 1419.79 623.992 1440.59 626.832 1447.07 C 638.311 1473.24 656.729 1439.33 664.183 1428.6 C 732.333 1470.57 793.756 1491.32 872.656 1502.76 C 869.34 1511.24 867.862 1517 865.584 1525.9 C 848.969 1528.45 776.224 1536.6 767.366 1544.04 C 763.016 1552.64 763.152 1590.85 762.877 1602.31 C 668.692 1580.62 593.7 1545.37 522.35 1479.54 C 419.793 1383.92 359.667 1251.31 355.332 1111.16 C 349.939 975.813 398.26 837.42 490.467 737.654 C 585.989 633.577 719.538 572.549 860.745 568.447 z" fill="rgb(255,255,255)" transform="translate(0,0)"></path>
<path d="M 851.484 702.587 C 903.571 699.19 955.795 706.648 1004.85 724.489 C 941.819 786.332 878.002 847.369 813.415 907.584 C 766.689 951.154 719.671 994.339 672.876 1037.86 C 667.69 1039.17 663.708 1054.2 668.804 1056.44 C 682.779 1062.59 730.952 1064.19 745.011 1065.25 L 840.503 1073.09 C 826.675 1100.01 809.82 1128.74 794.781 1155.26 C 767.67 1203.53 740.037 1251.5 711.888 1299.17 C 692.273 1334.04 671.669 1368.35 650.102 1402.04 C 641.603 1396.26 628.993 1385.7 621.215 1378.87 C 544.256 1312.54 497.301 1217.98 490.976 1116.58 C 483.664 1012.65 518.438 910.148 587.475 832.123 C 655.032 755.923 749.876 709.388 851.484 702.587 z" fill="rgb(255,255,255)" transform="translate(0,0)"></path>
<path d="M 1050.42 739.428 C 1140.6 790.9 1210.49 874.771 1239.28 975.063 C 1258.12 1041.08 1260.68 1110.68 1246.75 1177.9 C 1245.03 1186.51 1239.04 1213.77 1235.8 1220.88 C 1224.13 1246.45 1208.5 1274.82 1194.89 1299.45 C 1162.91 1296.39 1150.52 1296.64 1118.65 1299.22 C 1110.99 1284.67 1081.78 1221.62 1073.33 1214.28 C 1070.92 1212.19 1067.96 1212.44 1065.01 1212.9 C 1053.69 1214.65 1010.03 1230.28 999.615 1235.21 C 996.492 1236.69 992.604 1238.74 990.641 1241.69 C 987.185 1246.88 1002.96 1324.73 1005.2 1335.9 C 984.482 1348.31 970.097 1359.5 951.64 1374.7 C 939.054 1367.77 876.552 1328.58 868.672 1329.42 C 861.283 1333.85 819.292 1385.82 815.245 1393.15 C 820.211 1403.69 857.901 1445.28 867.722 1456.39 L 884.039 1474.91 C 881.934 1479.4 879.095 1484.14 876.638 1488.5 C 807.222 1479.46 731.214 1455.91 672.83 1416.4 C 682.685 1404.62 696.879 1390.66 707.693 1379.5 L 776.04 1309.71 C 856.267 1227.41 937.085 1145.68 1018.48 1064.53 C 1036.59 1046.23 1054.88 1028.12 1073.36 1010.2 C 1081.21 1002.52 1100.57 984.669 1105.93 976.015 C 1105.94 967.838 1104.04 962.719 1094.65 962.681 C 1044.91 962.484 994.181 966.936 944.524 964.235 C 952.572 944.652 962.307 924.161 970.95 904.668 C 995.243 848.558 1021.75 793.434 1050.42 739.428 z" fill="rgb(255,255,255)" transform="translate(0,0)"></path>
<path d="M 1017.67 745.978 C 1016.82 752.227 996.242 794.327 992.631 801.961 C 971.188 847.302 950.247 892.879 929.811 938.682 C 925.38 948.576 920.107 958.128 915.796 968.09 C 912.65 975.359 912.488 980.365 918.178 986.237 C 929.518 990.403 1044.02 987.591 1063.72 986.359 C 1037.42 1014.61 1005.69 1044.7 978.107 1072.07 L 857.307 1193.74 L 755.005 1297.37 C 748.036 1304.38 741.129 1311.29 734.328 1318.46 C 729.297 1323.77 724.28 1330.21 718.816 1334.88 C 719.054 1332.01 720.463 1330.62 722.129 1327.94 C 738.664 1301.21 869.465 1074.31 870.807 1063.92 C 871.362 1059.62 869.197 1056.38 866.675 1053.21 C 856.773 1048.68 729.857 1041.13 705.047 1039.28 C 712.974 1030.99 725.319 1020.13 733.976 1012.18 L 792.59 958.476 C 840.402 914.324 887.771 869.696 934.691 824.597 C 962.395 798.426 990.59 772.882 1017.67 745.978 z" fill="rgb(255,255,255)" transform="translate(0,0)"></path>
<path d="M 1427.46 703.676 C 1431.34 704.413 1441.32 708.87 1445.55 710.522 C 1458.42 715.547 1470.68 720.263 1484.43 722.448 C 1490.68 744.998 1498.78 765.966 1495.59 788.945 C 1499.43 788.88 1504.84 788.432 1508.31 789.618 L 1507.95 790.627 C 1503.34 792.209 1479.72 793.93 1472.91 794.589 C 1450.32 796.776 1427.75 799.154 1405.2 801.725 C 1399.68 802.506 1393.59 803.078 1388.01 803.7 C 1370.51 769.814 1360.1 754.425 1338.59 723.181 C 1347.93 730.739 1358.48 738.499 1368.09 745.842 C 1387.35 730.959 1408.15 719.064 1427.46 703.676 z" fill="rgb(255,255,255)" transform="translate(0,0)"></path>
<path d="M 1340.18 664.331 L 1342.44 666.123 C 1337.57 682.193 1333.97 695.554 1330.47 711.905 L 1322.23 702.88 C 1335.07 687.116 1334.96 683.651 1340.18 664.331 z" fill="rgb(255,255,255)" transform="translate(0,0)"></path>
<path d="M 946.941 1799.95 C 948.446 1800.95 953.231 1805.86 954.8 1807.4 C 944.939 1809.08 935.093 1810.86 925.265 1812.73 L 921.424 1813.15 L 921.275 1812.45 C 926.427 1808.85 940.607 1802.84 946.941 1799.95 z" fill="rgb(255,255,255)" transform="translate(0,0)"></path>
<path d="M 814.896 1789.83 C 817.158 1791.95 828.579 1809.27 830.649 1812.65 L 829.954 1813.81 C 827.479 1815.44 827.354 1815.85 824.502 1816.26 C 821.134 1809.97 817.118 1797.05 814.896 1789.83 z" fill="rgb(255,255,255)" transform="translate(0,0)"></path>
<path d="M 1346.8 645.862 C 1345.62 653.592 1344.44 658.524 1342.44 666.123 L 1340.18 664.331 C 1342.3 658.347 1344.5 651.716 1346.8 645.862 z" fill="rgb(213,211,221)" transform="translate(0,0)"></path>
<metadata><recraft-signature>{"signed_by": "recraft", "signature_b64": "WECXfys1kGuDCPDDSTp4P8xivWsf+i81Rmm46zqsO/0Qrf6fXDfA7ajW7P00ZHtdNMBDA2BuufRkUeMng50ADA==", "signing_algo": "Ed25519", "generation_timestamp": 1765311533, "identifier": "1c4b4f13-5121-4323-975e-94b61ba12ca3"}</recraft-signature></metadata></svg>