<svg xmlns="http://www.w3.org/2000/svg" height="1024" preserveAspectRatio="none" style="display: block;" version="1.1" viewBox="0 0 2048 2048" width="1024">
<path d="M 1339.65 80.2287 C 1368.16 78.5889 1369.34 109.365 1372.35 130.782 C 1381.46 192.221 1378.07 254.866 1362.37 314.96 C 1326.75 448.281 1222.16 558.75 1073.8 519.293 C 1056.1 538.941 1037.87 570.261 1024.56 593.029 C 986.613 657.901 950.228 741.947 930.7 814.675 C 955.752 799.115 993.894 788.276 1022.77 780.932 C 1044.77 775.34 1070.99 774.094 1093.61 771.681 C 1094.42 770.696 1095.24 769.723 1096.07 768.761 C 1183.9 667.09 1317.78 664.884 1420.33 746.765 C 1493.9 805.516 1540.22 889.208 1577.19 974.262 C 1583.12 987.898 1591.01 1006.46 1593.26 1021.4 C 1594.29 1052.92 1557.81 1047.29 1540.5 1047.25 C 1528.18 1047.23 1515.87 1047.93 1503.63 1049.33 C 1439.89 1056.64 1381.34 1072.56 1316.95 1069.63 C 1245.17 1066.36 1179.06 1039.57 1130.17 985.793 C 1100.27 952.898 1075.56 905.93 1070.42 861.463 C 1068.9 848.315 1069.54 837.545 1070.18 824.477 C 1017.47 828.511 949.946 848.472 910.557 883.923 C 904.808 902.505 899.271 942.504 897.207 961.964 C 892.826 1002.22 891.698 1042.76 893.835 1083.19 C 899.579 1185.76 931.031 1310.29 964.628 1407.09 C 969.323 1387.39 975.138 1367.96 982.042 1348.92 C 1007.33 1280.34 1072.19 1200.77 1139.36 1169.84 C 1093.08 1222 1054.05 1308.39 1035.08 1374.99 C 1030.18 1392.18 1023.2 1413.49 1019.95 1430.77 C 1017.14 1445.75 1017.23 1464.84 1014.62 1481.02 L 1014.32 1482.84 C 1023.9 1460.45 1028.04 1448.18 1044.62 1429.98 C 1083.71 1387.08 1131.43 1379.71 1186.09 1383.22 C 1136.26 1408.6 1107.03 1444.68 1084.06 1494.31 C 1077.16 1509.23 1071.13 1521.03 1065.72 1536.92 C 1074.73 1534.86 1083.99 1531.48 1093.23 1530.09 C 1146.34 1522.09 1175.15 1543.1 1215.17 1571.24 C 1278.46 1553.4 1330 1588.15 1390.16 1596.79 C 1409.97 1599.64 1438.43 1588.47 1460.92 1588.62 C 1516.5 1588.99 1568.87 1624.53 1606.74 1662.06 C 1629.04 1660.96 1653.71 1660.42 1676 1664.03 C 1732.24 1673.14 1784.35 1703.31 1823.85 1743.91 C 1833.9 1754.24 1842.99 1767.15 1851.45 1778.79 C 1879.61 1760.43 1911.48 1778.28 1930.65 1800.77 C 1919.06 1796.16 1900.08 1789.64 1887.59 1788.38 C 1872.89 1786.9 1863.14 1800.4 1853.34 1808.92 C 1830.88 1813.99 1812.98 1812.3 1789.08 1821.1 C 1748.38 1836.07 1713.85 1854.81 1670.64 1862.88 C 1651.79 1866.22 1632.64 1867.56 1613.5 1866.87 C 1593.83 1866.32 1573.01 1864.08 1553.78 1868.01 C 1536.47 1871.55 1519.4 1879.74 1502.54 1885.3 C 1481.39 1892.28 1460.51 1895.37 1438.65 1898.3 C 1402.42 1903.16 1363.74 1896.73 1328.29 1899.35 C 1294.14 1901.88 1263.3 1913.32 1227.17 1913.72 C 1202.23 1914 1180.71 1909.33 1156.98 1910.51 C 1143.55 1911.18 1122.1 1924.02 1108.62 1928.21 C 1073.77 1939.04 1037.95 1943.19 1001.75 1943.03 C 985.808 1943.16 969.872 1942.36 954.024 1940.62 C 941.16 1939.13 921.476 1935.55 909.143 1936.32 C 897.917 1937.02 881.082 1942.57 869.028 1944.78 C 838.583 1950.37 811.906 1951.36 781.205 1949.85 C 763.441 1948.81 745.804 1946.2 728.501 1942.05 C 716.204 1939.14 689.458 1931.23 678.261 1931.43 C 667.929 1931.62 643.378 1938.7 631.698 1941.3 C 594.647 1949.84 557.307 1951.41 519.559 1947.93 C 488.127 1945.03 460.501 1934.77 430.105 1927.94 C 419.718 1926.64 408.16 1925.87 397.749 1925.55 C 355.236 1924.24 315.959 1915.39 276.778 1898.3 C 233.658 1879.48 195.403 1885.96 151.027 1896.32 C 166.473 1883.18 174.571 1878.9 192.977 1870.77 C 176.59 1866.21 159.394 1865.36 142.637 1868.27 C 135.635 1869.53 113.535 1877.35 109.19 1876.1 L 109.291 1874.73 C 114.095 1869.51 127.296 1862.11 134.086 1858.59 C 158.777 1845.81 178.59 1845.64 204.4 1853.27 C 213.865 1827.88 227.482 1807.6 245.571 1787.34 C 281.997 1746.34 330.893 1718.46 384.724 1707.99 C 398.886 1705.35 419.526 1703.86 432.181 1699.18 C 437.602 1697.18 452.499 1681.78 458.128 1676.71 C 498.779 1640.09 533.346 1619.5 588.932 1616.16 C 610.963 1597.34 622.732 1580.69 649.72 1564.39 C 687.679 1541.48 735.937 1529.35 779.631 1539.67 C 757.36 1521.3 736.153 1500.06 713.575 1481.47 C 667.063 1443.16 623.171 1416.32 565.921 1397.04 C 539.928 1388.28 528.669 1383.94 500.693 1379.59 C 538.691 1371.19 561.901 1366.43 600.946 1366.88 C 702.408 1368.07 751.35 1398.78 819.374 1466.49 C 786.041 1415.52 721.828 1352.36 669.695 1320.47 C 644.39 1304.98 625.899 1297.16 599.533 1284.67 C 604.474 1285.05 609.403 1285.58 614.314 1286.25 C 708.88 1299.12 816.984 1350.59 875.325 1427.66 L 874.94 1426.88 C 861.784 1399.73 845.933 1348.88 838.008 1319.68 C 793.628 1157.86 795.17 986.876 842.461 825.878 C 850.724 797.242 862.047 765.727 872.985 738.081 C 880.54 718.986 891.468 698.765 898.254 679.336 C 895.243 663.718 892.112 652.715 887.353 637.788 C 853.112 655.357 818.882 669.743 780.383 675.159 C 705.682 685.669 632.924 667.585 572.709 621.784 C 513.725 576.919 483.207 509.46 463.222 439.992 C 455.819 414.257 450.714 387.553 438.455 363.517 C 434.366 355.501 429.379 347.504 423.448 340.714 C 415.004 331.047 395.663 322.01 394.367 308.211 C 393.875 302.97 396.204 297.61 399.549 293.682 C 413.891 276.846 517.346 247.407 542.913 241.537 C 564.577 236.365 586.566 232.66 608.73 230.449 C 633.89 228.045 654.353 228.938 679.584 230.882 C 829.713 242.445 978.823 393.247 946.568 549.354 C 943.153 565.885 940.38 577.882 929.206 591.234 C 930.907 596.768 933.064 602.338 935.065 607.786 C 969.722 553.457 994.596 512.264 1040.67 464.739 C 1024.77 404.337 1032.01 345.463 1057.54 287.886 C 1098.05 196.564 1182.18 133.239 1274.56 100.198 C 1296.09 92.4964 1316.98 84.366 1339.65 80.2287 z" fill="rgb(44,42,43)" transform="translate(0,0)"></path>
<path d="M 1107.49 1554.41 C 1151.78 1551.84 1177.65 1575.39 1209.56 1599.4 C 1278.72 1574.57 1324.56 1615.37 1389.24 1621.79 C 1419.63 1624.81 1459.96 1606.69 1496.7 1619.31 C 1523.99 1628.69 1541.58 1640.5 1564.55 1658.65 C 1571.3 1663.24 1590.15 1683.88 1596.73 1684.7 C 1619.02 1687.47 1644.97 1684.91 1667.56 1688.37 C 1732.67 1698.37 1790.79 1739.12 1828.81 1791.71 C 1821.51 1793.12 1813.72 1794.34 1806.36 1795.62 C 1805.71 1794.97 1805.06 1794.32 1804.4 1793.68 C 1787.64 1777.45 1768.62 1764.86 1746.97 1756.4 C 1741.85 1754.4 1736.8 1751.66 1731.28 1751.71 L 1730.34 1752.87 C 1734.02 1756.04 1738.57 1758.06 1742.86 1760.36 C 1762.31 1770.76 1777.59 1784.42 1793.72 1799.22 C 1783.97 1801.38 1769.75 1805.22 1760.38 1808.36 C 1759.84 1807.86 1759.29 1807.37 1758.73 1806.89 C 1744.58 1794.56 1700.92 1766.59 1682.29 1767.88 C 1682.62 1770.69 1691.44 1774.85 1694.18 1776.21 C 1715.05 1786.53 1731.65 1800.37 1749.32 1815.26 C 1734.54 1821.26 1720.78 1828.52 1705.61 1833.91 C 1700.5 1829.55 1695.3 1825.31 1690 1821.18 C 1672.95 1808.07 1626.4 1781.51 1605.07 1784.28 L 1604.33 1785.55 C 1607.94 1788.03 1611.98 1789.62 1616.03 1791.27 C 1643.79 1802.55 1668.44 1818.41 1691.56 1837.3 C 1665.99 1845 1652.71 1846.61 1626.44 1848.04 C 1602.13 1822.86 1567.36 1801.25 1532.92 1793.94 C 1540.63 1799.36 1552.14 1805.49 1560.47 1810.56 C 1579.59 1822.19 1594.48 1832.83 1610.83 1848.22 C 1552.73 1842.79 1547.54 1845.53 1494.29 1866.75 C 1482.68 1852.14 1474.64 1843.51 1459.63 1831.97 C 1446.04 1821.52 1405.84 1794.62 1388.68 1796.94 L 1388.6 1798.14 C 1394.12 1803.24 1409.77 1810.27 1417.63 1815.46 C 1443.26 1832.37 1461.84 1849.17 1482.46 1871.37 C 1461.52 1875.23 1441.79 1878.43 1420.46 1879.11 C 1407.1 1856.91 1382.93 1836.33 1360.9 1822.89 C 1357.43 1820.77 1340.46 1812.93 1337.01 1813.36 C 1339.66 1817.69 1348.84 1823.66 1353.37 1826.85 C 1374.68 1841.87 1391.26 1859.06 1406.77 1879.9 C 1389.11 1880.44 1371.6 1879.6 1353.96 1878.84 C 1343.76 1859.04 1302.48 1825.16 1280.57 1815.28 C 1278.03 1814.14 1278.31 1814.46 1276.46 1815.33 C 1277.88 1820.6 1324.1 1855.77 1328.54 1864.78 C 1328.85 1865.4 1338.37 1876.89 1339.71 1878.65 C 1308.8 1878.98 1290.07 1885.15 1260.34 1891.37 C 1245.16 1871.11 1211.49 1830.81 1183.4 1830.43 L 1182.38 1831.54 C 1183.32 1832.72 1183.95 1833.54 1185.33 1834.3 C 1212.88 1849.61 1227.48 1871.18 1248.02 1892.86 C 1237.24 1893.59 1218.46 1894.6 1208.09 1893.08 C 1163.4 1886.5 1150.22 1886.64 1109.03 1905.37 C 1091.48 1876.31 1023.88 1835.39 989.759 1829.83 C 997.42 1835.21 1010.05 1841.18 1018.64 1846.78 C 1045.96 1864.59 1075.15 1885.11 1097.35 1909.06 C 1079.93 1914.46 1072.26 1916.19 1054.24 1918.05 C 1048.18 1911.94 1042.21 1905.75 1036.32 1899.48 C 1026.7 1890.28 984.814 1853.9 971.187 1857.37 C 972.266 1861.11 978.439 1865.51 981.653 1867.82 C 1003.18 1883.32 1021.55 1901.84 1040.35 1920.56 C 1015.98 1922.77 999.235 1923.78 974.7 1922.49 C 962.321 1906.91 928.335 1865.81 909.504 1862.81 L 908.227 1863.9 C 913.29 1870 922.176 1878.47 927.887 1884.44 C 938.992 1896.08 949.747 1908.04 960.137 1920.32 C 945.916 1919.63 931.245 1916.6 916.248 1915.8 C 900.207 1894.88 877.885 1873.97 851.312 1869.02 C 856.486 1873.81 864.431 1878.56 870.411 1883.69 C 882.727 1894.25 893.788 1905.09 905.132 1916.64 C 874.405 1922.92 860.854 1927.25 828.016 1930.2 C 811.589 1908.4 799.353 1894.67 774.887 1881.82 C 779.987 1888.31 789.597 1897.09 795.641 1903.74 C 804.187 1913.15 809.828 1920.64 817.189 1930.81 C 795.301 1931.09 777.096 1931.47 755.31 1927.23 C 749.511 1914.53 737.137 1901.35 725.898 1893.27 C 729.89 1902.95 738.585 1915.2 743.815 1925.78 C 722.042 1921.09 699.713 1914.13 678.67 1909.98 C 676.527 1906.46 669.192 1897.2 665.512 1895.98 L 664.433 1897.52 C 665.065 1902.46 668.333 1907.75 670.699 1912.35 C 652.875 1914.8 627.187 1921.48 608.561 1925.31 C 592.731 1909.54 579.331 1885 565.486 1871.79 C 570.147 1889.84 582.262 1913.33 594.826 1927.32 C 577.785 1929.65 561.513 1929.44 544.448 1928.85 C 522.508 1909.38 513.756 1885.71 494.449 1864.38 C 498.485 1885.93 516.268 1911.64 528.97 1929.28 C 502.719 1925.81 468.051 1920.4 443.921 1909.6 C 431.873 1904.21 416.019 1859.79 409.013 1854 L 407.779 1854.44 C 404.568 1866.16 421.178 1897.24 427.302 1907.28 C 414.695 1906.93 397.47 1906.49 385.283 1904.85 C 376.258 1895.47 368.265 1885.15 361.442 1874.07 C 357.698 1867.9 353.503 1858.67 349.118 1853.64 L 347.788 1853.73 C 344.517 1865.81 363.172 1893.87 370.168 1903.4 C 353.243 1901.5 337.872 1897.73 321.533 1893.26 C 307.889 1879.7 300.596 1868.83 294.233 1850.23 C 292.376 1844.81 292.37 1840.98 290.069 1835.27 L 288.794 1835.26 C 281.469 1844.71 294.028 1876.28 300.441 1886.19 C 294.322 1884.22 273.488 1878.51 269.003 1874.49 C 262.261 1868.45 256.389 1854.99 248.883 1848.72 L 247.748 1849.14 C 247.897 1857.45 251.791 1864.64 255.334 1871.98 C 245.1 1869.66 236.918 1868.66 226.528 1867.69 C 254.02 1792.26 324.743 1743.4 402.107 1730.43 C 445.187 1723.21 441.022 1730.06 472.717 1697.83 C 506.946 1663.02 551.252 1644.33 599.475 1641.18 C 613.612 1631.29 625.983 1615.8 639.117 1604.5 C 676.376 1572.46 726.966 1551.72 776.386 1563.1 C 791.472 1566.57 802.207 1571.1 812.673 1582.77 C 787.736 1593.24 760.896 1607.57 738.307 1623.38 C 724.022 1634.62 704.067 1647.03 696.262 1663.66 C 695.364 1665.57 701.025 1671.82 706.552 1668.65 C 719.073 1661.47 730.751 1652.95 743.222 1645.56 C 767.009 1631.67 791.502 1619.04 816.602 1607.7 C 846.153 1594.19 892.928 1576.67 924.982 1580 C 957.828 1583.43 970.764 1587.27 1005.76 1581.73 C 1042.46 1575.91 1071.69 1557 1107.49 1554.41 z" fill="rgb(255,255,255)" transform="translate(0,0)"></path>
<path d="M 687.509 1760.29 C 705.334 1758.68 720.93 1765.29 735.975 1774.94 C 745.419 1781.38 768.804 1795.51 771.61 1806.87 C 774.319 1817.84 750.038 1824.14 741.217 1827.03 C 724.629 1832.46 706.057 1836.74 688.247 1838.82 C 661.444 1840.73 634.563 1838.95 609.875 1827.66 C 595.899 1820.49 603.165 1809.63 612.025 1802.55 C 634.388 1784.68 658.117 1764.17 687.509 1760.29 z" fill="rgb(44,42,43)" transform="translate(0,0)"></path>
<path d="M 692.792 1781.37 C 709.665 1782.22 727.796 1794.61 741.165 1803.94 C 720.267 1810.58 706.803 1814.27 684.89 1816.92 C 663.395 1817.46 654.88 1817.2 634.159 1813.34 C 649.783 1797.11 670.269 1784.59 692.792 1781.37 z" fill="rgb(255,255,255)" transform="translate(0,0)"></path>
<path d="M 1011.58 1718.39 C 1027.94 1717.92 1043.18 1724.42 1056.56 1733.38 C 1061.83 1736.91 1088.65 1755.69 1078.48 1763.38 C 1060.8 1776.74 1027.81 1782.44 1006.15 1783.6 C 992.321 1784.25 942.44 1781.5 936.327 1761.27 C 934.434 1755.01 944.839 1747.25 950.346 1744.06 C 969.777 1732.77 988.455 1720.13 1011.58 1718.39 z" fill="rgb(44,42,43)" transform="translate(0,0)"></path>
<path d="M 1005.86 1739.14 C 1022.02 1737.42 1036.52 1745.34 1049.56 1753.84 C 1036.01 1757.81 1024.91 1760.61 1010.84 1761.18 C 994.064 1762.39 981.94 1761.88 965.658 1757.86 C 980.395 1749.88 989.849 1744.63 1005.86 1739.14 z" fill="rgb(255,255,255)" transform="translate(0,0)"></path>
<path d="M 1242.91 1636.35 C 1266.54 1634.4 1305.55 1652.19 1318.6 1671.76 C 1328.37 1686.41 1262.49 1696.5 1253.23 1697.92 C 1243.33 1699.26 1160.59 1702.6 1181.11 1671.59 C 1191.6 1655.73 1222.62 1638.82 1242.91 1636.35 z" fill="rgb(44,42,43)" transform="translate(0,0)"></path>
<path d="M 1246.61 1658.4 C 1263.4 1658.26 1271.88 1661.98 1285.94 1670.33 C 1271.89 1672.32 1258.41 1675.94 1244.25 1677.48 C 1233.98 1679.33 1216.88 1677.91 1206.55 1676.55 C 1220.69 1665.13 1228.09 1660.22 1246.61 1658.4 z" fill="rgb(255,255,255)" transform="translate(0,0)"></path>
<path d="M 1060.32 1600.36 C 1080.01 1599.01 1101.82 1603.8 1117.02 1616.96 C 1121.37 1620.73 1133.41 1635.23 1127.51 1640.47 C 1119.84 1641.34 1104.14 1632.85 1096.26 1629.38 C 1077.94 1622.34 1061.13 1621.24 1041.49 1622.54 C 1036.17 1622.89 1025.79 1625.06 1021.22 1624.36 C 1020.5 1623.14 1018.43 1619.73 1018.59 1618.69 C 1020.28 1607.45 1053.16 1601.21 1060.32 1600.36 z" fill="rgb(44,42,43)" transform="translate(0,0)"></path>
<path d="M 395.539 1782.35 C 405.4 1781.31 433.11 1785.01 431.906 1799.05 C 425.119 1807.91 407.304 1801.5 396.968 1802.33 C 390.527 1802.86 388.3 1803.29 382.016 1804.65 C 374.43 1807.4 355.21 1821.29 349.99 1811.18 C 351.296 1793.77 380.718 1784.02 395.539 1782.35 z" fill="rgb(44,42,43)" transform="translate(0,0)"></path>
<path d="M 1462.61 1743.34 C 1469.36 1742.62 1502.71 1743.95 1492.59 1761.1 C 1488.56 1767.93 1463.1 1766.9 1453.52 1766.85 C 1446.54 1766.23 1421.57 1765.95 1422.55 1757.09 C 1428.95 1749.47 1452.75 1744.7 1462.61 1743.34 z" fill="rgb(44,42,43)" transform="translate(0,0)"></path>
<path d="M 527.053 1741.12 C 538.679 1740.31 562.029 1740.01 564.768 1754.8 C 561.426 1765.64 547.045 1762.25 538.661 1761 C 528.221 1761.69 507.284 1769.91 501.092 1761.75 C 500.235 1751.45 518.631 1743.22 527.053 1741.12 z" fill="rgb(44,42,43)" transform="translate(0,0)"></path>
<path d="M 1658.91 1702.15 C 1668.64 1701.51 1683.2 1705.01 1686.48 1715.48 C 1684.6 1723.3 1677.1 1722.08 1670.48 1722.11 C 1662.07 1720.92 1648.19 1719.99 1642.27 1713.62 C 1640.38 1706.76 1653.69 1703.41 1658.91 1702.15 z" fill="rgb(44,42,43)" transform="translate(0,0)"></path>
<path d="M 1144.75 1589.14 C 1159.7 1586.8 1166.16 1597.97 1153.37 1606.87 C 1137.52 1608.6 1133.07 1597.15 1144.75 1589.14 z" fill="rgb(44,42,43)" transform="translate(0,0)"></path>
<path d="M 677.621 1609.78 C 690.723 1610.18 691.784 1624.43 678.513 1629.57 C 672.808 1628.28 670.353 1628.07 667.427 1622.74 C 666.551 1615.01 671.758 1612.79 677.621 1609.78 z" fill="rgb(44,42,43)" transform="translate(0,0)"></path>
<path d="M 859.27 1671.39 C 862.374 1670.17 865.897 1670.72 868.476 1672.84 C 871.056 1674.95 872.288 1678.3 871.695 1681.58 C 871.102 1684.86 868.777 1687.57 865.621 1688.65 C 860.894 1690.26 855.741 1687.81 854.016 1683.12 C 852.291 1678.44 854.624 1673.23 859.27 1671.39 z" fill="rgb(44,42,43)" transform="translate(0,0)"></path>
<path d="M 477.165 1724.12 C 481.909 1724.1 484.233 1724.05 487.709 1727.37 C 490.017 1734.55 485.792 1736.9 480.152 1740.2 C 472.787 1740.13 466.898 1738.29 468.868 1729.55 C 471.365 1726 472.913 1725.85 477.165 1724.12 z" fill="rgb(44,42,43)" transform="translate(0,0)"></path>
<path d="M 1637.2 1738.94 C 1650.77 1738.42 1649.25 1751.07 1641.88 1758.4 C 1630.27 1754.76 1627.45 1747.28 1637.2 1738.94 z" fill="rgb(44,42,43)" transform="translate(0,0)"></path>
<path d="M 559.236 1690.86 C 571.709 1691.63 570.68 1699.59 562.647 1706.35 C 549.952 1705.57 547.417 1697.11 559.236 1690.86 z" fill="rgb(44,42,43)" transform="translate(0,0)"></path>
<path d="M 1491.49 1671.83 C 1505.64 1671.1 1504.4 1680.2 1497.89 1689.06 C 1486.87 1687.99 1485.16 1679.61 1491.49 1671.83 z" fill="rgb(44,42,43)" transform="translate(0,0)"></path>
<path d="M 1325.9 1767.77 C 1336.71 1767.49 1344.71 1770.46 1339.48 1782.92 C 1330.38 1782.95 1323.46 1777.51 1325.9 1767.77 z" fill="rgb(44,42,43)" transform="translate(0,0)"></path>
<path d="M 424.158 305.705 C 451.133 309.1 484.232 309.088 511.203 314.325 C 580.167 327.717 686.54 381.517 736.447 429.757 C 722.032 425.944 702.505 421.782 687.919 420.877 C 635.463 417.626 571.645 430.985 524.668 454.412 C 538.143 451.148 550.535 447.672 565.479 443.71 C 617.276 429.978 713.149 426.358 759.241 450.685 C 779.216 461.229 831.332 530.032 845.169 549.385 C 805.875 538.926 759.804 541.406 719.821 545.903 C 701.925 548.515 645.358 559.628 632.43 568.044 C 637.88 567.932 674.589 559.777 685.271 557.978 C 725.992 551.121 817.53 549.855 854.064 564.757 C 865.207 582.843 871.849 596.25 879.942 615.713 C 833.98 638.927 791.446 653.061 739.216 653.55 C 693.321 654.229 648.222 641.528 609.426 616.998 C 531.971 568.667 507.141 504.149 483.156 421.079 C 468.3 369.628 464.191 345.102 424.158 305.705 z" fill="rgb(255,255,255)" transform="translate(0,0)"></path>
<path d="M 1095.37 822.505 C 1101.45 821.902 1110.22 821.904 1116.54 821.732 C 1117.97 837.519 1121.25 853.082 1126.32 868.1 C 1138.71 903.104 1158.32 935.114 1183.87 962.056 C 1186.63 964.988 1192.9 972.158 1196.1 973.698 C 1194.99 970.218 1175.68 947.46 1171.62 940.669 C 1147.47 900.273 1135.97 867.237 1127.82 821.952 C 1157.48 823.076 1190.92 827.82 1220.03 833.43 C 1232.1 888.601 1270.92 943.139 1310.6 982.344 C 1321.99 993.591 1336.25 1006.87 1350.86 1013.69 C 1299.81 973.459 1252.38 897.992 1233.74 836.157 C 1275.89 846.454 1308.07 854.823 1347.82 872.293 C 1353.12 888.9 1359.56 905.12 1367.1 920.837 C 1384.14 952.822 1405.54 982.804 1435.74 1003.58 C 1427.84 994.806 1415.48 980.928 1408.92 971.404 C 1392.17 947.097 1370.35 905.871 1361.59 878.076 C 1374.37 883.395 1391.56 893.638 1403.86 900.349 C 1462.62 932.406 1512.07 973.44 1558.01 1022.07 C 1535.13 1022.03 1510.4 1023.03 1487.74 1025.91 C 1427.18 1033.59 1371.68 1049.06 1309.89 1044.47 C 1246.49 1039.76 1187.61 1014.76 1146.07 965.589 C 1109.42 922.208 1090.88 879.35 1095.37 822.505 z" fill="rgb(255,255,255)" transform="translate(0,0)"></path>
<path d="M 1173.81 376.179 C 1173.39 378.595 1149.25 403.37 1145.68 407.341 C 1111.18 445.668 1073.75 484.767 1044.89 527.692 C 968.352 641.548 913.927 775.164 885.739 909.259 C 854.249 1063.03 887.611 1223.77 932.764 1371.17 C 936.704 1383.62 940.89 1395.99 945.321 1408.28 C 947.809 1415.3 950.774 1421.12 952.11 1428.36 L 951.21 1427.99 C 918.413 1360.58 893.021 1292.72 877.361 1219.2 C 873.217 1199.35 869.596 1179.39 866.501 1159.34 C 864.836 1149.14 863.193 1134.39 860.195 1124.83 C 860.183 1185.03 875.474 1258.48 894.992 1315.39 C 912.656 1370.52 936.733 1419.4 959.401 1472.29 C 973.32 1504.77 980.796 1526.09 997.419 1558.14 C 979.37 1560.19 966.575 1560.53 948.7 1557.72 C 928.585 1522.82 916.365 1487.29 901.907 1450.09 C 887.969 1414.22 873.235 1375.65 862.325 1338.81 C 825.88 1216.51 815.865 1087.86 832.945 961.392 C 855.345 798.409 930.173 614.425 1042.1 492.383 C 1078.89 452.279 1130.54 409.07 1173.81 376.179 z" fill="rgb(255,255,255)" transform="translate(0,0)"></path>
<path d="M 618.518 255.408 C 641.421 251.933 682.177 256.498 704.554 260.803 C 815.223 282.098 918.005 380.38 924.817 496.213 C 926.23 520.243 921.879 542.522 914.796 565.542 C 895.541 525.926 869.67 495.161 841.453 462.158 C 836.063 456.511 830.58 450.953 825.006 445.487 C 717.376 341.889 575.562 301.267 428.916 304.154 C 443.12 298.355 460.341 293.283 475.036 288.424 C 522.817 272.624 568.391 260.13 618.518 255.408 z" fill="rgb(255,255,255)" transform="translate(0,0)"></path>
<path d="M 746.387 295.279 C 763.514 296.621 803.886 314.673 810.484 331.563 C 790.902 322.29 773.932 305.249 751.523 299.812 C 748.711 299.13 747.433 297.745 746.387 295.279 z" fill="rgb(44,42,43)" transform="translate(0,0)"></path>
<path d="M 742.405 306.221 C 756.072 305.514 791.782 323.249 795.381 335.869 C 788.908 335.386 770.231 320.834 762.79 317.523 C 758.725 315.715 745.333 308.891 742.405 306.221 z" fill="rgb(44,42,43)" transform="translate(0,0)"></path>
<path d="M 1337.43 105.034 L 1338.51 105.478 C 1342.13 117.069 1322.97 165.58 1317.52 179.005 C 1282.72 264.701 1220.57 325.824 1147.08 379.451 C 1128.84 392.761 1096.72 417.192 1081.72 433.031 L 1080.58 434.246 C 1086.09 379.736 1091.45 345.235 1108.74 292.338 C 1102.3 301.386 1099.63 307.713 1095.04 317.816 C 1076.52 357.145 1065.27 409.196 1064.9 452.418 C 1048.82 403.821 1061.86 341.206 1083.13 295.343 C 1110.54 234.566 1163.76 185.274 1220.8 152.265 C 1239.15 141.647 1261.28 132.993 1280.73 124.419 C 1298.83 116.439 1318.74 111.831 1337.43 105.034 z" fill="rgb(255,255,255)" transform="translate(0,0)"></path>
<path d="M 1201.76 169.655 L 1202.86 170.075 L 1203.39 171.61 C 1199.42 180.557 1177.85 203.508 1170.14 212.513 C 1168.63 210.719 1167.11 209.751 1167.88 207.879 C 1173.15 195.205 1191.87 176.857 1201.76 169.655 z" fill="rgb(44,42,43)" transform="translate(0,0)"></path>
<path d="M 1219.09 162.497 C 1220.81 162.938 1219.94 162.522 1221.56 164.019 C 1221.2 168.864 1202.27 193.522 1198.13 198.283 C 1187.49 194.34 1215.09 166.314 1219.09 162.497 z" fill="rgb(44,42,43)" transform="translate(0,0)"></path>
<path d="M 1239.95 154.618 C 1241.58 155.495 1241.41 155.636 1242.75 157.07 C 1242.5 162.58 1235.95 167.343 1231.7 171.342 C 1230.87 171.212 1229.41 170.679 1228.55 170.405 L 1227.95 168.098 C 1230.09 162.174 1235.11 158.42 1239.95 154.618 z" fill="rgb(44,42,43)" transform="translate(0,0)"></path>
<path d="M 1345.27 127.689 C 1347.37 129.969 1348.03 137.841 1348.39 141.05 C 1363.3 274.156 1321.31 460.648 1170.72 495.561 C 1145.31 501.452 1123.64 502.254 1097.89 498.768 C 1094.85 498.513 1094.65 498.789 1092.19 497.142 C 1092.86 488.478 1185.3 390.58 1197.37 377.047 C 1212.22 360.385 1226.99 343.546 1240.57 325.826 C 1272.29 284.455 1303.57 234.412 1323.85 186.479 C 1331.83 167.597 1336.54 147.166 1344.85 128.597 L 1345.27 127.689 z" fill="rgb(255,255,255)" transform="translate(0,0)"></path>
<path d="M 1294.64 312.405 C 1297.39 314.233 1296.32 313.019 1297.55 316.472 C 1296.55 325.394 1287.46 342.417 1281.89 349.421 L 1279 348.707 L 1278.12 346.54 C 1279.28 336.675 1288.89 320.491 1294.64 312.405 z" fill="rgb(44,42,43)" transform="translate(0,0)"></path>
<path d="M 1312.03 296.502 C 1316.37 297.334 1314.97 296.279 1317.52 298.703 C 1315.61 305.447 1305.79 325.173 1302.34 332.57 C 1301.56 332.814 1299.94 332.866 1299.04 332.939 L 1297.94 331.058 C 1298.04 322.409 1307.81 304.413 1312.03 296.502 z" fill="rgb(44,42,43)" transform="translate(0,0)"></path>
<path d="M 576.137 1381.41 C 607.133 1379.07 652.092 1383.31 681.745 1391.59 C 764.343 1414.66 828.273 1486.98 868.603 1560.29 L 850.352 1565.48 C 825.421 1510.28 788.33 1476.51 740.419 1442.92 C 734.917 1439.2 733.144 1438.23 727.088 1435.47 C 777.142 1473.96 813.805 1513.03 839.598 1571.61 C 828.333 1562.97 809.738 1552.03 800.599 1542.97 C 726.668 1469.71 663.443 1411.76 561.522 1382.85 C 566.263 1382.26 571.353 1381.87 576.137 1381.41 z" fill="rgb(255,255,255)" transform="translate(0,0)"></path>
<path d="M 1292.08 720.419 C 1318.18 718.198 1336.08 724.9 1358.79 737.366 C 1382.52 750.398 1403.08 763.971 1422.87 782.643 C 1378.91 773.38 1323.17 785.598 1281.78 802.007 C 1278.05 803.738 1270.12 806.391 1266.07 807.873 C 1240.26 792.944 1185.64 780.835 1156.44 775.501 C 1192.71 747.326 1245.83 723.758 1292.08 720.419 z" fill="rgb(255,255,255)" transform="translate(0,0)"></path>
<path d="M 1392.81 790.437 C 1404.16 789.574 1417.51 789.419 1428.52 792.613 C 1449.13 798.59 1487.44 858.601 1498.72 878.348 C 1467.34 866.088 1430.64 862.526 1397.17 865.875 L 1380.36 867.433 C 1353.94 851.55 1308 823.818 1278.9 814.686 C 1315.27 800.385 1353.76 792.192 1392.81 790.437 z" fill="rgb(255,255,255)" transform="translate(0,0)"></path>
<path d="M 682.032 1313.88 C 685.169 1314.13 687.311 1315.25 690.161 1316.45 C 765.923 1347.68 830.596 1383.64 877.43 1453.76 C 902.048 1490.62 911.824 1513.49 928.428 1554.85 L 915.514 1554.25 C 895.832 1510.67 883.029 1488.83 850.029 1453.34 C 847.079 1449.72 844.52 1446.8 840.724 1444.08 C 840.188 1445.82 850.305 1459.66 852.118 1462.1 C 874.859 1492.7 891.106 1520.68 906.981 1555.25 L 892.168 1557.55 C 878.716 1529.86 858.475 1507.24 840.959 1482.22 C 832.776 1470.53 826.863 1456.15 818.145 1443.94 C 778.864 1388.92 737.58 1351.24 682.032 1313.88 z" fill="rgb(255,255,255)" transform="translate(0,0)"></path>
<path d="M 557.294 321.511 C 690.538 351.491 807.241 420.379 882.465 536.935 C 903.973 570.262 909.917 592.823 923.981 627.822 C 919.877 636.438 915.62 644.981 911.213 653.447 C 897.015 619.551 887.268 594.703 868.152 562.509 C 808.974 462.845 716.235 387.212 610.316 341.471 C 596 335.289 573.043 327.299 558.31 324.017 L 557.294 321.511 z" fill="rgb(255,255,255)" transform="translate(0,0)"></path>
<path d="M 1091.71 781.436 C 1173.41 777.252 1271.88 813.289 1341.62 853.848 C 1325.98 849.061 1309.69 842.372 1293.85 837.293 C 1252.56 824.055 1207.45 812.633 1164.24 808.252 C 1089.4 798.045 979.323 811 916.838 856.179 C 919.987 848.778 923.387 835.926 926.114 827.582 C 979.221 797.669 1031.44 785.549 1091.71 781.436 z" fill="rgb(255,255,255)" transform="translate(0,0)"></path>
<path d="M 1004.5 1529.9 C 1001.4 1523.62 974.596 1463.66 974.522 1461.04 C 971.976 1370.16 1031.41 1263.29 1097.48 1208.05 C 1067.96 1253.16 1051.72 1287.41 1031.79 1337.1 C 1009.91 1391.64 986.502 1452.12 998.262 1511.95 C 1001.36 1457.82 1008.61 1425.08 1025.98 1373.91 L 1028.5 1372.44 C 1023.92 1390.81 1018.44 1410.3 1015.83 1428.99 C 1013.52 1445.53 1013.76 1462.89 1011.58 1479.52 C 1009.27 1496.64 1005.16 1512.35 1004.5 1529.9 z" fill="rgb(255,255,255)" transform="translate(0,0)"></path>
<path d="M 1396.1 875.169 C 1433.44 873.21 1472.72 877.805 1507.36 892.115 C 1521.12 910.572 1558.85 991.241 1565.47 1014.51 C 1561.64 1012.64 1544.1 994.47 1539.92 990.231 C 1496.13 945.895 1447.29 910.392 1396.1 875.169 z" fill="rgb(255,255,255)" transform="translate(0,0)"></path>
<path d="M 1154.56 1393.43 L 1155.76 1393.45 L 1155.39 1394.51 C 1154.15 1395.12 1152.92 1395.74 1151.7 1396.39 C 1099.77 1423.71 1065.45 1489.39 1048.54 1543.72 C 1042.77 1546.67 1036.05 1549.47 1030.07 1552.12 C 1038.91 1513.11 1053.74 1480.16 1074.04 1446.05 C 1071.09 1448.29 1069.86 1449.88 1067.45 1452.62 C 1041.26 1482.71 1029.59 1514.61 1023.75 1553.37 L 1021.62 1553.63 C 1016.76 1548.48 1019.61 1530.23 1020.42 1523.46 C 1029.84 1444.37 1076.52 1401.21 1154.56 1393.43 z" fill="rgb(255,255,255)" transform="translate(0,0)"></path>
<path d="M 1252.47 714.44 C 1255.59 714.033 1254.24 713.687 1256.71 715.207 L 1256.71 714.04 L 1258.47 714.509 C 1256.24 716.184 1240.76 720.126 1236.88 721.343 C 1205.92 731.055 1170.56 751.315 1146.17 773.086 C 1141.92 772.958 1137.51 772.63 1133.25 772.381 C 1130.33 772.15 1125.75 772.32 1122.7 772.333 C 1159.72 736.484 1201.01 718.232 1252.47 714.44 z" fill="rgb(255,255,255)" transform="translate(0,0)"></path>
<path d="M 558.31 324.017 C 553.651 323.037 535.142 319.851 532.917 316.766 C 540.641 318.547 549.381 319.947 557.294 321.511 L 558.31 324.017 z" fill="rgb(180,182,182)" transform="translate(0,0)"></path>
<path d="M 1025.98 1373.91 C 1027.78 1367.69 1029.46 1361.12 1032.59 1355.47 L 1033.73 1355.78 L 1033.47 1357.81 L 1031.41 1357.17 L 1033.21 1358.88 C 1031.72 1363.83 1030.68 1367.72 1028.5 1372.44 L 1025.98 1373.91 z" fill="rgb(94,91,94)" transform="translate(0,0)"></path>
<metadata><recraft-signature>{"signed_by": "recraft", "signature_b64": "9xXlJ7KmmvkLjGFfm3MemhDMMeWA+JUCGSAXOXEknwz6wCDYzsNreC/i46d4riSjbvY1GAmzDAXpfkUC5amgDg==", "signing_algo": "Ed25519", "generation_timestamp": 1765311587, "identifier": "85313ce8-08d4-4397-8e28-1ab2cf759e3a"}</recraft-signature></metadata></svg>