<svg xmlns="http://www.w3.org/2000/svg" height="1024" preserveAspectRatio="none" style="display: block;" version="1.1" viewBox="0 0 2048 2048" width="1024">
<path d="M 1800.89 182.426 C 1806.17 181.862 1814.89 181.956 1820.44 181.87 C 1799.09 200.908 1777.8 220.918 1761.45 244.598 C 1732.43 286.646 1715.08 332.313 1697.57 380.012 C 1671.46 451.152 1639.82 515.954 1584.15 569.167 C 1525.1 625.615 1425.49 656.16 1344.61 648.588 C 1319.68 646.254 1297.68 639.474 1274.4 630.599 C 1232.87 614.762 1205.25 586.304 1159.2 584.802 C 1166.77 576.034 1194.07 548.811 1203.55 545.872 C 1299.68 516.098 1366.09 625.599 1462.57 607.623 C 1454.44 604.72 1443.48 603.295 1434.87 601.97 C 1402.99 597.057 1372.54 584.402 1344.74 567.923 C 1303.1 543.24 1272.25 532.576 1223.54 531.231 C 1226.54 528.573 1229.7 526.123 1233.03 523.896 C 1249.4 512.856 1266.16 503.849 1283.71 495.062 C 1306.68 482.879 1316.36 477.581 1342.54 477.665 C 1411.96 477.889 1465.18 532.338 1536.37 527.994 C 1549.59 527.187 1577.93 525.556 1588.79 518.214 L 1588.43 517.089 C 1578.56 514.92 1561.26 518.548 1550.49 519.247 C 1533.37 520.187 1516.2 518.693 1499.5 514.808 C 1439.65 501.41 1405.98 468.207 1343.12 467.839 C 1363.7 458.863 1385.2 448.513 1405.9 439.624 C 1415.65 436.474 1439.92 421.279 1449.28 420.874 C 1498.11 418.765 1543.22 439.238 1593.25 430.174 C 1610.87 426.981 1644.68 422.568 1656.53 407.594 C 1655.11 406.357 1626.52 414.98 1622.12 416.189 C 1566.36 431.519 1519.55 416.766 1465.08 409.468 C 1493.96 395.946 1519.35 379.244 1545.39 360.925 C 1548.48 358.748 1564.07 347.386 1566.13 347.238 C 1608.4 344.215 1657.55 352.497 1695.95 329.954 C 1672.39 332.018 1648.73 337.061 1624.84 336.918 C 1609.59 336.827 1594.33 336.318 1579.09 335.864 C 1585.93 329.188 1598.96 320.762 1607.02 314.239 C 1637.79 289.325 1663.34 268.841 1697.79 249.07 C 1718.69 237.651 1739.94 227.742 1761.46 217.643 C 1763.77 216.557 1766.04 214.557 1767.45 212.41 C 1761.37 210.358 1712.69 229.916 1704.25 233.391 C 1675.36 245.277 1646.96 260.138 1618.52 273.247 C 1629.67 261.018 1640.86 249.008 1653.16 237.904 C 1662.69 229.297 1673.76 221.651 1682.57 212.416 C 1655.09 219.801 1633.5 243.293 1614.78 263.831 C 1611.92 266.976 1605.52 277.658 1602.91 279.527 C 1594.64 285.454 1584.15 291.432 1575.53 297.144 C 1562.23 305.953 1549.66 315.231 1536.24 323.732 C 1542.45 302.104 1550.23 277.005 1561.69 257.304 C 1569.57 243.751 1583.92 227.4 1592.07 213.804 C 1592.68 212.788 1592.12 212.322 1591.54 211.093 C 1585.7 211.825 1577.45 222.619 1573.36 226.916 C 1545.1 256.574 1535.16 292.764 1523.54 331.033 C 1519.72 332.97 1515.01 335.908 1511.3 338.242 C 1488.03 352.854 1464.09 365.061 1439.66 377.603 C 1444.35 329.726 1451.11 294.738 1477.98 253.256 C 1486.12 240.698 1495.62 228.949 1503.34 216.278 C 1499.29 218.891 1496.61 221.081 1493.13 224.386 C 1449.92 265.43 1431.89 324.174 1429.74 382.237 C 1399.95 394.539 1365.39 413.438 1334.61 422.066 C 1334.84 371.172 1353.47 322.408 1379.12 279.069 C 1385.12 268.933 1399.85 248.299 1403.58 238.952 L 1402.81 237.149 C 1396.84 237.705 1382.93 258.604 1378.6 264.671 C 1341.85 316.122 1330.36 364.244 1324.13 426.068 C 1291.29 440.67 1267.66 450.975 1236.47 468.393 C 1242.35 410.024 1260.59 358.699 1286.88 306.875 C 1288.6 303.475 1291.67 297.057 1290.81 293.421 L 1289.38 293.568 C 1281.57 301.082 1276.17 313.613 1271.1 323.17 C 1252.15 358.886 1238.59 397.319 1231.73 437.194 C 1229.57 449.77 1227.08 462.666 1224.23 475.148 C 1202.02 489.695 1181.92 502.67 1160.67 518.608 C 1161.62 503.407 1166.05 486.565 1168.98 471.612 C 1188.59 371.786 1245.07 292.049 1335.32 243.824 C 1432.42 191.939 1536.8 191.189 1644.23 188.54 C 1696.47 187.098 1748.69 185.06 1800.89 182.426 z" fill="rgb(254,254,254)" transform="translate(0,0)"></path>
<path d="M 463.669 771.428 C 619.683 762.26 685.485 829.041 740.323 964.688 C 719.71 955.317 699.693 941.826 678.03 933.341 C 667.978 894.818 635.309 829.353 601.764 807.583 C 608.39 820.367 620.711 835.863 628.755 848.78 C 644.362 873.841 656.762 899.677 666.436 927.558 C 646.865 917.654 625.6 910.012 605.492 901.206 C 598.005 897.927 590.155 894.597 582.386 892.134 C 569.092 847.068 536.08 801.093 490.822 784.578 C 496.015 791.208 508.881 799.934 515.908 806.401 C 545.202 833.358 556.722 853.093 571.269 888.598 C 547.535 880.106 521.413 872.276 497.244 865.111 C 483.169 844.63 465.535 816.56 442.582 804.597 C 431.827 798.992 412.351 791.564 400.224 792.735 C 399.025 796.696 426.227 805.63 431.178 808.62 C 439.276 813.512 445.524 815.629 452.369 822.946 C 463.122 834.441 476.958 849.363 484.006 863.455 C 446.337 854.847 425.4 851.84 386.937 847.725 C 377.174 837.123 349.88 807.666 333.683 809.457 L 332.927 811.024 C 334.43 812.986 346.563 820.937 350.406 824.432 C 359.268 832.493 366.752 840.14 375.137 848.686 C 361.939 846.568 273.171 844.054 266.483 853.551 C 268.767 856.385 289.7 855.618 295.558 855.908 C 342.714 858.243 390.126 863.968 435.249 878.34 C 401.106 883.753 378.05 897.717 347.236 911.618 C 339.89 914.932 325.654 917.21 320.152 921.77 L 320.586 923.132 C 337.534 928.478 380.072 905.999 397.363 898.54 C 406.044 894.775 414.954 891.564 424.041 888.926 C 431.751 886.706 447.56 882.79 455.248 883.844 C 474.172 886.436 521.006 902.408 536.746 911.17 C 512.284 913.882 501.547 915.431 477.734 923.426 C 440.667 937.188 419.712 963.947 381.963 974.047 C 374.47 976.052 364.752 976.609 356.871 977.55 L 356.736 978.46 C 363.101 982.688 368.533 982.72 375.949 982.352 C 406.479 980.837 428.542 959.63 453.456 945.165 C 464.421 938.925 475.987 933.806 487.979 929.886 C 550.214 909.285 569.336 922.631 623.458 949.623 C 606.344 949.777 592.222 951.1 576.013 957.018 C 538.618 970.671 513.09 1003.68 477.659 1020.4 C 466.815 1025.51 455.301 1029.06 443.461 1030.94 C 436.678 1032.01 432.304 1031.87 425.375 1033.54 L 424.283 1033.81 C 480.92 1048.56 513.06 1004.15 554.606 978.43 C 566.161 971.309 578.752 966.027 591.928 962.77 C 604.931 959.495 635.591 956.457 648.343 959.937 C 656.501 962.163 684.655 978.555 693.394 983.723 C 674.581 989.172 653.977 994.605 636.916 1004.22 C 608.536 1020.2 585.849 1045.43 555.565 1058.39 C 546.344 1062.33 536.979 1065.37 527.637 1068.99 C 579.565 1070.52 598.654 1037.44 639.196 1013.86 C 660.794 1001.29 681.314 996.259 705.501 992.627 C 716.596 997.961 731.119 1007.18 742.043 1013.73 C 722.305 1020.56 713.457 1028.03 696.351 1039.26 C 648.335 1070.77 597.729 1089.59 539.989 1091.62 C 447.653 1096.69 375.569 1037.23 326.379 964.363 C 286.168 904.798 258.412 861.095 181.609 845.241 C 255.183 807.521 380.607 778.024 463.669 771.428 z" fill="rgb(254,254,254)" transform="translate(0,0)"></path>
<path d="M 1601.31 893.483 C 1614.18 893.561 1627.04 893.965 1639.89 894.693 C 1633.34 901.059 1624.53 907.536 1617.5 913.726 C 1603.29 926.232 1588.73 940.863 1577.99 956.509 C 1530.69 1025.41 1521.01 1103.8 1454.54 1162.03 C 1397.09 1212.35 1324.67 1220.47 1251.53 1209.13 C 1221.83 1204.52 1199.36 1197.19 1168.37 1194.98 C 1175.87 1187.38 1183.46 1178.64 1192.21 1172.52 C 1216.96 1155.21 1298.84 1172.64 1329.72 1177.76 C 1337.16 1178.99 1369.05 1185.39 1374.12 1181.76 C 1375.22 1178.92 1375.35 1180.23 1374.28 1177.69 C 1368.78 1173.09 1350.83 1172.03 1342.48 1170.4 C 1295.36 1161.19 1258.2 1154.06 1209.81 1156.02 C 1222.03 1146.78 1256.58 1119.2 1270.07 1114.44 C 1316.94 1097.88 1375.86 1112.99 1422.25 1126.32 C 1428.07 1128 1438.55 1132.46 1442.51 1126.77 L 1441.52 1124.6 C 1435.09 1119.6 1422.84 1116.88 1414.73 1114.54 C 1374.72 1103.02 1332.4 1095.85 1290.69 1099.64 C 1301.5 1092.49 1342.14 1070.2 1352.84 1067.06 C 1380.68 1058.88 1420.51 1057.15 1449.29 1058.75 C 1459.39 1059.36 1469.48 1060.24 1479.54 1061.39 C 1484.3 1061.92 1488.9 1063.35 1493.1 1063.01 C 1495.6 1061.38 1495.54 1061.59 1496.63 1058.84 L 1495.6 1056.9 C 1489.04 1052.8 1478.23 1052.78 1470.51 1051.77 C 1437.57 1047.48 1404.54 1048.36 1371.73 1053.83 C 1415.14 1031.72 1458.74 1004.34 1508.04 1001.25 C 1514.21 1000.86 1525.35 999.658 1530.31 995.988 L 1530.57 994.139 C 1524.6 989.086 1488.2 995.62 1478.95 996.797 C 1492.13 986.514 1508.89 977.107 1522.96 967.59 C 1537.66 957.648 1547.1 949.368 1560.06 937.697 C 1565.85 932.356 1567.24 930.693 1571.81 924.266 C 1564.88 926.473 1555.02 931.929 1548.15 935.442 C 1523.17 948.335 1498.83 962.445 1475.23 977.724 C 1481.78 966.603 1522.87 917.263 1522.94 916.824 C 1521.29 916.486 1520.21 916.189 1518.36 917.556 C 1500.22 930.982 1468.21 963.833 1462.22 984.418 C 1439.85 996.12 1411.36 1009.4 1388.17 1019.68 C 1397.6 997.158 1404.48 985.264 1418.12 964.989 C 1424.12 956.069 1445.09 934.524 1445.56 929.481 L 1443.42 929.558 C 1415.46 945.646 1386.31 995.126 1374.72 1025.22 C 1349.83 1036.53 1323.45 1047.32 1298.29 1058.32 C 1305.65 1030.87 1315.29 1008.41 1332.34 985.348 C 1340.76 973.976 1352.73 962.544 1362.36 951.766 C 1362.37 951.046 1362.38 950.325 1362.39 949.605 L 1360.76 948.649 C 1358.3 949.29 1356.69 950.034 1354.63 951.639 C 1318.9 979.429 1294.33 1021.42 1286.61 1064.99 C 1269.22 1072.22 1239.26 1090.82 1223.49 1101.37 C 1228.84 1064.42 1235.32 1032.87 1257.75 1001.66 C 1261.34 996.667 1276.15 980.68 1277.35 977.864 L 1276.61 976.294 C 1272.71 976.216 1268.98 979.147 1265.94 981.654 C 1230.14 1011.14 1218.27 1064.46 1212.71 1107.6 C 1196.01 1117.92 1171.67 1138.67 1155.91 1151.47 C 1163.7 1092.05 1178.82 1041.15 1221.31 996.905 C 1245.64 971.65 1275.3 952.138 1308.13 939.791 C 1355.3 921.736 1375.4 925.601 1420.26 917.443 C 1487.24 905.261 1533.22 895.015 1601.31 893.483 z" fill="rgb(254,254,254)" transform="translate(0,0)"></path>
<path d="M 1100.8 68.0415 C 1100.84 68.0872 1100.91 68.1196 1100.92 68.1785 C 1101.74 70.8546 1095.51 91.8807 1094.65 96.5171 C 1090.47 119.873 1089.6 143.699 1092.05 167.298 C 1095.48 198.128 1105.04 234.581 1111.06 265.736 C 1125.94 342.843 1126 421.472 1085.59 491.38 C 1065.21 526.625 1038.98 549.247 1018.81 586.166 C 1014.44 567.622 1012 546.378 1009.67 527.452 C 1014.95 521.373 1022.63 514.919 1028.72 509.529 C 1048.37 492.163 1096.64 447.694 1095.37 419.317 L 1094.22 418.339 C 1069.12 461.394 1044.68 482.735 1008.28 515.864 C 1006.58 494.791 1005.66 475.169 1004.18 454.492 C 1036.6 433.073 1072.67 401.743 1090.62 367.036 C 1092.79 362.84 1100.07 349.934 1097.23 345.89 C 1093.71 346.908 1079.77 371.116 1075.43 376.763 C 1055.39 403.099 1031.11 425.923 1003.59 444.304 C 1003.77 412.615 1004.28 387.238 1007.16 355.549 C 1010.95 353.117 1014.64 350.548 1018.23 347.847 C 1049.99 324.041 1083.83 291.388 1089.69 250.231 C 1083.24 260.102 1076.76 273.132 1070.26 282.755 C 1057.53 301.567 1027.53 333.074 1008.44 345.236 C 1011.23 320.302 1017.62 285.821 1022.74 261.024 C 1031.31 255.947 1041.14 245.266 1048.41 237.989 C 1055.9 229.037 1077.88 195.376 1074.01 184.884 L 1072.36 184.34 C 1069.2 187.961 1064.43 199.786 1061.3 205.235 C 1051.67 222.024 1039.3 236.733 1025.21 249.92 C 1030.63 229.602 1036.48 208.867 1043.3 188.976 C 1051.16 166.034 1060.69 149.784 1063.88 125.463 C 1040.45 155.825 1014.67 208.05 1003.11 244.29 C 1000.03 234.76 995.388 210.032 991.623 203.969 L 989.934 203.599 C 982.84 214.036 994.218 246.868 998.186 258.563 C 992.925 285.217 983.737 310.529 978.882 338.869 C 974.5 329.417 971.706 320.995 968.156 311.625 C 965.051 303.432 961.161 281.18 956.495 276.114 C 951.613 288.473 967.462 340.383 976.847 352.041 C 972.545 375.413 970.049 393.502 968.425 417.102 C 962.892 407.19 959.209 400.071 955.211 389.445 C 950.305 376.404 946.112 359.971 939.258 348.103 C 941.835 384.422 949.064 402.164 968.495 431.346 C 966.729 454.613 972.015 499.577 974.382 523.398 C 971.811 520.199 967.716 513.178 963.507 513.891 C 962.611 519.73 973.622 533.326 975.778 539.767 C 980.767 554.676 982.686 569.211 987.089 584.779 C 986.204 583.576 985.329 582.367 984.463 581.15 C 939.791 518.348 913.1 399.171 926.731 323.101 C 941.141 242.689 975.293 188.221 1031.36 130.491 C 1057.51 103.565 1069.6 90.133 1100.8 68.0415 z" fill="rgb(254,254,254)" transform="translate(0,0)"></path>
<path d="M 1523.37 623.847 C 1527.5 624.808 1542.26 634.356 1547.62 637.02 C 1605.73 665.9 1650.36 709.493 1690.77 760.073 C 1664.63 757.675 1634.07 756.147 1608.36 760.615 C 1541.06 772.309 1488.46 809.289 1418.34 815.515 C 1356.14 821.038 1319.42 800.99 1270.34 765.398 C 1244.81 746.884 1224.72 730.575 1200.55 710.323 C 1266.91 694.436 1304.3 738.106 1349.23 777.932 C 1356.7 784.559 1379.25 798.293 1389.45 794.573 L 1389.3 793.277 C 1385.02 789.852 1379.69 787.78 1374.76 785.248 C 1363.36 779.389 1351.47 768.742 1342.34 759.791 C 1320.85 738.725 1297.51 715.465 1268.41 705.562 C 1259.86 702.652 1247.56 700.34 1238.46 698.354 C 1258.28 692.015 1303.41 682.036 1324.81 683.084 C 1334.22 683.544 1348.86 689.273 1357.54 692.913 C 1376.64 701.815 1394.61 715.566 1410.07 729.742 C 1434.97 752.579 1447.66 775.067 1481.72 784.593 C 1474.76 776.072 1463.18 771.892 1455.7 764.133 C 1422.74 729.917 1394.25 695.564 1348.13 678.191 C 1381.16 676.447 1417.96 676.356 1449.67 686.699 C 1475.49 695.116 1495.99 714.954 1515.88 732.428 C 1521.43 737.305 1547.48 758.405 1552.96 758.618 C 1554.63 755.807 1553.22 753.248 1550.82 751.293 C 1520.28 726.424 1498.66 701.416 1463.89 681.908 C 1502.63 689.611 1530.17 698.558 1567.43 711.297 C 1585.47 717.466 1610.47 727.679 1628.63 729.996 C 1604.51 709.779 1536.69 682.138 1505.67 676.598 C 1514.99 676.047 1524.31 675.342 1533.61 674.484 C 1541.52 673.706 1569.85 671.414 1574.34 665.97 L 1573.12 664.193 C 1559.17 658.355 1518.47 666.114 1499.45 664.713 C 1475.02 662.914 1453.4 658.145 1429.24 656.48 C 1466.63 646.941 1487.82 640.628 1523.37 623.847 z" fill="rgb(254,254,254)" transform="translate(0,0)"></path>
<path d="M 645.297 404.326 C 653.985 406.918 668.813 414.138 677.221 418.216 C 729.928 443.901 778.444 477.417 821.119 517.624 C 847.831 542.908 877.231 582.644 888.758 617.157 C 904.754 665.05 913.981 718.782 915.449 769.151 C 898.027 735.222 874.473 697.799 852.745 666.649 C 857.335 641.473 850.829 591.233 841.33 567.361 C 840.092 564.251 839.121 560.965 835.973 559.56 L 834.126 560.539 C 832.724 563.846 837.021 580.613 837.958 585.292 C 842.836 609.379 845.046 633.93 844.55 658.501 C 830.922 639.488 806.575 617.834 790.695 597.624 C 789.531 580.056 792.651 508.179 777.973 500.046 L 776.642 500.963 C 776.053 505.965 777.762 513.137 778.732 518.348 C 783.124 541.939 782.772 563.854 781.584 587.623 C 771.453 575.997 753.91 552.544 744.942 543.282 C 746.199 530.193 745.217 484.657 739.916 473.63 L 738.785 473.418 C 734.854 480.787 736.743 522.54 736.892 533.552 C 720.807 512.067 706.508 492.078 691.017 470.321 C 703.652 505.875 704.881 516.437 725.086 551.599 C 736.118 569.801 747.43 587.114 758.673 605.106 C 722.687 592.172 719.174 583.076 690.631 566.203 L 689.575 565.589 C 690.003 566.323 690.444 567.05 690.897 567.769 C 705.031 590.084 741.067 611.893 766.753 617.71 C 778.767 631.954 797.188 656.927 808.135 672.263 C 782.15 670.576 751.968 660.238 727.795 649.502 C 722.004 646.93 712.429 638.465 705.747 636.428 L 705.111 637.435 C 711.559 662.032 792.093 682.512 816.26 683.468 C 831.771 701.621 843.093 718.483 856.416 738.31 C 847.926 734.747 839.17 731.857 830.227 729.665 C 812.961 725.528 797.101 724.954 779.878 720.894 C 773.309 719.346 752.932 712.091 748.449 713.92 C 763.009 734.58 837.776 733.395 858.816 750.373 C 871.575 760.668 881.212 781.36 888.884 795.326 C 761.432 762.784 682.995 705.613 674.145 565.052 C 670.651 509.547 670.957 454.998 645.297 404.326 z" fill="rgb(254,254,254)" transform="translate(0,0)"></path>
<path d="M 1551.86 339.292 L 1553.04 341.015 C 1505.14 377.186 1469.93 399.074 1414.33 424.487 C 1351.85 453.045 1285.56 477.698 1227.66 514.678 C 1098.01 597.494 1023.71 738.879 992.063 886.253 C 957.317 1051.85 953.437 1222.45 980.619 1389.45 C 987.866 1432.61 995.482 1471.05 1009.31 1512.72 C 1039.59 1604.01 1085.26 1691.25 1137.42 1771.81 C 1110.07 1774.03 1105.51 1772.35 1078.64 1766.7 C 1072.44 1757.65 1064.5 1739.8 1059.55 1729.44 C 1041.54 1692.37 1025.46 1654.39 1011.36 1615.66 C 990.527 1557.4 970.031 1496.66 957.554 1435.94 C 924.21 1273.65 931.631 1094.09 957.948 931.67 C 988.604 742.478 1098.77 568.951 1272.34 482.173 C 1314.66 461.016 1360.99 444.537 1403.92 424.316 C 1461.35 397.927 1499.67 375.884 1551.86 339.292 z" fill="rgb(254,254,254)" transform="translate(0,0)"></path>
<path d="M 1554.7 323.957 L 1555.21 324.271 L 1555.23 325.219 C 1480.35 385.588 1374.39 426.17 1287.82 467.363 C 1180.04 519.068 1087.06 605.425 1029.54 710.405 C 983.928 793.666 959.053 883.231 941.874 975.824 C 900.652 1186.47 920.064 1404.49 997.852 1604.53 C 1015.09 1649.48 1035.51 1695.63 1059.13 1737.68 C 1064.29 1746.87 1070.31 1755.45 1074.92 1764.99 L 1075.49 1766.2 L 1063.25 1765.18 L 1045.15 1764.06 C 974.191 1638.25 926.068 1478.73 910.749 1335.07 C 903.092 1262.37 901.958 1189.14 907.361 1116.24 C 914.852 1003.92 937.387 891.44 977.687 786.402 C 1031.12 647.148 1133.43 529.348 1267.16 462.502 C 1313.8 439.19 1363.99 422.158 1411.67 400.988 C 1464.44 377.988 1505.42 352.993 1554.7 323.957 z" fill="rgb(254,254,254)" transform="translate(0,0)"></path>
<path d="M 866.171 1738.4 C 913.011 1737.64 965.85 1770.18 1014.5 1772.41 C 1033.45 1773.28 1052.63 1773.6 1071.5 1775.13 C 1086.27 1776.32 1101.62 1782.26 1116.82 1781.72 C 1128.68 1781.54 1144.03 1778.38 1155.49 1775.75 C 1180.2 1769.31 1205.06 1773.93 1228.45 1783.8 C 1260.4 1797.27 1289.29 1784.08 1322.03 1789.33 C 1347.19 1793.36 1370.51 1808.92 1396.84 1810.4 C 1433.44 1812.45 1470.71 1805.25 1507.12 1812.56 C 1542.84 1819.68 1576.04 1835.57 1611.63 1843.5 C 1620.34 1845.2 1630.45 1848.52 1639.22 1849.42 C 1691.1 1854.77 1738.63 1871.62 1788.74 1884.65 C 1803.16 1888.39 1821.92 1889.87 1837.11 1892.22 C 1862.82 1895.94 1887.99 1902.68 1912.12 1912.3 C 1919.07 1915.13 1942.11 1923.89 1943.51 1931.77 C 1941.66 1933.55 1940.81 1934.21 1937.98 1933.3 C 1921.33 1927.93 1904.45 1921.84 1887.9 1916.15 C 1853.46 1904.31 1818.01 1903.84 1782.91 1895.71 C 1753.33 1888.86 1724.66 1878.4 1695.02 1871.8 C 1662.79 1864.67 1629.61 1861.77 1597.75 1852.61 C 1566.86 1844.4 1537.69 1832.53 1507.18 1825.75 C 1467.61 1817.22 1427.29 1826.67 1387.66 1821.55 C 1364.69 1818.58 1343.32 1806.11 1320.76 1801.61 C 1299.74 1797.42 1278.46 1803.81 1257.25 1802.75 C 1231.26 1801.44 1208.66 1787.06 1182.99 1785.05 C 1165.63 1784.25 1140 1792.93 1119.79 1794.78 C 1103.32 1795.36 1087.05 1788.98 1070.78 1787.51 C 1057.12 1786.28 1042.16 1786.57 1028.39 1786.41 C 1008.79 1786.18 995.084 1783.66 976.384 1779.62 C 944.463 1772.71 899.206 1749.85 867.189 1752.25 C 803.638 1757.02 747.077 1807.4 688.526 1827.2 C 649.397 1840.01 607.352 1830.66 566.996 1830.96 C 499.038 1831.48 437.872 1860.02 378.947 1891.03 C 360.099 1900.95 340.507 1913.03 320.84 1921.2 C 291.675 1933.32 257.41 1931.03 228.256 1943.56 C 205.293 1953.9 186.506 1971.13 162.054 1978.76 C 155.586 1980.78 117.155 1991.14 115.852 1982.17 C 122.18 1977.97 147.189 1974.35 160.672 1967.65 C 189.345 1953.38 206.368 1935.91 237.007 1926.29 C 258.81 1919.44 288.072 1919.53 306.611 1912.7 C 328.136 1904.15 349.264 1891.55 369.465 1880.78 C 437.288 1844.63 507.76 1813.74 586.403 1818.07 C 616.279 1819.72 652.182 1823.39 681.156 1815.46 C 699.714 1810.38 719.478 1799.26 736.627 1790.3 C 777.977 1769.02 819.14 1742.54 866.171 1738.4 z" fill="rgb(254,254,254)" transform="translate(0,0)"></path>
<path d="M 1432.45 1010.87 L 1433.66 1011.33 C 1428.94 1016.52 1357.53 1050.79 1345.7 1056.83 C 1204.24 1128.99 1062.36 1247.25 1027.6 1409.65 C 1018.97 1449.95 1019.96 1486.98 1025.44 1527.7 C 1023.51 1523.34 1021.23 1516.42 1019.54 1511.74 C 1013.88 1494.57 993.56 1432.41 997.613 1416.4 C 1029.18 1291.74 1113.92 1183.84 1221.66 1115.12 C 1236.31 1105.56 1250.73 1095.49 1266.17 1087.21 C 1320.16 1058.28 1377.28 1037.35 1432.45 1010.87 z" fill="rgb(254,254,254)" transform="translate(0,0)"></path>
<path d="M 408.028 859.804 C 409.522 859.827 411.015 859.888 412.506 859.987 C 440.408 861.654 462.285 868.363 488.84 874.597 C 541.291 886.911 582.389 904.131 631.231 924.53 C 694.006 950.749 751.972 979.752 807.182 1020.13 C 839.399 1043.69 871.826 1077.21 898.418 1107.03 C 897.096 1122.55 896.249 1138.1 895.881 1153.66 L 895.218 1154.35 C 894.898 1154.18 879.319 1129.92 876.859 1126.46 C 859.789 1102.17 840.173 1079.78 818.345 1059.65 C 729.607 979.447 609.442 927.303 498.322 885.184 C 481.448 878.788 462.028 874.237 444.599 869.042 C 433.079 865.607 420.775 864.101 409.201 860.211 L 408.028 859.804 z" fill="rgb(254,254,254)" transform="translate(0,0)"></path>
<path d="M 741.955 560.565 C 749.58 565.521 768.883 594.397 777.054 602.451 C 838.718 663.24 890.779 731.233 927.239 810.196 C 934.077 825.005 940.378 841.644 946.581 857.293 C 944.245 864.824 941.669 871.993 939.016 879.417 L 935.847 886.892 C 914.078 817.585 881.239 752.256 838.603 693.438 C 805.731 647.279 774.165 609.901 741.955 560.565 z" fill="rgb(254,254,254)" transform="translate(0,0)"></path>
<path d="M 1009.58 263.76 C 1009.59 269.547 1004.23 289.083 1002.69 295.811 C 981.65 387.949 988.536 486.187 1007.95 577.993 C 1013.59 604.681 1024.09 630.259 1032.29 656.641 C 1029.48 660.68 1025.23 668.682 1022.64 673.221 C 1009.28 646.915 1001.97 615.548 995.5 586.957 C 976.06 501.105 972.009 410.145 992.902 324.156 C 997.963 303.326 1002.28 284.068 1009.58 263.76 z" fill="rgb(254,254,254)" transform="translate(0,0)"></path>
<path d="M 1341.55 661.408 C 1343.11 661.171 1344.94 661.284 1346.54 661.295 C 1345.91 664.019 1328.47 666.386 1325.15 667.075 C 1223.62 688.138 1117.25 708.537 1036.59 778.595 L 1034.36 780.259 C 1034.54 776.347 1045.84 751.129 1048.19 745.701 C 1061.64 736.997 1079.26 728.745 1093.87 721.974 C 1173.42 685.097 1255 670.379 1341.55 661.408 z" fill="rgb(254,254,254)" transform="translate(0,0)"></path>
<path d="M 1431.02 1842.37 C 1471.1 1836.53 1506.31 1865.46 1541.35 1879.57 C 1563.68 1888.56 1613.35 1894.41 1628.71 1913.98 L 1628.33 1915.41 C 1622.89 1915.96 1609.55 1907.85 1602.46 1905.73 C 1576.69 1898 1558.62 1896.1 1533.08 1886.03 C 1480.47 1863.27 1446.23 1832.18 1387.41 1869.79 C 1371.03 1880.26 1364.62 1886.21 1344.34 1887.25 L 1342.47 1884.52 L 1342.09 1884.6 C 1349.49 1879.08 1359.67 1876.6 1366.5 1872.41 C 1391.99 1856.74 1400.83 1846.51 1431.02 1842.37 z" fill="rgb(254,254,254)" transform="translate(0,0)"></path>
<path d="M 825.656 1814.33 C 840.54 1811.73 868.068 1816.16 881.788 1821.9 C 909.337 1833.43 942.861 1840.45 969.339 1852.83 C 948.022 1851.61 935.426 1849.19 914.414 1843.08 C 874.078 1831.36 854.226 1818.13 812.075 1826.72 C 799.503 1830.22 787.2 1834.62 775.258 1839.88 C 746.744 1852.36 718.846 1870.08 685.923 1866.24 C 682.995 1865.89 682.504 1865.39 681.13 1863.48 C 686.191 1858.36 708.754 1858.99 718.383 1856.13 C 758.249 1844.28 782.523 1820.6 825.656 1814.33 z" fill="rgb(254,254,254)" transform="translate(0,0)"></path>
<path d="M 1206.74 1837.21 C 1244.12 1833.73 1252.53 1863.33 1287.4 1850.54 C 1293.11 1848.45 1308.95 1839.91 1313.51 1846.57 C 1309.87 1852.79 1297.06 1853.31 1290.4 1854.64 C 1278.22 1857.06 1264.78 1861.18 1252.65 1856.7 C 1225.05 1846.5 1219.42 1839.44 1191.51 1853.66 C 1154.27 1874.77 1147.71 1889.41 1099.56 1898.6 C 1111.68 1890.89 1128.24 1883.27 1141.28 1875.56 C 1162.68 1862.91 1183.39 1844.47 1206.74 1837.21 z" fill="rgb(254,254,254)" transform="translate(0,0)"></path>
<path d="M 1397.5 1952.25 C 1403.19 1951.87 1420.58 1949.9 1421.04 1958.04 C 1418.56 1961.23 1418.33 1961.1 1414.88 1962.92 C 1408.91 1963.41 1391.44 1965.06 1391.04 1957.01 C 1393.28 1954.07 1394.24 1953.87 1397.5 1952.25 z" fill="rgb(254,254,254)" transform="translate(0,0)"></path>
<path d="M 1020.62 1910.18 C 1027.28 1909.62 1036.96 1908.49 1039.83 1916.04 C 1037.74 1919.2 1034.72 1919.44 1031.23 1920.11 C 1024.82 1920.28 1015.78 1921.14 1010.76 1916.76 L 1010.86 1914.83 C 1013.7 1911.85 1016.56 1911.44 1020.62 1910.18 z" fill="rgb(254,254,254)" transform="translate(0,0)"></path>
<path d="M 1197.62 1904.22 C 1204.54 1903.81 1218.73 1901.65 1223.62 1907.06 C 1223.47 1910.93 1223.94 1909.01 1221.13 1912.7 C 1215.68 1913.96 1210.05 1914.29 1204.48 1913.68 C 1200.07 1913.18 1198.48 1912.73 1195.94 1909.5 C 1195.9 1905.91 1195.54 1907.67 1197.62 1904.22 z" fill="rgb(254,254,254)" transform="translate(0,0)"></path>
<path d="M 1146.76 1938.18 C 1148.67 1938.03 1150.57 1937.92 1152.47 1937.84 C 1156.7 1937.66 1164.15 1937.84 1163.14 1943.69 C 1160.86 1946.43 1159.88 1946.61 1156.68 1948.06 C 1150.54 1948.23 1142.31 1949 1137.92 1943.79 L 1138.28 1941.66 C 1141.16 1939.06 1142.98 1939.03 1146.76 1938.18 z" fill="rgb(254,254,254)" transform="translate(0,0)"></path>
<path d="M 1309.03 1926.13 C 1314.98 1925.73 1328.1 1923.98 1329.42 1931.6 L 1329.84 1930.39 C 1327.82 1933.24 1327.12 1933.1 1323.8 1934.27 C 1318.17 1934.68 1305.22 1936 1302.76 1929.89 C 1305.24 1926.94 1304.93 1927.74 1309.03 1926.13 z" fill="rgb(254,254,254)" transform="translate(0,0)"></path>
<path d="M 1496.92 1930.34 C 1501.96 1930.45 1511.46 1930.55 1512.74 1936.8 C 1510.16 1939.62 1510.85 1938.76 1506.68 1940.06 C 1502.09 1940.13 1488.97 1940.3 1489.1 1933.82 C 1491.51 1931.23 1493.45 1931.17 1496.92 1930.34 z" fill="rgb(254,254,254)" transform="translate(0,0)"></path>
<path d="M 1565.82 1937.37 C 1570.85 1937.51 1578.21 1937.12 1581.09 1942.06 L 1580.57 1943.93 C 1578.28 1945.61 1577.06 1945.58 1574.25 1946.15 L 1573.12 1946.17 L 1571.25 1946.19 C 1564.82 1946.31 1562.65 1946.84 1557.6 1942.49 L 1557.7 1940.53 C 1560.62 1937.93 1561.99 1938.04 1565.82 1937.37 z" fill="rgb(254,254,254)" transform="translate(0,0)"></path>
<path d="M 1096.11 1827.11 C 1102.18 1826.51 1110.69 1825.56 1114.4 1831.41 C 1113.54 1834.53 1114.22 1833.03 1111.43 1835.68 C 1105.53 1836.85 1098.13 1838.93 1094.05 1833.57 C 1093.93 1830.12 1094.33 1830.02 1096.11 1827.11 z" fill="rgb(254,254,254)" transform="translate(0,0)"></path>
<path d="M 1704.12 1951.37 C 1709.13 1951.2 1720.03 1950.17 1721.92 1955.74 C 1720.72 1958.1 1719 1958.57 1716.58 1959.8 C 1711.55 1960.1 1700.17 1961.45 1698.67 1955.3 C 1700.38 1952.79 1701.34 1952.69 1704.12 1951.37 z" fill="rgb(254,254,254)" transform="translate(0,0)"></path>
<path d="M 1738.22 1917.92 C 1744.65 1918.01 1755.28 1918.25 1757.45 1925.33 L 1755.7 1928.4 C 1751.68 1928.01 1747.67 1927.55 1743.67 1927.03 C 1739.43 1926.44 1737.47 1926.17 1735.04 1922.99 C 1735.62 1919.37 1734.98 1921.15 1738.22 1917.92 z" fill="rgb(254,254,254)" transform="translate(0,0)"></path>
<path d="M 781.905 1856.31 C 786.658 1855.92 793.862 1855.05 794.638 1861.39 C 793.02 1864.41 791.941 1864.62 788.903 1866.2 C 784.287 1866.13 774.388 1866.77 774.699 1859.84 C 777.092 1857.27 778.518 1857.23 781.905 1856.31 z" fill="rgb(254,254,254)" transform="translate(0,0)"></path>
<path d="M 819.732 1786.92 C 825.412 1787.16 830.221 1787.78 831.002 1794.34 C 829.459 1797.88 828.57 1798.05 825.26 1799.99 C 819.68 1799.54 815.523 1798.84 814.336 1792.65 C 815.587 1789.22 816.672 1788.92 819.732 1786.92 z" fill="rgb(254,254,254)" transform="translate(0,0)"></path>
<path d="M 641.463 1921.09 C 646.637 1921.11 654.284 1920.77 655.31 1927.26 C 653.429 1930.4 652.585 1930.47 649.258 1931.93 C 644.219 1932.02 638.26 1932.08 636.199 1926.7 C 637.247 1923.47 638.616 1923.01 641.463 1921.09 z" fill="rgb(254,254,254)" transform="translate(0,0)"></path>
<path d="M 969.262 1889.27 C 974.086 1889.04 980.502 1888.35 980.856 1894.74 C 978.879 1897.94 977.914 1898.01 974.462 1899.47 C 969.977 1899.08 961.711 1898.85 961.707 1892.81 C 963.958 1890.15 965.838 1890.12 969.262 1889.27 z" fill="rgb(254,254,254)" transform="translate(0,0)"></path>
<path d="M 1823.25 1942.22 C 1828.78 1941.83 1841.84 1941.61 1844.11 1947.47 L 1842.8 1950.3 C 1841.57 1950.53 1840.33 1950.72 1839.09 1950.87 C 1833.42 1951.53 1827.67 1951.4 1823.19 1947.72 C 1821.92 1944.11 1821.93 1945.88 1823.25 1942.22 z" fill="rgb(254,254,254)" transform="translate(0,0)"></path>
<path d="M 705.152 1915.16 C 710.521 1914.72 718.322 1913.43 721.489 1918.51 C 720.697 1922.59 720.956 1921.31 717.954 1924.87 C 712.38 1925.34 703.612 1925.02 702.689 1918.29 L 705.152 1915.16 z" fill="rgb(254,254,254)" transform="translate(0,0)"></path>
<path d="M 939.292 1800.96 C 944.997 1800.63 950.37 1800.43 954.028 1805.45 C 953.56 1809.68 954.279 1807.68 951.022 1811.31 C 945.515 1812.12 940.422 1812.53 936.985 1807.58 C 937.118 1803.39 936.907 1804.87 939.292 1800.96 z" fill="rgb(254,254,254)" transform="translate(0,0)"></path>
<path d="M 871.099 1958.19 C 875.894 1958.17 881.998 1957.87 882.516 1963.9 C 880.709 1966.89 879.259 1967.07 875.99 1968.38 C 870.497 1967.66 867.506 1967.56 863.644 1963.72 L 863.689 1961.8 C 865.989 1959.24 867.766 1959.12 871.099 1958.19 z" fill="rgb(254,254,254)" transform="translate(0,0)"></path>
<path d="M 855.246 1771.06 C 860.939 1770.51 867.542 1769.54 871.525 1774.19 C 871.588 1778.01 872.013 1776.19 869.757 1779.69 C 868.467 1779.81 867.176 1779.92 865.883 1780.01 C 860.53 1780.37 858 1781.03 853.946 1777.5 C 853.316 1773.3 853.153 1775.41 855.246 1771.06 z" fill="rgb(254,254,254)" transform="translate(0,0)"></path>
<path d="M 885.697 1794.01 C 890.708 1793.76 896.228 1793.41 898.64 1798.38 C 897.458 1801.92 897.532 1801.03 894.39 1803.9 C 889.205 1804.36 882.784 1805.08 880.7 1799.2 C 882.282 1795.68 882.092 1796.61 885.697 1794.01 z" fill="rgb(254,254,254)" transform="translate(0,0)"></path>
<path d="M 1426.44 1912.28 C 1432.15 1911.87 1438.64 1911.63 1442.58 1916.28 C 1441.73 1919.42 1441.89 1918.49 1438.68 1920.96 C 1433.4 1921.15 1426.08 1921.46 1422.35 1917.37 C 1423.13 1913.94 1422.9 1915.02 1426.44 1912.28 z" fill="rgb(254,254,254)" transform="translate(0,0)"></path>
<path d="M 542.402 1907.2 C 546.986 1906.77 556.281 1905.18 558.861 1909.75 C 558.048 1912.51 557.226 1912.85 555.083 1914.83 C 550.386 1914.98 541.073 1915.46 537.894 1911.53 C 538.939 1908.43 538.719 1909.38 542.402 1907.2 z" fill="rgb(254,254,254)" transform="translate(0,0)"></path>
<path d="M 1251.51 1971.24 C 1256.42 1970.93 1263.71 1970.37 1266.35 1975.27 C 1264.78 1978.56 1265.17 1977.58 1261.71 1979.93 C 1256.12 1980.04 1251.34 1980.78 1247.33 1976.44 C 1248.14 1972.9 1247.84 1974.04 1251.51 1971.24 z" fill="rgb(254,254,254)" transform="translate(0,0)"></path>
<path d="M 525.475 1860.18 C 530.844 1859.88 535.693 1858.98 539.644 1863.1 C 538.912 1866.52 539.073 1865.48 535.696 1868.3 C 529.023 1868.54 526.381 1869.06 520.57 1866.22 L 519.93 1864.33 C 521.252 1861.87 522.932 1861.43 525.475 1860.18 z" fill="rgb(254,254,254)" transform="translate(0,0)"></path>
<path d="M 1659.1 1901.96 C 1664.33 1902.11 1672.05 1902.1 1675.84 1906.03 L 1675.71 1908.3 L 1672.83 1910.71 C 1667.04 1911.16 1660.81 1911.66 1656.7 1907.05 C 1656.77 1903.54 1656.33 1905.29 1659.1 1901.96 z" fill="rgb(254,254,254)" transform="translate(0,0)"></path>
<path d="M 1066.52 1859.02 C 1070.13 1859.38 1069.89 1859.33 1073.08 1861.1 C 1074.96 1864.29 1074.7 1862.63 1073.91 1866.24 C 1071.65 1869.13 1070.57 1869.07 1067.02 1870.02 C 1062.57 1869.4 1060.96 1869.67 1058.34 1865.84 L 1058.87 1863.27 C 1061.56 1860.31 1062.53 1860.32 1066.52 1859.02 z" fill="rgb(254,254,254)" transform="translate(0,0)"></path>
<path d="M 774.847 1801.78 C 779.779 1802.29 783.907 1803.01 784.937 1808.32 C 783.566 1811.46 782.721 1811.66 779.84 1813.46 C 774.83 1813.05 770.624 1812.79 769.394 1807.35 C 770.576 1804.23 772.063 1803.67 774.847 1801.78 z" fill="rgb(254,254,254)" transform="translate(0,0)"></path>
<path d="M 327.453 1949.04 C 332.7 1948.82 341.451 1948.43 344.797 1952.98 C 343.698 1956.33 344.536 1954.72 340.892 1957.35 C 335.898 1957.63 326.169 1957.73 324.837 1951.88 L 327.453 1949.04 z" fill="rgb(254,254,254)" transform="translate(0,0)"></path>
<path d="M 472.172 1894.06 C 477.269 1894.68 482.78 1894.59 485.449 1899.4 C 484.364 1903.1 485.269 1901.35 481.689 1904.29 C 476.662 1904.25 469.841 1904.17 467.939 1898.62 C 468.748 1895.98 469.839 1895.69 472.172 1894.06 z" fill="rgb(254,254,254)" transform="translate(0,0)"></path>
<path d="M 579.854 1861.06 C 585.632 1860.79 591.56 1859.74 595.923 1863.51 C 595.717 1866.95 595.88 1865.78 592.974 1868.96 C 587.626 1869.99 582.628 1870.38 578.352 1866.71 C 577.977 1862.91 577.692 1864.77 579.854 1861.06 z" fill="rgb(254,254,254)" transform="translate(0,0)"></path>
<path d="M 812.224 1913.11 C 817.12 1913.16 822.35 1913.01 824.64 1917.85 C 823.957 1920.87 823.223 1921.07 820.891 1923.17 C 815.866 1923.18 810.135 1923.34 807.698 1918.21 C 809.171 1914.7 808.795 1915.75 812.224 1913.11 z" fill="rgb(254,254,254)" transform="translate(0,0)"></path>
<path d="M 634.368 1859.21 C 640.35 1858.75 650.983 1856.41 654.722 1861.45 L 654.126 1865.19 C 648.286 1866.27 642.446 1867.21 636.955 1865.11 C 634.095 1862.05 635.126 1863.85 634.368 1859.21 z" fill="rgb(254,254,254)" transform="translate(0,0)"></path>
<path d="M 907.632 1934.2 C 912.186 1934.1 918.289 1933.75 919.279 1939.27 C 917.809 1941.85 916.58 1942.07 913.864 1943.32 C 909.419 1943.31 902.477 1943.74 901.183 1938.5 C 903.026 1935.65 904.459 1935.47 907.632 1934.2 z" fill="rgb(254,254,254)" transform="translate(0,0)"></path>
<path d="M 735.779 1879.08 C 737.562 1879.02 739.346 1878.98 741.13 1878.96 C 745.89 1878.91 747.194 1878.76 750.473 1881.94 C 750.868 1886.15 751.16 1884.11 749.127 1888.2 C 743.973 1888.22 738.017 1888.79 734.351 1884.66 C 733.859 1880.92 733.61 1882.76 735.779 1879.08 z" fill="rgb(254,254,254)" transform="translate(0,0)"></path>
<path d="M 398.21 1916.23 C 403.902 1915.82 414.999 1913.64 417.733 1919.42 L 416.527 1922.3 C 410.781 1923.29 403.787 1924.37 398.579 1921.76 C 396.759 1918.58 397.102 1920.33 398.21 1916.23 z" fill="rgb(254,254,254)" transform="translate(0,0)"></path>
<path d="M 1016.69 1811.12 C 1021.44 1811.56 1025.87 1812.1 1026.98 1817.33 C 1024.96 1820.51 1025.41 1819.58 1021.56 1821.57 C 1016.88 1821.26 1010.76 1820.9 1010.5 1815.11 C 1012.51 1812.4 1013.55 1812.31 1016.69 1811.12 z" fill="rgb(254,254,254)" transform="translate(0,0)"></path>
<path d="M 518.507 1945.17 C 523.562 1944.87 529.9 1943.78 533.657 1947.58 C 532.779 1951.05 532.941 1950.01 529.31 1952.75 C 524.419 1953.17 517.428 1953.77 514.231 1949.56 C 515.325 1946.61 515.33 1947.36 518.507 1945.17 z" fill="rgb(254,254,254)" transform="translate(0,0)"></path>
<path d="M 441.13 1951.25 C 441.971 1951.29 442.811 1951.35 443.652 1951.4 C 448.116 1951.71 453.49 1951.9 456.563 1955.43 L 456.184 1957.37 L 452.743 1959.59 C 447.36 1959.92 439.805 1959.98 436.8 1954.65 C 438.446 1951.72 437.361 1953.07 441.13 1951.25 z" fill="rgb(254,254,254)" transform="translate(0,0)"></path>
<path d="M 1341.32 1850.92 C 1346.51 1850.86 1349.67 1850.22 1353.11 1854.41 C 1352.45 1858.51 1352.71 1857.19 1349.51 1860.79 C 1344.24 1861.1 1341.2 1861.93 1338.06 1857.14 C 1338.65 1853.2 1338.45 1854.44 1341.32 1850.92 z" fill="rgb(254,254,254)" transform="translate(0,0)"></path>
<path d="M 608.85 1891.27 C 614.289 1890.92 620.039 1889.97 624.706 1892.67 C 626.252 1896.04 626.026 1894.22 624.51 1898.4 C 619.443 1899.09 612.675 1899.92 608.455 1896.53 C 607.466 1893.09 607.428 1894.79 608.85 1891.27 z" fill="rgb(254,254,254)" transform="translate(0,0)"></path>
<path d="M 574.953 1951.39 C 581.415 1950.67 586.493 1949.51 592.343 1952.44 C 594.393 1955.43 593.842 1953.72 593.261 1957.96 C 586.46 1958.84 575.754 1960.35 574.953 1951.39 z" fill="rgb(254,254,254)" transform="translate(0,0)"></path>
<path d="M 1144.5 1833.93 C 1149.86 1833.92 1152.86 1833.22 1156.33 1837.66 C 1155.88 1841.59 1156 1840.38 1152.89 1843.94 C 1147.65 1844.03 1144.89 1844.34 1141.64 1839.86 C 1142.05 1835.69 1141.42 1837.71 1144.5 1833.93 z" fill="rgb(254,254,254)" transform="translate(0,0)"></path>
<path d="M 729.746 1828.06 C 734.254 1827.87 738.867 1827.19 742.048 1830.97 C 742.568 1834.87 742.768 1832.88 740.35 1836.98 C 735.9 1837.25 730.995 1837.79 727.824 1834.15 C 727.377 1830.65 727.457 1831.82 729.746 1828.06 z" fill="rgb(254,254,254)" transform="translate(0,0)"></path>
<path d="M 1015.98 1856.97 C 1020.45 1857.61 1023.22 1857.66 1025.44 1861.89 C 1023.87 1865.31 1024.16 1864.34 1020.44 1866.75 C 1015.88 1866.53 1011.11 1866.32 1010.04 1861.25 C 1012.25 1858.05 1011.94 1858.92 1015.98 1856.97 z" fill="rgb(254,254,254)" transform="translate(0,0)"></path>
<path d="M 1543.62 1863.95 C 1548.18 1863.89 1553.61 1863.84 1556.78 1867.61 C 1556.67 1870.81 1557.18 1869.31 1554.51 1871.98 C 1549.23 1872.19 1544.39 1873.04 1540.4 1869.77 C 1540.7 1866.08 1540.51 1867.32 1543.62 1863.95 z" fill="rgb(254,254,254)" transform="translate(0,0)"></path>
<path d="M 892.296 1866.01 C 897.188 1865.58 902.036 1865.49 905.815 1869.12 L 905.531 1871.06 L 902.81 1872.89 L 901.589 1873.07 C 896.708 1873.75 893.777 1874.4 889.874 1871.48 C 889.824 1867.76 889.415 1869.63 892.296 1866.01 z" fill="rgb(254,254,254)" transform="translate(0,0)"></path>
<path d="M 981.535 1799.91 C 986.115 1800.36 988.639 1800.49 991.526 1804.33 C 990.502 1808.11 991.438 1806.37 987.867 1809.24 C 982.931 1808.99 979.698 1809.63 977.053 1805.17 C 978.518 1801.51 978.036 1802.66 981.535 1799.91 z" fill="rgb(254,254,254)" transform="translate(0,0)"></path>
<path d="M 757.288 1937.96 C 761.728 1937.66 765.486 1937.2 768.944 1940.13 C 769.704 1943.9 769.824 1941.96 767.516 1946.03 C 762.532 1946.34 759.145 1946.91 755.397 1943.73 C 755.232 1939.83 754.877 1941.75 757.288 1937.96 z" fill="rgb(254,254,254)" transform="translate(0,0)"></path>
<path d="M 889.358 1896.81 C 893.237 1897.24 896.988 1897.84 899.54 1900.98 C 899.543 1904.76 900.104 1902.99 897.052 1906.19 L 896.082 1906.21 C 891.355 1906.23 889.297 1906.32 886.074 1903.1 C 886.506 1899.08 886.269 1900.42 889.358 1896.81 z" fill="rgb(254,254,254)" transform="translate(0,0)"></path>
<path d="M 1256.78 1877.92 C 1260.93 1877.53 1265.61 1877.02 1269.06 1879.52 C 1270.42 1883.16 1270.22 1881.21 1268.63 1885.61 C 1264.38 1886.13 1261.42 1886.57 1257.72 1884.3 C 1255.77 1880.44 1256.19 1882.47 1256.78 1877.92 z" fill="rgb(254,254,254)" transform="translate(0,0)"></path>
<path d="M 1335.13 1905.69 C 1339.93 1906.44 1344.09 1905.86 1345.52 1910.69 L 1343.27 1913.87 C 1338.91 1914.5 1336.57 1915.21 1333.2 1912.08 C 1333.18 1907.75 1332.76 1909.85 1335.13 1905.69 z" fill="rgb(254,254,254)" transform="translate(0,0)"></path>
<path d="M 1551.86 339.292 C 1556.11 335.971 1569.66 325.983 1574.68 325.887 C 1570.81 329.695 1558.13 337.636 1553.04 341.015 L 1551.86 339.292 z" fill="rgb(134,143,160)" transform="translate(0,0)"></path>
<metadata><recraft-signature>{"signed_by": "recraft", "signature_b64": "XqC5AUIUoggOVgKoHxFyqCO9NaVTAkIJRGhAAI3vMys4dKRgK8w2xmLoiJ8iBpOy9d+ZMSMTm6gB22rO1S+GDg==", "signing_algo": "Ed25519", "generation_timestamp": 1765311609, "identifier": "795ed3c7-2e63-4058-a0a4-3a4fb1f1f753"}</recraft-signature></metadata></svg>